<svg xmlns="http://www.w3.org/2000/svg" width="233" height="72"><g fill="#FFF"><path d="M62.401 0H9.6A9.618 9.618 0 0 0 0 9.599V62.4A9.618 9.618 0 0 0 9.599 72H62.4A9.599 9.599 0 0 0 72 62.401V9.6A9.618 9.618 0 0 0 62.401 0zm1.886 49.03h-7.713l-2.923-5.883-2.847 5.884H36V30.324a2.885 2.885 0 0 0-2.923-2.791 2.866 2.866 0 0 0-2.904 2.79v18.708h-7.694V30.286a2.923 2.923 0 0 0-2.923-2.81 2.866 2.866 0 0 0-2.923 2.81v18.745H8.9V22.969h7.732v3.036h.132a6.26 6.26 0 0 1 2.715-2.376 10.07 10.07 0 0 1 3.772-.66 7.543 7.543 0 0 1 3.658.868 6.506 6.506 0 0 1 2.527 2.32 8.807 8.807 0 0 1 3.055-2.396 10.221 10.221 0 0 1 6.77-.396 7.43 7.43 0 0 1 2.226 1.15 5.657 5.657 0 0 1 1.508 1.698c.453.829.705 1.752.736 2.696v18.858l5.997-11.786-6.62-13.03h7.732l2.923 5.883 2.81-5.865h7.732L57.686 36l6.601 13.03zM196 19.056c-.176-3.797-3.124-6.84-6.82-7.041a5.43 5.43 0 0 0-.78 0V24.95a6.063 6.063 0 0 0-2.1-1.526 9.222 9.222 0 0 0-3.718-.668 6.748 6.748 0 0 0-4.516 1.336 7.635 7.635 0 0 0-2.304 3.377 15.279 15.279 0 0 0-.762 4.408v8.738c.053 1.524.31 3.032.762 4.484a7.641 7.641 0 0 0 2.304 3.454 6.824 6.824 0 0 0 4.665 1.43 9.081 9.081 0 0 0 3.921-.762 4.744 4.744 0 0 0 1.636-1.203v1.26h7.638V19.226l.074-.171zm-7.6 12.478V42.81c-.071 1.129-.81 2.098-1.86 2.442a2.053 2.053 0 0 1-.836.172s-3.605.706-3.605-9.102c0-4.674.836-6.964 1.691-8.052l.223-.362c.127-.14.287-.246.465-.305a1.677 1.677 0 0 1 1.19-.325c.484.007.958.145 1.374.4a2.936 2.936 0 0 1 1.394 2.52v1.259l-.037.076zm-50.056 10.56a2.62 2.62 0 0 1-1.864 2.306 6.693 6.693 0 0 1-.931.168 2.598 2.598 0 0 1-2.023-.56 2.629 2.629 0 0 1-.96-1.876 49.143 49.143 0 0 1-.241-4.986h13.604a55.63 55.63 0 0 0 0-5.623 11.726 11.726 0 0 0-1.342-4.442 7.807 7.807 0 0 0-3.224-2.98 12.98 12.98 0 0 0-5.796-1.088c-1.95-.074-3.895.27-5.702 1.013a7.69 7.69 0 0 0-3.187 2.736 9.765 9.765 0 0 0-1.38 4.03 40.49 40.49 0 0 0-.297 4.873c-.01 1.793.102 3.584.335 5.36a10.63 10.63 0 0 0 1.435 4.218 7.317 7.317 0 0 0 3.187 2.737 13.239 13.239 0 0 0 5.59 1.012 14.477 14.477 0 0 0 4.473-.637 9.061 9.061 0 0 0 3.187-1.781 7.363 7.363 0 0 0 2.758-5.623h-7.622a6.9 6.9 0 0 1 0 1.143zm-5.777-11.977a2.934 2.934 0 0 1 2.888-2.793 2.768 2.768 0 0 1 2.061.763 2.8 2.8 0 0 1 .865 2.03c.074 1.03.074 2.063 0 3.093h-5.945c.13-2.024.13-1.968.13-3.093zm-10.643-1.245a6.728 6.728 0 0 0-.775-2.69 5.408 5.408 0 0 0-1.513-1.693 7.238 7.238 0 0 0-2.193-1.092 10.24 10.24 0 0 0-6.77.395 8.71 8.71 0 0 0-3.081 2.39 6.511 6.511 0 0 0-2.534-2.314A7.994 7.994 0 0 0 101.39 23a10.295 10.295 0 0 0-3.782.659 6.268 6.268 0 0 0-2.723 2.37h-.114v-3.029H87V49h7.771V30.188a2.925 2.925 0 0 1 2.922-2.682 2.925 2.925 0 0 1 2.921 2.682V49h7.79V30.338a2.925 2.925 0 0 1 2.922-2.682 2.925 2.925 0 0 1 2.921 2.682V49H122V28.87h-.076zm48.463-2.688a5.62 5.62 0 0 0-1.506-1.693 7.196 7.196 0 0 0-2.137-1.091 10.015 10.015 0 0 0-2.602-.395 8.881 8.881 0 0 0-3.716.696 5.967 5.967 0 0 0-2.695 2.332h-.112v-3.028H150V49h7.62V30.302c.12-1.514 1.37-2.681 2.87-2.681 1.502 0 2.751 1.167 2.872 2.681V49H171V28.478a5.697 5.697 0 0 0-.613-2.295z"/><path d="M233 23L225.381 23 222.5 28.87 219.638 23 212 23 218.523 36 212 49 219.638 49 222.5 43.13 225.381 49 233 49 226.496 36z"/><path d="M209 49L201 49 201 23 209 23z"/><path d="M207.745 19h-5.49c-.693 0-1.255-.54-1.255-1.208v-4.584c0-.667.562-1.208 1.255-1.208h5.49c.693 0 1.255.54 1.255 1.208v4.584c0 .667-.562 1.208-1.255 1.208z"/></g></svg>