<svg height="512" width="512" 
	xmlns="http://www.w3.org/2000/svg" 
	xmlns:xlink="http://www.w3.org/1999/xlink">
	<defs>
		<linearGradient id="a" x1="50%" x2="50%" y1="100%" y2="0%">
			<stop offset="0" stop-color="#183344"/>
			<stop offset="1" stop-color="#203f51"/>
		</linearGradient>
		<linearGradient id="b" x1="50%" x2="50%" y1="0%" y2="100%">
			<stop offset="0" stop-opacity="0"/>
			<stop offset="1"/>
		</linearGradient>
		<path id="c" d="m106.5 0h299c58.818 0 106.5 47.682 106.5 106.5v405.5h-405.5c-58.818 0-106.5-47.682-106.5-106.5v-299c0-58.818 47.682-106.5 106.5-106.5z"/>
		<filter id="d" height="100.8%" width="100.8%" x="-.4%" y="-.4%">
			<feGaussianBlur in="SourceAlpha" result="shadowBlurInner1" stdDeviation="1"/>
			<feOffset dy="-2" in="shadowBlurInner1" result="shadowOffsetInner1"/>
			<feComposite in="shadowOffsetInner1" in2="SourceAlpha" k2="-1" k3="1" operator="arithmetic" result="shadowInnerInner1"/>
			<feColorMatrix in="shadowInnerInner1" values="0 0 0 0 0 0 0 0 0 0 0 0 0 0 0 0 0 0 0.284137228 0"/>
		</filter>
		<linearGradient id="e">
			<stop offset="0" stop-color="#fafcff"/>
			<stop offset=".41871" stop-color="#f5f9fe"/>
			<stop offset="1" stop-color="#f3f3f3"/>
		</linearGradient>
		<linearGradient id="f" x1="24.825%" x2="59.26%" xlink:href="#e" y1="34.36%" y2="62.856%"/>
		<path id="g" d="m341.164 0h-47.107l-17.858 35.759-17.856-35.759h-47.105l40.308 79.457-36.403 71.754v-115.298c0-5.26-2.167-12.226-4.516-16.372-2.338-4.146-5.394-7.638-9.18-10.478-3.792-2.835-8.245-5.01-13.365-6.529-5.125-1.517-10.472-2.278-16.038-2.278-9.8 0-18.154 1.567-25.055 4.708-6.906 3.139-13.145 8.046-18.702 14.724-3.798-6.069-8.918-10.829-15.376-14.273-6.46-3.438-13.918-5.159-22.374-5.159-8.911 0-16.602 1.36-23.054 4.099-6.465 2.736-12.03 7.548-16.709 14.423h-.663v-18.522h-47.105v158.658h47.104v-105.69c0-.328.033-.622.04-.944v-7.475h.012c.08-9.459 7.953-17.109 17.673-17.109s17.595 7.65 17.673 17.11h.014v7.82h-.022c.003.206.024.389.024.597v105.69h47.105v-114.107h.014c.078-9.459 7.954-17.109 17.673-17.109 9.717 0 17.593 7.65 17.673 17.11h.015v7.82l.035 106.288h90.305l17.856-35.76 17.858 35.76h47.107l-40.308-79.457z"/>
		<filter id="h" height="110.1%" width="104.7%" x="-2.4%" y="-2.5%">
			<feOffset dy="4" in="SourceAlpha" result="shadowOffsetOuter1"/>
			<feGaussianBlur in="shadowOffsetOuter1" result="shadowBlurOuter1" stdDeviation="2"/>
			<feColorMatrix in="shadowBlurOuter1" result="shadowMatrixOuter1" values="0 0 0 0 0 0 0 0 0 0 0 0 0 0 0 0 0 0 0.20703125 0"/>
			<feOffset dy="2" in="SourceAlpha" result="shadowOffsetOuter2"/>
			<feGaussianBlur in="shadowOffsetOuter2" result="shadowBlurOuter2" stdDeviation="1"/>
			<feColorMatrix in="shadowBlurOuter2" result="shadowMatrixOuter2" values="0 0 0 0 0 0 0 0 0 0 0 0 0 0 0 0 0 0 0.285920516 0"/>
			<feMerge>
				<feMergeNode in="shadowMatrixOuter1"/>
				<feMergeNode in="shadowMatrixOuter2"/>
			</feMerge>
		</filter>
		<filter id="i" height="108.8%" width="104.1%" x="-2.1%" y="-1.9%">
			<feGaussianBlur in="SourceAlpha" result="shadowBlurInner1" stdDeviation="1"/>
			<feOffset dy="4" in="shadowBlurInner1" result="shadowOffsetInner1"/>
			<feComposite in="shadowOffsetInner1" in2="SourceAlpha" k2="-1" k3="1" operator="arithmetic" result="shadowInnerInner1"/>
			<feColorMatrix in="shadowInnerInner1" result="shadowMatrixInner1" values="0 0 0 0 1 0 0 0 0 1 0 0 0 0 1 0 0 0 1 0"/>
			<feGaussianBlur in="SourceAlpha" result="shadowBlurInner2" stdDeviation="1"/>
			<feOffset dy="-2" in="shadowBlurInner2" result="shadowOffsetInner2"/>
			<feComposite in="shadowOffsetInner2" in2="SourceAlpha" k2="-1" k3="1" operator="arithmetic" result="shadowInnerInner2"/>
			<feColorMatrix in="shadowInnerInner2" result="shadowMatrixInner2" values="0 0 0 0 0.537254902 0 0 0 0 0.650980392 0 0 0 0 0.745098039 0 0 0 1 0"/>
			<feMerge>
				<feMergeNode in="shadowMatrixInner1"/>
				<feMergeNode in="shadowMatrixInner2"/>
			</feMerge>
		</filter>
		<linearGradient id="j" x1="24.825%" x2="59.26%" xlink:href="#e" y1="46.874%" y2="52.57%"/>
		<path id="k" d="m14.708 10.95c7.767 0 12.964 4.284 15.02 7.425l-3.54 6.225h-.344c-2.17-3.426-6.053-7.024-10.965-7.024-3.998 0-6.054 2.113-6.054 4.683 0 3.084 2.685 4.283 9.024 5.997 7.424 1.941 13.707 4.283 13.707 12.278 0 7.71-5.94 11.765-14.335 11.765-8.224 0-14.164-4.055-16.848-7.595l3.427-6.854h.342c2.399 3.37 6.968 7.596 13.022 7.596 4.511 0 7.196-1.542 7.196-4.74 0-3.884-3.941-4.798-9.995-6.397-7.653-2.056-12.793-4.797-12.793-11.993 0-6.225 5.083-11.365 13.136-11.365zm48.43 7.368h-11.194v33.296h-7.31v-33.296h-11.08v-6.682h29.584zm35.866-6.682v25.244c0 8.853-5.026 15.42-15.534 15.42-10.509 0-15.763-6.567-15.763-15.42v-25.244h7.31v24.844c0 5.425 2.57 9.023 8.453 9.023 5.825 0 8.28-3.598 8.28-9.023v-24.844zm8.28 0h14.279c11.707 0 18.447 6.168 18.447 19.99 0 13.763-6.74 19.988-18.733 19.988h-13.992v-39.978zm7.311 6.682v26.557h7.539c7.139 0 10.622-4.855 10.622-13.364 0-8.224-2.912-13.193-10.508-13.193zm39.293 33.296h-7.31v-39.978h7.31zm24.957-40.663c10.851 0 18.333 9.595 18.333 20.788 0 11.023-5.94 20.56-18.333 20.56-12.45 0-18.39-9.537-18.39-20.56 0-11.193 7.482-20.788 18.39-20.788zm0 6.568c-7.196 0-11.08 6.739-11.08 14.106 0 7.824 3.827 13.821 11.08 13.821 7.196 0 11.08-5.882 11.08-13.82 0-7.425-3.941-14.107-11.08-14.107z"/>
		<filter id="l" height="153.2%" width="111.2%" x="-5.6%" y="-16.9%">
			<feOffset dy="4" in="SourceAlpha" result="shadowOffsetOuter1"/>
			<feGaussianBlur in="shadowOffsetOuter1" result="shadowBlurOuter1" stdDeviation="3"/>
			<feColorMatrix in="shadowBlurOuter1" result="shadowMatrixOuter1" values="0 0 0 0 0 0 0 0 0 0 0 0 0 0 0 0 0 0 0.25551792 0"/>
			<feOffset dy="2" in="SourceAlpha" result="shadowOffsetOuter2"/>
			<feGaussianBlur in="shadowOffsetOuter2" result="shadowBlurOuter2" stdDeviation="1"/>
			<feColorMatrix in="shadowBlurOuter2" result="shadowMatrixOuter2" values="0 0 0 0 0 0 0 0 0 0 0 0 0 0 0 0 0 0 0.285920516 0"/>
			<feMerge>
				<feMergeNode in="shadowMatrixOuter1"/>
				<feMergeNode in="shadowMatrixOuter2"/>
			</feMerge>
		</filter>
		<filter id="m" height="143.5%" width="109.1%" x="-4.6%" y="-12.1%">
			<feGaussianBlur in="SourceAlpha" result="shadowBlurInner1" stdDeviation="1"/>
			<feOffset dy="4" in="shadowBlurInner1" result="shadowOffsetInner1"/>
			<feComposite in="shadowOffsetInner1" in2="SourceAlpha" k2="-1" k3="1" operator="arithmetic" result="shadowInnerInner1"/>
			<feColorMatrix in="shadowInnerInner1" result="shadowMatrixInner1" values="0 0 0 0 1 0 0 0 0 1 0 0 0 0 1 0 0 0 1 0"/>
			<feGaussianBlur in="SourceAlpha" result="shadowBlurInner2" stdDeviation="1"/>
			<feOffset dy="-2" in="shadowBlurInner2" result="shadowOffsetInner2"/>
			<feComposite in="shadowOffsetInner2" in2="SourceAlpha" k2="-1" k3="1" operator="arithmetic" result="shadowInnerInner2"/>
			<feColorMatrix in="shadowInnerInner2" result="shadowMatrixInner2" values="0 0 0 0 0.537254902 0 0 0 0 0.650980392 0 0 0 0 0.745098039 0 0 0 1 0"/>
			<feMerge>
				<feMergeNode in="shadowMatrixInner1"/>
				<feMergeNode in="shadowMatrixInner2"/>
			</feMerge>
		</filter>
		<linearGradient id="n" x1="24.825%" x2="59.26%" xlink:href="#e" y1="33.659%" y2="63.432%"/>
		<path id="o" d="m0 0h129.799v62.349h-129.799z"/>
		<filter id="p" height="135.3%" width="116.9%" x="-8.5%" y="-11.2%">
			<feOffset dy="4" in="SourceAlpha" result="shadowOffsetOuter1"/>
			<feGaussianBlur in="shadowOffsetOuter1" result="shadowBlurOuter1" stdDeviation="3"/>
			<feColorMatrix in="shadowBlurOuter1" result="shadowMatrixOuter1" values="0 0 0 0 0 0 0 0 0 0 0 0 0 0 0 0 0 0 0.25551792 0"/>
			<feOffset dy="2" in="SourceAlpha" result="shadowOffsetOuter2"/>
			<feGaussianBlur in="shadowOffsetOuter2" result="shadowBlurOuter2" stdDeviation="1"/>
			<feColorMatrix in="shadowBlurOuter2" result="shadowMatrixOuter2" values="0 0 0 0 0 0 0 0 0 0 0 0 0 0 0 0 0 0 0.285920516 0"/>
			<feMerge>
				<feMergeNode in="shadowMatrixOuter1"/>
				<feMergeNode in="shadowMatrixOuter2"/>
			</feMerge>
		</filter>
		<filter id="q" height="128.9%" width="113.9%" x="-6.9%" y="-8%">
			<feGaussianBlur in="SourceAlpha" result="shadowBlurInner1" stdDeviation="1"/>
			<feOffset dy="4" in="shadowBlurInner1" result="shadowOffsetInner1"/>
			<feComposite in="shadowOffsetInner1" in2="SourceAlpha" k2="-1" k3="1" operator="arithmetic" result="shadowInnerInner1"/>
			<feColorMatrix in="shadowInnerInner1" result="shadowMatrixInner1" values="0 0 0 0 1 0 0 0 0 1 0 0 0 0 1 0 0 0 1 0"/>
			<feGaussianBlur in="SourceAlpha" result="shadowBlurInner2" stdDeviation="1"/>
			<feOffset dy="-2" in="shadowBlurInner2" result="shadowOffsetInner2"/>
			<feComposite in="shadowOffsetInner2" in2="SourceAlpha" k2="-1" k3="1" operator="arithmetic" result="shadowInnerInner2"/>
			<feColorMatrix in="shadowInnerInner2" result="shadowMatrixInner2" values="0 0 0 0 0.537254902 0 0 0 0 0.650980392 0 0 0 0 0.745098039 0 0 0 1 0"/>
			<feMerge>
				<feMergeNode in="shadowMatrixInner1"/>
				<feMergeNode in="shadowMatrixInner2"/>
			</feMerge>
		</filter>
	</defs>
	<g fill="none" fill-rule="evenodd">
		<use fill="url(#a)" xlink:href="#c"/>
		<use fill="url(#b)" fill-opacity=".5" xlink:href="#c"/>
		<use fill="#000" filter="url(#d)" xlink:href="#c"/>
		<g fill-rule="nonzero" transform="translate(87.17 130.754)">
			<use fill="#000" filter="url(#h)" xlink:href="#g"/>
			<use fill="#fff" xlink:href="#g"/>
			<use fill="url(#f)" xlink:href="#g"/>
			<use fill="#000" filter="url(#i)" xlink:href="#g"/>
		</g>
		<g fill-rule="nonzero" transform="translate(87.17 318.104)">
			<use fill="#000" filter="url(#l)" xlink:href="#k"/>
			<use fill="#fff" xlink:href="#k"/>
			<use fill="url(#j)" xlink:href="#k"/>
			<use fill="#000" filter="url(#m)" xlink:href="#k"/>
		</g>
		<g transform="translate(299.745 318.582)">
			<use fill="#000" filter="url(#p)" xlink:href="#o"/>
			<use fill="url(#n)" xlink:href="#o"/>
			<use fill="#000" filter="url(#q)" xlink:href="#o"/>
			<path d="m12.957 11.158h15.363c8.11 0 13.65 4.512 13.65 12.85 0 8.51-6.282 12.964-14.392 12.964h-7.31v14.164h-7.31v-39.978zm7.31 6.682v12.393h6.34c5.425 0 8.11-2.399 8.11-6.34 0-3.654-1.714-6.053-7.14-6.053zm27.414-6.682h16.79c7.939 0 13.25 4.283 13.25 12.45 0 7.539-5.368 11.023-11.308 11.765l11.48 15.763h-9.138l-10.623-15.592h-3.14v15.592h-7.312v-39.978zm7.31 6.682v11.25h7.767c4.912 0 7.71-1.884 7.71-5.71 0-3.655-1.999-5.54-6.967-5.54zm45.86-7.367c10.851 0 18.333 9.594 18.333 20.788 0 11.023-5.94 20.56-18.333 20.56-12.45 0-18.39-9.537-18.39-20.56 0-11.194 7.482-20.788 18.39-20.788zm0 6.567c-7.196 0-11.08 6.74-11.08 14.107 0 7.824 3.827 13.82 11.08 13.82 7.196 0 11.08-5.882 11.08-13.82 0-7.425-3.94-14.107-11.08-14.107z" fill="#11242f" fill-rule="nonzero"/>
		</g>
	</g>
</svg>