<svg xmlns="http://www.w3.org/2000/svg" xmlns:xlink="http://www.w3.org/1999/xlink" width="66" height="66"><defs><linearGradient id="b" x1="50%" x2="50%" y1="0%" y2="100%"><stop offset="0%" stop-opacity="0"/><stop offset="100%"/></linearGradient><path id="a" d="M13.496 0h39.008C59.958 0 66 6.042 66 13.496V66H13.496C6.042 66 0 59.958 0 52.504V13.496C0 6.042 6.042 0 13.496 0z"/><filter id="c" width="103%" height="103%" x="-1.5%" y="-1.5%" filterUnits="objectBoundingBox"><feGaussianBlur in="SourceAlpha" result="shadowBlurInner1" stdDeviation=".5"/><feOffset dy="-1" in="shadowBlurInner1" result="shadowOffsetInner1"/><feComposite in="shadowOffsetInner1" in2="SourceAlpha" k2="-1" k3="1" operator="arithmetic" result="shadowInnerInner1"/><feColorMatrix in="shadowInnerInner1" values="0 0 0 0 0 0 0 0 0 0 0 0 0 0 0 0 0 0 0.284137228 0"/></filter><path id="e" d="M43.978 0h-6.072l-2.302 4.61L33.302 0H27.23l5.196 10.242-4.693 9.25V4.63c0-.678-.28-1.576-.582-2.11a4.323 4.323 0 0 0-1.183-1.35 5.425 5.425 0 0 0-1.723-.842 7.245 7.245 0 0 0-2.067-.294c-1.264 0-2.34.202-3.23.607-.89.405-1.695 1.037-2.411 1.898a5.157 5.157 0 0 0-1.982-1.84c-.833-.443-1.794-.665-2.884-.665-1.149 0-2.14.175-2.972.528-.833.353-1.55.973-2.154 1.86H6.46V.033H.387v20.452H6.46V6.861c0-.042.004-.08.005-.122v-.963h.001c.01-1.22 1.026-2.206 2.278-2.206 1.253 0 2.269.986 2.279 2.206h.001v1.008h-.003c0 .026.003.05.003.077v13.624h6.073V5.775h.001c.01-1.219 1.026-2.205 2.279-2.205 1.252 0 2.267.986 2.278 2.206h.002v1.008l.004 13.701h11.641l2.302-4.61 2.302 4.61h6.072l-5.196-10.243L43.978 0"/><filter id="d" width="109.2%" height="119.5%" x="-4.6%" y="-4.9%" filterUnits="objectBoundingBox"><feOffset dy="1" in="SourceAlpha" result="shadowOffsetOuter1"/><feGaussianBlur in="shadowOffsetOuter1" result="shadowBlurOuter1" stdDeviation=".5"/><feColorMatrix in="shadowBlurOuter1" result="shadowMatrixOuter1" values="0 0 0 0 0 0 0 0 0 0 0 0 0 0 0 0 0 0 0.20703125 0"/><feOffset dy="1" in="SourceAlpha" result="shadowOffsetOuter2"/><feGaussianBlur in="shadowOffsetOuter2" result="shadowBlurOuter2" stdDeviation=".5"/><feColorMatrix in="shadowBlurOuter2" result="shadowMatrixOuter2" values="0 0 0 0 0.0941176471 0 0 0 0 0.2 0 0 0 0 0.266666667 0 0 0 1 0"/><feMerge><feMergeNode in="shadowMatrixOuter1"/><feMergeNode in="shadowMatrixOuter2"/></feMerge></filter><filter id="f" width="109.2%" height="119.5%" x="-4.6%" y="-4.9%" filterUnits="objectBoundingBox"><feGaussianBlur in="SourceAlpha" result="shadowBlurInner1" stdDeviation=".5"/><feOffset dy="1" in="shadowBlurInner1" result="shadowOffsetInner1"/><feComposite in="shadowOffsetInner1" in2="SourceAlpha" k2="-1" k3="1" operator="arithmetic" result="shadowInnerInner1"/><feColorMatrix in="shadowInnerInner1" result="shadowMatrixInner1" values="0 0 0 0 0.0941176471 0 0 0 0 0.2 0 0 0 0 0.266666667 0 0 0 1 0"/><feGaussianBlur in="SourceAlpha" result="shadowBlurInner2" stdDeviation=".5"/><feOffset dy="-1" in="shadowBlurInner2" result="shadowOffsetInner2"/><feComposite in="shadowOffsetInner2" in2="SourceAlpha" k2="-1" k3="1" operator="arithmetic" result="shadowInnerInner2"/><feColorMatrix in="shadowInnerInner2" result="shadowMatrixInner2" values="0 0 0 0 0.537254902 0 0 0 0 0.650980392 0 0 0 0 0.745098039 0 0 0 1 0"/><feMerge><feMergeNode in="shadowMatrixInner1"/><feMergeNode in="shadowMatrixInner2"/></feMerge></filter><path id="h" d="M1.896 1.412c1.001 0 1.671.552 1.936.957l-.456.802h-.044c-.28-.442-.78-.905-1.414-.905-.515 0-.78.272-.78.603 0 .398.346.552 1.163.773.957.25 1.767.552 1.767 1.583 0 .994-.766 1.517-1.848 1.517-1.06 0-1.826-.523-2.172-.98L.49 4.88h.044c.31.434.898.98 1.678.98.582 0 .928-.2.928-.612 0-.5-.508-.618-1.288-.824-.987-.265-1.65-.619-1.65-1.546 0-.803.656-1.465 1.694-1.465zm6.243.95H6.696v4.291h-.942V2.361H4.325V1.5H8.14v.861zm4.623-.862v3.254c0 1.141-.648 1.988-2.002 1.988-1.355 0-2.032-.847-2.032-1.988V1.5h.942v3.202c0 .7.331 1.164 1.09 1.164.75 0 1.067-.464 1.067-1.164V1.5h.935zm1.068 0h1.84c1.51 0 2.378.795 2.378 2.577 0 1.774-.869 2.576-2.415 2.576H13.83V1.5zm.942.861v3.424h.972c.92 0 1.37-.626 1.37-1.723 0-1.06-.376-1.7-1.355-1.7h-.987zm5.065 4.292h-.942V1.5h.942v5.153zm3.217-5.241c1.399 0 2.363 1.236 2.363 2.68 0 1.42-.765 2.65-2.363 2.65-1.605 0-2.37-1.23-2.37-2.65 0-1.444.964-2.68 2.37-2.68zm0 .846c-.927 0-1.428.869-1.428 1.819 0 1.008.493 1.781 1.428 1.781.928 0 1.428-.758 1.428-1.781 0-.957-.508-1.819-1.428-1.819z"/><filter id="g" width="127.6%" height="231.3%" x="-13.8%" y="-46.9%" filterUnits="objectBoundingBox"><feOffset dy="1" in="SourceAlpha" result="shadowOffsetOuter1"/><feGaussianBlur in="shadowOffsetOuter1" result="shadowBlurOuter1" stdDeviation="1"/><feColorMatrix in="shadowBlurOuter1" result="shadowMatrixOuter1" values="0 0 0 0 0 0 0 0 0 0 0 0 0 0 0 0 0 0 0.25551792 0"/><feOffset dy="1" in="SourceAlpha" result="shadowOffsetOuter2"/><feGaussianBlur in="shadowOffsetOuter2" result="shadowBlurOuter2" stdDeviation=".5"/><feColorMatrix in="shadowBlurOuter2" result="shadowMatrixOuter2" values="0 0 0 0 0 0 0 0 0 0 0 0 0 0 0 0 0 0 0.285920516 0"/><feMerge><feMergeNode in="shadowMatrixOuter1"/><feMergeNode in="shadowMatrixOuter2"/></feMerge></filter><filter id="i" width="123.7%" height="212.6%" x="-11.8%" y="-37.5%" filterUnits="objectBoundingBox"><feGaussianBlur in="SourceAlpha" result="shadowBlurInner1" stdDeviation=".5"/><feOffset dy="1" in="shadowBlurInner1" result="shadowOffsetInner1"/><feComposite in="shadowOffsetInner1" in2="SourceAlpha" k2="-1" k3="1" operator="arithmetic" result="shadowInnerInner1"/><feColorMatrix in="shadowInnerInner1" result="shadowMatrixInner1" values="0 0 0 0 0.0941176471 0 0 0 0 0.2 0 0 0 0 0.266666667 0 0 0 1 0"/><feGaussianBlur in="SourceAlpha" result="shadowBlurInner2" stdDeviation=".5"/><feOffset dy="-1" in="shadowBlurInner2" result="shadowOffsetInner2"/><feComposite in="shadowOffsetInner2" in2="SourceAlpha" k2="-1" k3="1" operator="arithmetic" result="shadowInnerInner2"/><feColorMatrix in="shadowInnerInner2" result="shadowMatrixInner2" values="0 0 0 0 0.537254902 0 0 0 0 0.650980392 0 0 0 0 0.745098039 0 0 0 1 0"/><feMerge><feMergeNode in="shadowMatrixInner1"/><feMergeNode in="shadowMatrixInner2"/></feMerge></filter><path id="k" d="M0 0H16.732V8.037H0z"/><filter id="j" width="141.8%" height="187.1%" x="-20.9%" y="-31.1%" filterUnits="objectBoundingBox"><feOffset dy="1" in="SourceAlpha" result="shadowOffsetOuter1"/><feGaussianBlur in="shadowOffsetOuter1" result="shadowBlurOuter1" stdDeviation="1"/><feColorMatrix in="shadowBlurOuter1" result="shadowMatrixOuter1" values="0 0 0 0 0 0 0 0 0 0 0 0 0 0 0 0 0 0 0.25551792 0"/><feOffset dy="1" in="SourceAlpha" result="shadowOffsetOuter2"/><feGaussianBlur in="shadowOffsetOuter2" result="shadowBlurOuter2" stdDeviation=".5"/><feColorMatrix in="shadowBlurOuter2" result="shadowMatrixOuter2" values="0 0 0 0 0 0 0 0 0 0 0 0 0 0 0 0 0 0 0.285920516 0"/><feMerge><feMergeNode in="shadowMatrixOuter1"/><feMergeNode in="shadowMatrixOuter2"/></feMerge></filter></defs><g fill="none" fill-rule="evenodd"><use fill="#FFF" xlink:href="#a"/><use fill="url(#b)" fill-opacity=".5" style="mix-blend-mode:overlay" xlink:href="#a"/><use fill="#000" filter="url(#c)" xlink:href="#a"/><g fill-rule="nonzero" transform="translate(11.237 16.855)"><use fill="#000" filter="url(#d)" xlink:href="#e"/><use fill="#183344" xlink:href="#e"/><use fill="#000" filter="url(#f)" xlink:href="#e"/></g><g fill-rule="nonzero" transform="translate(11.237 41.005)"><use fill="#000" filter="url(#g)" xlink:href="#h"/><use fill="#183344" xlink:href="#h"/><use fill="#000" filter="url(#i)" xlink:href="#h"/></g><g transform="translate(38.639 41.067)"><use fill="#000" filter="url(#j)" xlink:href="#k"/><use fill="#183344" xlink:href="#k"/><path fill="#FFF" fill-rule="nonzero" d="M1.67 1.438h1.98c1.046 0 1.76.582 1.76 1.657 0 1.097-.81 1.67-1.855 1.67h-.942v1.827H1.67V1.438zm.943.862v1.597h.817c.7 0 1.045-.309 1.045-.817 0-.471-.22-.78-.92-.78h-.942zm3.533-.862h2.165c1.023 0 1.708.552 1.708 1.605 0 .972-.692 1.421-1.458 1.517l1.48 2.032H8.863l-1.37-2.01H7.09v2.01h-.943V1.438zm.943.862v1.45h1c.634 0 .995-.243.995-.736 0-.471-.258-.714-.898-.714H7.089zM13 1.35c1.4 0 2.364 1.237 2.364 2.68 0 1.42-.766 2.65-2.364 2.65-1.605 0-2.37-1.23-2.37-2.65 0-1.443.964-2.68 2.37-2.68zm0 .847c-.927 0-1.428.868-1.428 1.818 0 1.009.493 1.782 1.428 1.782.928 0 1.429-.759 1.429-1.782 0-.957-.508-1.818-1.429-1.818z"/></g></g></svg>