<svg xmlns="http://www.w3.org/2000/svg" width="24" height="24">
	<path fill="#376CCE" fill-rule="evenodd" d="M21.344 9.559c.914 0 1.625.338 2.132 1.015.508.677.686 1.422.534 2.235-.153.812-.635 1.421-1.448 1.828.102.372.153.795.153 1.27 0 1.421-.483 2.716-1.447 3.884-.965 1.168-2.26 2.099-3.885 2.793s-3.411 1.041-5.358 1.041c-1.946 0-3.732-.347-5.357-1.041s-2.92-1.625-3.885-2.793c-.965-1.168-1.447-2.463-1.447-3.885 0-.44.05-.846.152-1.218-.846-.44-1.345-1.067-1.498-1.88-.152-.812.026-1.557.533-2.234.508-.677 1.22-.998 2.133-.965.745 0 1.388.271 1.93.813 1.93-1.354 4.232-2.082 6.906-2.184l1.574-7.007a.625.625 0 0 1 .204-.28.381.381 0 0 1 .355-.076l4.926 1.117c.169-.338.414-.61.736-.812a1.914 1.914 0 0 1 1.041-.305c.576 0 1.058.195 1.447.584.39.39.584.863.584 1.422 0 .558-.194 1.032-.584 1.422-.389.39-.863.584-1.422.584a1.935 1.935 0 0 1-1.421-.584 1.906 1.906 0 0 1-.584-1.397l-4.47-1.015-1.421 6.347c1.354.034 2.624.246 3.809.635 1.184.39 2.234.889 3.148 1.498a2.93 2.93 0 0 1 1.93-.812zM5.55 14.94c0 .542.203 1.008.61 1.397.405.39.88.584 1.421.584.542 0 1.007-.195 1.396-.584.39-.39.584-.863.584-1.422 0-.559-.194-1.033-.584-1.422a1.906 1.906 0 0 0-1.396-.584 1.99 1.99 0 0 0-1.422.584c-.406.39-.61.872-.61 1.447zm10.918 4.723a.342.342 0 0 0 .152-.305.487.487 0 0 0-.152-.355.487.487 0 0 0-.711 0c-.474.474-1.227.795-2.26.965a8.915 8.915 0 0 1-3.072-.026c-1.016-.186-1.76-.499-2.235-.94a.342.342 0 0 0-.304-.151.487.487 0 0 0-.356.152.487.487 0 0 0-.152.355c0 .136.05.237.152.305.61.61 1.507 1.024 2.692 1.244 1.185.22 2.37.22 3.554 0 1.185-.22 2.082-.635 2.692-1.244zm-.051-2.742a1.99 1.99 0 0 0 1.422-.584c.406-.39.61-.863.61-1.422 0-.559-.204-1.033-.61-1.422a1.99 1.99 0 0 0-1.422-.584c-.542 0-1.007.203-1.397.61a1.99 1.99 0 0 0-.584 1.421c0 .542.195 1.008.584 1.397.39.39.855.584 1.397.584z"/>
</svg>
