<svg xmlns="http://www.w3.org/2000/svg" width="252" height="40"><g fill="#FFF" fill-rule="evenodd"><path d="M.767 38.606V30.98c4.231 1.368 7.992 2.052 11.234 2.052 4.503 0 6.755-1.216 6.755-3.648 0-.912-.322-1.672-.99-2.28-.668-.659-2.4-1.57-5.147-2.736-4.948-2.077-8.19-3.876-9.7-5.345C.966 17.1 0 14.642 0 11.678c0-3.825 1.41-6.713 4.256-8.714C7.076.988 10.714 0 15.242 0c2.475 0 6.087.456 10.789 1.393v7.321c-3.49-1.418-6.755-2.153-9.75-2.153-4.23 0-6.334 1.19-6.334 3.572 0 .886.42 1.621 1.287 2.178.717.456 2.672 1.419 5.864 2.888 4.603 2.103 7.67 3.901 9.18 5.446C28.084 22.47 29 24.851 29 27.764c0 4.18-1.782 7.371-5.32 9.575C20.81 39.112 17.073 40 12.496 40c-3.91.025-7.82-.456-11.729-1.393z"/><path d="M35 1L35 1 46 1 46 39 35 39z"/><path d="M57 39L57 1 84.546 1 84.546 7.861 67.352 7.861 67.352 16.445 82.324 16.445 82.324 22.732 67.352 22.732 67.352 31.739 85 31.739 85 39z"/><path d="M91 39.62L91 1 104.711 1 114.224 25.673 123.985 1 137 1 137 39.62 126.99 39.62 126.99 12.284 115.888 40 109.33 40 98.451 12.284 98.451 39.62z"/><path d="M147 39L147 1 174.546 1 174.546 7.861 157.352 7.861 157.352 16.445 172.324 16.445 172.324 22.732 157.352 22.732 157.352 31.739 175 31.739 175 39z"/><path d="M183 39L183 1 195.372 1 208.497 26.45 208.497 1 216 1 216 39 203.979 39 190.503 13.226 190.503 39z"/><path d="M223.744 38.582v-7.62c4.213 1.367 7.956 2.05 11.277 2.05 4.511 0 6.767-1.215 6.767-3.645 0-.911-.322-1.67-.967-2.278-.669-.659-2.404-1.57-5.18-2.735-4.957-2.076-8.204-3.848-9.716-5.341-1.958-1.924-2.925-4.38-2.925-7.367 0-3.798 1.413-6.684 4.263-8.684C230.064.987 233.733 0 238.243 0c2.529 0 5.825.405 9.866 1.24l.941.178v7.316c-3.494-1.418-6.766-2.152-9.79-2.152-4.214 0-6.32 1.19-6.32 3.57 0 .886.42 1.62 1.263 2.177.67.43 2.653 1.393 5.9 2.886 4.56 2.101 7.634 3.899 9.17 5.443 1.81 1.823 2.727 4.203 2.727 7.114 0 4.177-1.76 7.367-5.304 9.57-2.9 1.772-6.643 2.658-11.228 2.658-3.892 0-7.783-.481-11.724-1.418z"/></g></svg>