<svg xmlns="http://www.w3.org/2000/svg" width="24" height="20" viewBox="0 0 24 20">
	<path fill="#376CCE" fill-rule="evenodd" d="M11.6533333,5.32 L11.7053333,6.18533333 L10.8386667,6.07866667 C7.68266667,5.67333333 4.92533333,4.296 2.584,1.984 L1.43866667,0.837333333 L1.14533333,1.684 C0.52,3.572 0.918666667,5.568 2.22,6.90933333 C2.91333333,7.65066667 2.75733333,7.756 1.56133333,7.31466667 C1.144,7.17466667 0.78,7.068 0.745333333,7.12133333 C0.625333333,7.244 1.04,8.85066667 1.36933333,9.48666667 C1.82133333,10.3693333 2.74,11.2333333 3.74533333,11.7466667 L4.596,12.152 L3.58933333,12.1706667 C2.61866667,12.1706667 2.584,12.188 2.688,12.5573333 C3.03466667,13.7066667 4.40533333,14.924 5.93066667,15.4533333 L7.00533333,15.824 L6.06933333,16.3893333 C4.65487288,17.209627 3.05602557,17.6591022 1.42133333,17.696 C0.641333333,17.7133333 -2.22044605e-16,17.784 -2.22044605e-16,17.8373333 C-2.22044605e-16,18.0133333 2.116,19.0026667 3.34666667,19.3906667 C7.04,20.5373333 11.4266667,20.044 14.7226667,18.084 C17.064,16.6893333 19.4053333,13.9173333 20.4973333,11.2346667 C21.0866667,9.804 21.676,7.192 21.676,5.93866667 C21.676,5.12533333 21.7293333,5.02 22.7,4.04933333 C23.272,3.484 23.8093333,2.86666667 23.9133333,2.68933333 C24.0866667,2.35466667 24.0693333,2.35466667 23.1853333,2.65466667 C21.712,3.184 21.5026667,3.11333333 22.232,2.31866667 C22.7693333,1.75466667 23.4106667,0.730666667 23.4106667,0.430666667 C23.4106667,0.377333333 23.1506667,0.465333333 22.856,0.624 C22.544,0.801333333 21.8506667,1.06533333 21.3293333,1.224 L20.3933333,1.524 L19.544,0.942666667 C19.076,0.624 18.416,0.270666667 18.0693333,0.165333333 C17.1853333,-0.0813333333 15.832,-0.0466666667 15.0346667,0.236 C12.8666667,1.03066667 11.4973333,3.07866667 11.6533333,5.32 Z"/>
</svg>
