<svg xmlns="http://www.w3.org/2000/svg" width="108" height="79"><g fill="none" fill-rule="evenodd"><path fill="#CDCCCB" d="M14.609 78h78.253V25.265H14.609z"/><path stroke="#CDCCCB" stroke-linecap="round" stroke-linejoin="round" stroke-width="2" d="M14.609 78h78.253V25.265H14.609z"/><path fill="#CDCCCB" d="M66.494 78h26.368V25.265H66.494z"/><path stroke="#CDCCCB" stroke-linecap="round" stroke-linejoin="round" stroke-width="2" d="M66.494 78h26.368V25.265H66.494z"/><path fill="#CDCCCB" d="M106.472 4H80.103L66.495 25.265h26.367z"/><path stroke="#CDCCCB" stroke-linecap="round" stroke-linejoin="round" stroke-width="2" d="M106.472 4H80.103L66.495 25.265h26.367z"/><path fill="#CDCCCB" d="M1 4l13.609 21.264h26.368L27.368 4z"/><path stroke="#CDCCCB" stroke-linecap="round" stroke-linejoin="round" stroke-width="2" d="M1 4h26.368l13.609 21.265H14.609z"/><path fill="#FFF" d="M14.609 75h78.253V22.265H14.609z"/><path stroke="#00679A" stroke-linecap="round" stroke-linejoin="round" stroke-width="2" d="M14.609 75h78.253V22.265H14.609z"/><path fill="#FFF" d="M66.494 75h26.368V22.265H66.494z"/><path stroke="#00679A" stroke-linecap="round" stroke-linejoin="round" stroke-width="2" d="M66.494 75h26.368V22.265H66.494z"/><path fill="#FFF" d="M106.472 1H80.103L66.495 22.265h26.367z"/><path stroke="#00679A" stroke-linecap="round" stroke-linejoin="round" stroke-width="2" d="M106.472 1H80.103L66.495 22.265h26.367z"/><path fill="#FFF" d="M1 1l13.609 21.265h26.368L27.368 1z"/><path stroke="#00679A" stroke-linecap="round" stroke-linejoin="round" stroke-width="2" d="M1 1h26.368l13.609 21.265H14.609z"/></g></svg>