<svg xmlns="http://www.w3.org/2000/svg" xmlns:xlink="http://www.w3.org/1999/xlink" width="127" height="88"><defs><path id="a" d="M0 88h126.375V.875H0z"/></defs><g fill="none" fill-rule="evenodd"><path fill="#CDCCCB" d="M1 73.125h54.688v-43.75H1z"/><path stroke="#CDCCCB" stroke-linecap="round" stroke-linejoin="round" stroke-width="2" d="M1 73.125h54.688v-43.75H1z"/><path fill="#CDCCCB" d="M41 86.125h54.688v-43.75H41z"/><path stroke="#CDCCCB" stroke-linecap="round" stroke-linejoin="round" stroke-width="2" d="M41 86.125h54.688v-43.75H41z"/><path fill="#FFF" d="M1 70.125h54.688v-43.75H1z"/><path stroke="#00679A" stroke-linecap="round" stroke-linejoin="round" stroke-width="2" d="M1 70.125h54.688v-43.75H1z"/><path fill="#FFF" d="M28.344 61.265V48.578v12.687z"/><path stroke="#0595DB" stroke-linecap="round" stroke-linejoin="round" stroke-width="2" d="M28.344 61.266V48.578"/><g transform="translate(0 -.875)"><path stroke="#00679A" stroke-linecap="round" stroke-linejoin="round" stroke-width="2" d="M9.313 27.25v-6.344c0-10.512 8.518-19.031 19.03-19.031 10.507 0 19.033 8.519 19.033 19.031v6.344"/><path fill="#FFF" d="M31.516 46.281a3.166 3.166 0 0 1-3.172 3.172 3.167 3.167 0 0 1-3.172-3.172 3.17 3.17 0 0 1 3.172-3.172 3.17 3.17 0 0 1 3.172 3.172"/><path stroke="#0595DB" stroke-linecap="round" stroke-linejoin="round" stroke-width="2" d="M31.516 46.281a3.166 3.166 0 0 1-3.172 3.172 3.167 3.167 0 0 1-3.172-3.172 3.17 3.17 0 0 1 3.172-3.172 3.17 3.17 0 0 1 3.172 3.172z"/><mask id="b" fill="#fff"><use xlink:href="#a"/></mask><path fill="#FFF" mask="url(#b)" d="M41 84h54.688V40.25H41z"/><path stroke="#00679A" stroke-linecap="round" stroke-linejoin="round" stroke-width="2" mask="url(#b)" d="M41 84h54.688V40.25H41z"/><g mask="url(#b)"><path fill="#FFF" d="M68.344 75.14V62.454"/><path stroke="#0595DB" stroke-linecap="round" stroke-linejoin="round" stroke-width="2" d="M68.344 75.14V62.454"/></g><path stroke="#00679A" stroke-linecap="round" stroke-linejoin="round" stroke-width="2" d="M87.313 40.25v-6.344c0-10.512 8.519-19.031 19.03-19.031 10.507 0 19.032 8.519 19.032 19.031V48" mask="url(#b)"/><path fill="#FFF" d="M71.516 59.281a3.167 3.167 0 0 1-3.172 3.172 3.167 3.167 0 0 1-3.172-3.172 3.17 3.17 0 0 1 3.172-3.172 3.17 3.17 0 0 1 3.172 3.172" mask="url(#b)"/><path stroke="#0595DB" stroke-linecap="round" stroke-linejoin="round" stroke-width="2" d="M71.516 59.281a3.167 3.167 0 0 1-3.172 3.172 3.167 3.167 0 0 1-3.172-3.172 3.17 3.17 0 0 1 3.172-3.172 3.17 3.17 0 0 1 3.172 3.172z" mask="url(#b)"/></g></g></svg>