<svg xmlns="http://www.w3.org/2000/svg" width="76" height="86"><g fill="none" fill-rule="evenodd"><path fill="#CDCCCB" d="M3.627 7.188l23.027-2.264a115.395 115.395 0 0 1 22.547 0l23.028 2.264a2.627 2.627 0 0 1 2.626 2.627v21.97c0 21.801-13.532 41.854-35.283 52.483a3.76 3.76 0 0 1-3.29 0C14.533 73.64 1 53.586 1 31.784V9.815a2.627 2.627 0 0 1 2.627-2.627"/><path stroke="#CDCCCB" stroke-linecap="round" stroke-linejoin="round" stroke-width="2" d="M3.627 7.188l23.027-2.264a115.395 115.395 0 0 1 22.547 0l23.028 2.264a2.627 2.627 0 0 1 2.626 2.627v21.97c0 21.801-13.532 41.854-35.283 52.483a3.76 3.76 0 0 1-3.29 0C14.533 73.64 1 53.586 1 31.784V9.815a2.627 2.627 0 0 1 2.627-2.627z"/><path fill="#CDCCCB" d="M1 20.677l33.46-2.037a56.902 56.902 0 0 1 6.935 0l33.459 2.037"/><path stroke="#CDCCCB" stroke-linecap="round" stroke-linejoin="round" stroke-width="2" d="M1 20.677l33.46-2.037a56.902 56.902 0 0 1 6.935 0l33.459 2.037"/><path fill="#FFF" d="M3.627 3.816l23.027-2.264a115.395 115.395 0 0 1 22.547 0l23.028 2.264a2.627 2.627 0 0 1 2.626 2.627v21.97c0 21.801-13.532 41.855-35.283 52.483a3.76 3.76 0 0 1-3.29 0C14.533 70.268 1 50.214 1 28.412V6.443a2.627 2.627 0 0 1 2.627-2.627"/><path stroke="#00679A" stroke-linecap="round" stroke-linejoin="round" stroke-width="2" d="M3.627 3.816l23.027-2.264a115.395 115.395 0 0 1 22.547 0l23.028 2.264a2.627 2.627 0 0 1 2.626 2.627v21.97c0 21.801-13.532 41.855-35.283 52.483a3.76 3.76 0 0 1-3.29 0C14.533 70.268 1 50.214 1 28.412V6.443a2.627 2.627 0 0 1 2.627-2.627z"/><path fill="#FFF" d="M1 17.305l33.46-2.037a56.902 56.902 0 0 1 6.935 0l33.459 2.037"/><path stroke="#00679A" stroke-linecap="round" stroke-linejoin="round" stroke-width="2" d="M1 17.305l33.46-2.037a56.902 56.902 0 0 1 6.935 0l33.459 2.037"/></g></svg>