<?xml version="1.0" encoding="UTF-8"?>
<svg width="81px" height="68px" viewBox="0 0 81 68" version="1.1" xmlns="http://www.w3.org/2000/svg" xmlns:xlink="http://www.w3.org/1999/xlink">
    <title>Group 14</title>
    <defs>
        <polygon id="path-1" points="0.000105426357 0.243859219 67.7555163 0.243859219 67.7555163 67.7678571 0.000105426357 67.7678571"></polygon>
        <polygon id="path-3" points="0 68 81 68 81 1 0 1"></polygon>
    </defs>
    <g id="Page-1" stroke="none" stroke-width="1" fill="none" fill-rule="evenodd">
        <g id="Live-V1-Open-Copy" transform="translate(-235.000000, -2580.000000)">
            <g id="Group-14" transform="translate(235.000000, 2580.000000)">
                <g id="Group-3">
                    <mask id="mask-2" fill="white">
                        <use xlink:href="#path-1"></use>
                    </mask>
                    <g id="Clip-2"></g>
                    <path d="M53.0132217,0.243859219 L14.7418729,0.243859219 C6.60032248,0.243859219 0.000105426357,6.82154402 0.000105426357,14.9353002 L0.000105426357,53.0759958 C0.000105426357,61.1902774 6.60032248,67.7679622 14.7418729,67.7679622 L53.0132217,67.7679622 C61.1552992,67.7679622 67.7555163,61.1902774 67.7555163,53.0759958 L67.7555163,14.9353002 C67.7555163,6.82154402 61.1552992,0.243859219 53.0132217,0.243859219" id="Fill-1" fill="#232323" mask="url(#mask-2)"></path>
                </g>
                <path d="M77.6954609,57.5462283 L63.757917,46.3006833 C63.278677,45.9137819 63,45.3305188 63,44.713382 L63,21.8930818 C63,21.3235799 63.2380366,20.7794833 63.6560521,20.3936405 L77.5941239,7.54174027 C78.8956721,6.34081112 81,7.26704559 81,9.04065229 L81,55.9589271 C81,57.6700791 79.0244546,58.6185432 77.6954609,57.5462283" id="Fill-4" fill="#232323"></path>
                <polygon id="Fill-6" fill="#FFFFFF" points="17 49.917069 17 52 12 52 12 43 13.9712271 43 13.9712271 49.917069"></polygon>
                <mask id="mask-4" fill="white">
                    <use xlink:href="#path-3"></use>
                </mask>
                <g id="Clip-9"></g>
                <polygon id="Fill-8" fill="#FFFFFF" mask="url(#mask-4)" points="25 52 27 52 27 43 25 43"></polygon>
                <polygon id="Fill-10" fill="#FFFFFF" mask="url(#mask-4)" points="36.9869645 52 34 43 36.4851897 43 38.4933905 49.7757135 38.5066095 49.7757135 40.5153611 43 43 43 40.0130355 52"></polygon>
                <polygon id="Fill-11" fill="#FFFFFF" mask="url(#mask-4)" points="54.1455237 45.0955815 54.1455237 46.5613885 58 46.5613885 58 48.4897635 54.1455237 48.4897635 54.1455237 49.917069 58 49.917069 58 52 52 52 52 43 58 43 58 45.0955815"></polygon>
                <path d="M60,16.5002621 C60,12.3583185 56.6422057,9 52.4997379,9 C48.3583185,9 45,12.3583185 45,16.5002621 C45,20.6422057 48.3583185,24 52.4997379,24 C56.6422057,24 60,20.6422057 60,16.5002621" id="Fill-12" fill="#FF3838" mask="url(#mask-4)"></path>
                <path d="M57,17 L50.7243511,17 L48.3594343,21.7329001 L45.9945175,17 L39.7188686,17 L45.0799316,27.5 L40.2236457,36.997093 L40.2236457,27.4374145 L40.2236457,24.2091313 L40.2236457,22.6419289 L40.2236457,21.7329001 C40.2236457,21.0434337 39.9397731,20.1031122 39.6244165,19.5701094 C39.3090598,19.0376197 38.899251,18.5672025 38.3944739,18.1911765 C37.890213,17.8151505 37.2904676,17.5330027 36.6282703,17.3134405 C35.935105,17.125684 35.2409075,17 34.484258,17 C33.1913473,17 32.055857,17.2195622 31.1412711,17.626881 C30.2266852,18.0347127 29.4070676,18.6923735 28.6504181,19.5701094 C28.145641,18.755472 27.4519596,18.128591 26.6003418,17.6894665 C25.7492401,17.2195622 24.7402021,17 23.6361958,17 C22.4377373,17 21.4286992,17.1882695 20.5775976,17.5330027 C19.7259798,17.9090287 18.9688142,18.5359097 18.370101,19.4449384 L18.2751328,19.4449384 L18.2751328,17 L12,17 L12,38 L18.2751328,38 L18.2751328,24.0208618 L18.2751328,23.8956908 L18.2751328,22.8927839 C18.2751328,21.6385089 19.347655,20.6356019 20.6405657,20.6356019 C21.9334763,20.6356019 22.9739984,21.6385089 23.0054825,22.8927839 L23.0054825,23.9269836 L23.0054825,24.0208618 L23.0054825,38 L29.123195,38 L29.2491312,38 L29.2491312,27.4374145 L29.2491312,24.2091313 L29.2491312,23.9582763 L29.2491312,23.0805404 L29.2491312,22.9240766 C29.2491312,21.6703146 30.3216535,20.6668947 31.6145641,20.6668947 C32.9074747,20.6668947 33.9479968,21.6703146 33.9794809,22.9240766 L33.9794809,23.9582763 L33.9794809,38 L39.7188686,38 L45.9945175,38 L48.3594343,33.2670999 L50.7243511,38 L57,38 L51.638937,27.5 L57,17 Z" id="Fill-13" fill="#FFFFFF" mask="url(#mask-4)"></path>
            </g>
        </g>
    </g>
</svg>