<svg height="614" viewBox="0 0 200 614" width="200" xmlns="http://www.w3.org/2000/svg" xmlns:xlink="http://www.w3.org/1999/xlink"><linearGradient id="a" x1="50%" x2="50%" y1="100%" y2="0%"><stop offset="0" stop-color="#ffd610"/><stop offset="1" stop-color="#f00"/></linearGradient><g fill="none" fill-rule="evenodd" transform="translate(.083507 .39666)"><g transform="matrix(-1 0 0 -1 138.803758 598)"><path d="m-35.3742171 550.839314h3.296875v5.601562c-1.0156301.390627-2.1093692.585938-3.28125.585938-1.3645902 0-2.4309858-.519526-3.1992188-1.558594s-1.1523437-2.48046-1.1523437-4.324219c0-1.828134.4218708-3.261713 1.265625-4.300781s2.0052009-1.558594 3.484375-1.558594c1.000005 0 1.9010376.223956 2.703125.671875l-.5625 1.265625c-.7604205-.4375-1.4895799-.65625-2.1875-.65625-1.000005 0-1.7786431.404944-2.3359375 1.214844-.5572945.8099-.8359375 1.936191-.8359375 3.378906 0 3.062515 1.0260314 4.59375 3.078125 4.59375.5052108 0 1.0312472-.07552 1.578125-.226562v-3.40625h-1.8515625zm9.1171875 6.1875c-1.1250056 0-2.0507776-.404944-2.7773438-1.214844-.7265661-.8099-1.0898437-1.89192-1.0898437-3.246094 0-1.369798.352861-2.450517 1.0585937-3.242187.7057327-.791671 1.6575461-1.1875 2.8554688-1.1875 1.1354223 0 2.0651005.403641 2.7890625 1.210937.7239619.807296 1.0859375 1.880202 1.0859375 3.21875 0 1.380215-.3567673 2.468746-1.0703125 3.265625-.7135453.796879-1.6640566 1.195313-2.8515625 1.195313zm.03125-1.179688c1.6145914 0 2.421875-1.093739 2.421875-3.28125 0-2.166677-.8124919-3.25-2.4375-3.25-1.6093831 0-2.4140625 1.083323-2.4140625 3.25 0 2.187511.8098877 3.28125 2.4296875 3.28125zm22.03906248 1.023438v-5.523438c0-.76042-.06900973-1.289061-.20703125-1.585937-.13802152-.296877-.36848797-.445313-.69140625-.445313-.45312726 0-.78255105.216144-.98828125.648438-.20573019.432294-.30859375 1.156245-.30859375 2.171875v4.734375h-1.2578125v-5.523438c0-1.354173-.32551758-2.03125-.9765625-2.03125-.43750219 0-.74999906.207029-.9375.621094-.18750094.414064-.28125 1.243483-.28125 2.488281v4.445313h-1.26562498v-8.578125h.9921875l.21093748 1.15625h.078125c.34896008-.875005.87239234-1.3125 1.5703125-1.3125.84896258 0 1.40364453.473953 1.6640625 1.421875h.046875c.39583531-.947922.96614211-1.421875 1.7109375-1.421875.66667 0 1.15104016.240883 1.453125.722656s.453125 1.285151.453125 2.410156v5.601563zm8.9609375 0-.2890625-1.1875h-.0625c-.40104367.505211-.81249789.855467-1.234375 1.050781-.42187711.195313-.9661425.292969-1.6328125.292969-.84896258 0-1.51432051-.223956-1.99609375-.671875s-.72265625-1.075517-.72265625-1.882813c0-1.669548 1.23809701-2.571938 3.7143269-2.707194l1.8559856-.066243v-.539063c0-1.229173-.63541031-1.84375-1.90625-1.84375-.76562883 0-1.61978695.21354-2.5625.640625l-.4921875-1.070312c1.02083844-.500003 2.0182243-.75 2.9921875-.75 1.18229758 0 2.03775777.22656 2.56640625.679687s.79296875 1.179683.79296875 2.179688v5.875zm-.3828125-4.195313-1.265625.054688c-1.02083844.041667-1.74478953.201821-2.171875.480468-.42708547.278648-.640625.704425-.640625 1.277344 0 .927088.52082813 1.390625 1.5625 1.390625.76562883 0 1.37629981-.212237 1.83203125-.636719.45573145-.424481.68359375-1.022131.68359375-1.792968zm5.98437502-.125 1.0546875-1.1875 3.0859375-3.070312h1.734375l-3.859375 3.710937 4.078125 4.867188h-1.6640625l-3.328125-3.9375-1.0078125.640625v3.296875h-1.40625002v-12.15625h1.40625002v5.578125l-.125 2.257812zm15.171875.304688h-6.046875c.0416669 1.953134.9374912 2.929687 2.6875 2.929687 1.0156301 0 1.9791621-.197915 2.890625-.59375v1.25c-.8645877.390627-1.8124949.585938-2.84375.585938-1.2760481 0-2.2968712-.389319-3.0625-1.167969s-1.1484375-1.850254-1.1484375-3.214844c0-1.385423.352861-2.483069 1.0585937-3.292969.7057327-.809899 1.6497337-1.214843 2.8320313-1.214843 1.1041722 0 1.9856738.348955 2.6445312 1.046875.6588575.69792.9882813 1.627598.9882813 2.789062zm-6.015625-1.15625h4.4765625c0-1.58855-.7083263-2.382813-2.125-2.382813-1.4322988 0-2.2161452.794263-2.3515625 2.382813zm21.6015625-6.9375c.5520861 0 .828125.296872.828125.890625 0 .302085-.0820304.527343-.2460938.675781-.1640633.148438-.3580718.222656-.5820312.222656-.5572945 0-.8359375-.299476-.8359375-.898437 0-.593753.278643-.890625.8359375-.890625zm-.71875 4.65625-2.1015625-.164063v-.960937h3.5234375v7.460937l2.75.15625v.960938h-6.859375v-.960938l2.6875-.15625zm13.34375 6.28125v1.078125c-.6770867.166667-1.3333302.25-1.96875.25-1.8854261 0-2.828125-.895825-2.828125-2.6875v-4.976563h-2.0859375v-.734375l2.0859375-.382812.6015625-2.242188h.8203125v2.289063h3.421875v1.070312h-3.421875v4.976563c0 1.01563.499995 1.523437 1.5 1.523437.4843774 0 1.1093712-.054687 1.875-.164062z" fill="#000" fill-rule="nonzero" transform="matrix(0 -1 1 0 -543.822906 557.918222)"/><path d="m9.15866388 479.874739v-479.49895612" stroke="#000" stroke-linecap="square" stroke-width=".751566"/></g><g transform="translate(0 346.977035)"><g fill="url(#a)"><path d="m125.762004 192.400835h7.265136v-7.479869h-7.265136v-3.739934h-7.265136v-3.739934-7.479869-7.479869-7.479869-7.479869-7.479868-7.479869-7.479869-7.479869-7.479868-7.479869-7.479869-7.4798688-7.4798687-7.4798688-7.4798688-7.4798688-7.4798687-7.4798688-7.4798688h-7.265135v7.4798688 7.4798688 7.4798687 7.4798688 7.4798688 7.4798688 7.4798687 7.4798688 7.479869 7.479869 7.479868 7.479869 7.479869 7.479869 7.479868 7.479869 7.479869 7.479869 7.479869 7.479868h7.265135v3.739935h7.265136z"/><path d="m147.306889 182.749148v-8.90012h-7.265135v-4.450061h-7.265136v-4.45006-8.900121-8.900121-8.900121-8.900121-8.900121-8.90012-8.900121-8.9001212-8.9001209-8.9001208-8.9001209-8.9001209-8.9001208-8.9001209-8.9001209-8.9001208h-7.265136v8.9001208 8.9001209 8.9001209 8.9001208 8.9001209 8.9001209 8.9001208 8.9001209 8.9001212 8.900121 8.90012 8.900121 8.900121 8.900121 8.900121 8.900121 8.900121h7.265136v4.45006h7.265136v4.45006 8.900121h7.265135z"/><path d="m161.586639 191.649269v-5.638309-5.635177-5.636743-5.636744-5.636743-5.636743h-4.490258-2.774878v-5.636743h-7.265136v-5.636743-11.273487-11.273486-11.273487-11.273486-11.2734866-11.2734864-11.2734864-11.2734864-11.2734865-11.2734864-11.2734864-11.2734865-11.2734864h-7.265135v11.2734864 11.2734865 11.2734864 11.2734864 11.2734865 11.2734864 11.2734864 11.2734864 11.2734866 11.273486 11.273487 11.273486 11.273487 11.273486h7.265135v5.636743h7.265136v5.636743 11.273487 11.273486h2.774878z"/><g transform="matrix(0 1 1 0 0 87.181628)"><path d="m12.526096 296.11691h6.2630481v-11.524008h-6.2630481v-5.762004h-6.26304798v-5.762004-11.524009-11.524008-11.524009-11.524008-11.524008-11.524009-11.524008-11.524008-11.524009-11.524008-11.524008-11.524009-11.524008-11.524008-11.524009-11.5240081-11.5240083-11.5240084-11.5240083h-6.26304802v11.5240083 11.5240084 11.5240083 11.5240081 11.524009 11.524008 11.524008 11.524009 11.524008 11.524008 11.524009 11.524008 11.524008 11.524009 11.524008 11.524008 11.524009 11.524008 11.524009 11.524008h6.26304802v5.762004h6.26304798z"/><path d="m31.565762 281.63938v-13.725964h-6.263048v-6.862982h-6.263048v-6.862982-13.725964-13.725964-13.725965-13.725964-13.725964-13.725964-13.725964-13.725965-13.725964-13.725964-13.725964-13.7259642-13.7259642-13.7259642-13.7259642-13.7259641h-6.263048v13.7259641 13.7259642 13.7259642 13.7259642 13.7259642 13.725964 13.725964 13.725964 13.725965 13.725964 13.725964 13.725964 13.725964 13.725965 13.725964 13.725964 13.725964h6.263048v6.862982h6.263048v6.862982 13.725964h6.263048z"/><path d="m45.0939457 294.613779v-8.667518-8.662705-8.665111-8.665111-8.665111-8.665111h-3.8709116-2.3921364v-8.665111h-6.263048v-8.665111-17.330223-17.330222-17.330222-17.330223-17.330222-17.330222-17.330222-17.3302226-17.3302223-17.3302223-17.3302222-17.3302223-17.3302223h-6.263048v17.3302223 17.3302223 17.3302222 17.3302223 17.3302223 17.3302226 17.330222 17.330222 17.330222 17.330223 17.330222 17.330222 17.330223 17.330222h6.263048v8.665111h6.263048v8.665111 17.330222 17.330223h2.3921364z"/></g><path d="m233.736952 170.427426v24.524777 24.524778 24.524777 24.524778 24.524777 24.524778 24.524777h8.267223v12.262389h8.267224v-24.524778h-8.267224v-12.262388-24.524778-24.524777-24.524778-24.524777-24.524778-24.524777-24.524778-24.524777h-8.267223v24.524777z" transform="matrix(0 1 -1 0 479.874739 -4.133611)"/><path d="m252.150313 323.830898v-24.519833-24.519833-24.519833-24.519833-24.519833-24.519833-24.519833h-8.267223v24.519833 24.519833 24.519833 24.519833 24.519833 24.519833 24.519833 24.519833h8.267223z" transform="matrix(0 1 -1 0 498.2881 2.254698)"/><path d="m252.150313 302.087683v-24.467641-24.467641-24.467641-24.467641-24.467641-24.467641-24.467641-24.467641h-8.267223v24.467641 24.467641 24.467641 24.467641 24.467641 24.467641 24.467641 24.467641 24.467641h8.267223z" transform="matrix(0 1 -1 0 464.46764 -31.565762)"/><path d="m190.521921 224.906054v-24.237996-24.237995-24.237996h-8.267224v24.237996 24.237995 24.237996 24.237996h8.267224z" transform="matrix(0 1 -1 0 387.056367 14.279749)"/></g><g transform="translate(39.832985 169.853862)"><path d="m130.750895 64.6404425c-.002911-13.8959651-10.067057-25.2435159-22.65804-25.547449-1.286204-.0286846-2.378873-1.0463253-2.620466-2.4405327-3.176633-18.5293104-16.4834766-32.91025844-33.3389982-36.03006108s-33.6870059 5.68281687-42.1696405 22.05410368c-.4544601.8689621-1.2719078 1.4304294-2.1791815 1.49678-15.6616611 1.2424811-27.79069739 15.6278283-27.78456648 32.9532035 0 28.8535894 26.61870438 32.9952817 27.23977108 33.0614045h79.0661526c6.74069-.0569003 13.236466-2.7953338 18.294229-7.712324 4.192072-4.7544312 6.417855-11.2084718 6.15074-17.8351249zm-34.7034657-.1322456-4.2112682 7.7363686c-.9839698 1.8828643-2.8124626 3.0330154-4.7821476 3.0080473-1.9696851-.0249681-3.7737474-1.2211663-4.7182534-3.1284763-.9445061-1.90731-.8823315-4.2286328.1626082-6.0710704l4.2058203-7.7303575c1.0014055-1.8415518 2.8171482-2.9537422 4.7632554-2.9176197 1.9461072.0361224 3.7269188 1.2150699 4.6716204 3.0927442s.9097705 4.168812-.0916351 6.0103638zm-37.928654 1.3044227 10.8959075-18.0334934c1.0802334-1.7867884 2.9423374-2.8019736 4.8848756-2.663145 1.9425382.1388285 3.6703927 1.4105793 4.5326975 3.3361962s.7280553 4.2125529-.3521781 5.9993413l-10.8959075 18.0334934c-1.669896 2.7621356-5.0529721 3.5076229-7.5563118 1.6650926-2.5033397-1.8425304-3.1789793-5.5753496-1.5090832-8.3374851z" fill="#fff" stroke="#fff" stroke-width="11.904801"/><path d="m122.387015 60.1059068c-.002724-12.9211613-9.423087-23.4726799-21.208649-23.755292-1.2039281-.0266724-2.2267005-.9729255-2.4528394-2.2693291-2.9734298-17.2294768-15.4290611-30.60159934-31.2063679-33.5025474-15.7773068-2.90094807-31.532114 5.2841665-39.472131 20.5070054-.4253891.8080042-1.1905463 1.3300845-2.0397835 1.3917806-14.6598152 1.1553209-26.01298076 14.5315341-26.00724203 30.6415319 0 26.8295062 24.91595783 30.6806582 25.49729613 30.7421425h74.0084455c6.3095002-.0529087 12.3897542-2.5992408 17.1239822-7.1713034 3.923914-4.4209072 6.007318-10.4221961 5.757289-16.5839885zm-32.4835521-.1229686-3.9418817 7.1936614c-.9210271 1.750781-2.6325548 2.8202489-4.4762429 2.7970323-1.8436882-.0232166-3.5323481-1.1355013-4.416436-2.9090133-.8840878-1.7735119-.8258904-3.9319936.1522066-5.6451839l3.9367821-7.1880719c.9373476-1.7123667 2.6369407-2.7465368 4.4585592-2.7129483 1.8216186.0335884 3.4885152 1.1298325 4.3727861 2.8757877s.8515742 3.8763693-.0857734 5.588736zm-35.5024321 1.2129173 10.1989175-16.7684414c1.011133-1.661445 2.7541219-2.6054148 4.5723997-2.4763251s3.4356048 1.311627 4.2427497 3.1021617c.8071449 1.7905346.681483 3.9170417-.3296499 5.5784867l-10.1989176 16.7684414c-1.5630761 2.5683713-4.7297434 3.2615626-7.0729494 1.5482861-2.3432059-1.7132766-2.9756261-5.1842381-1.41255-7.7526094z" fill="url(#a)" transform="translate(5.26096 3.757829)"/></g></g></g></svg>