<svg height="861" viewBox="0 0 383 861" width="383" xmlns="http://www.w3.org/2000/svg" xmlns:xlink="http://www.w3.org/1999/xlink"><linearGradient id="a" x1="50%" x2="50%" y1="0%" y2="100%"><stop offset="0" stop-color="#25ff25"/><stop offset="1" stop-color="#3610ff"/></linearGradient><g fill="none" fill-rule="evenodd"><g transform="translate(160 262.897704)"><path d="m-31.230167 550.989627h3.296875v5.601562c-1.0156301.390627-2.1093692.585938-3.28125.585938-1.3645902 0-2.4309858-.519526-3.1992188-1.558594s-1.1523437-2.480459-1.1523437-4.324219c0-1.828134.4218708-3.261713 1.265625-4.300781s2.0052009-1.558594 3.484375-1.558594c1.000005 0 1.9010376.223956 2.703125.671875l-.5625 1.265625c-.7604205-.4375-1.4895799-.65625-2.1875-.65625-1.000005 0-1.7786431.404944-2.3359375 1.214844-.5572945.8099-.8359375 1.936191-.8359375 3.378906 0 3.062516 1.0260314 4.59375 3.078125 4.59375.5052108 0 1.0312473-.07552 1.578125-.226562v-3.40625h-1.8515625zm9.1171875 6.1875c-1.1250056 0-2.0507776-.404944-2.7773438-1.214844-.7265661-.8099-1.0898437-1.89192-1.0898437-3.246094 0-1.369798.352861-2.450517 1.0585937-3.242187.7057327-.791671 1.6575461-1.1875 2.8554688-1.1875 1.1354223 0 2.0651005.403642 2.7890625 1.210937.7239619.807296 1.0859375 1.880202 1.0859375 3.21875 0 1.380216-.3567673 2.468746-1.0703125 3.265625s-1.6640566 1.195313-2.8515625 1.195313zm.03125-1.179688c1.6145914 0 2.421875-1.093739 2.421875-3.28125 0-2.166677-.8124919-3.25-2.4375-3.25-1.6093831 0-2.4140625 1.083323-2.4140625 3.25 0 2.187511.8098877 3.28125 2.4296875 3.28125zm22.03906249 1.023438v-5.523438c0-.76042-.06900973-1.289061-.20703126-1.585937-.13802152-.296877-.36848796-.445313-.69140625-.445313-.45312726 0-.78255105.216144-.98828124.648438-.2057302.432294-.30859375 1.156245-.30859375 2.171875v4.734375h-1.2578125v-5.523438c0-1.354173-.32551758-2.03125-.9765625-2.03125-.43750219 0-.74999907.20703-.9375.621094-.18750094.414065-.28125 1.243483-.28125 2.488281v4.445313h-1.265625v-8.578125h.9921875l.2109375 1.15625h.078125c.34896007-.875005.87239234-1.3125 1.5703125-1.3125.84896257 0 1.40364453.473953 1.6640625 1.421875h.046875c.39583531-.947922.9661421-1.421875 1.71093749-1.421875.66667001 0 1.15104016.240883 1.45312501.722656.30208484.481773.453125 1.285151.453125 2.410156v5.601563zm8.9609375 0-.2890625-1.1875h-.0625c-.40104368.505211-.8124979.855468-1.234375 1.050781-.42187711.195314-.9661425.292969-1.6328125.292969-.84896258 0-1.51432051-.223956-1.99609375-.671875-.48177325-.447919-.72265625-1.075517-.72265625-1.882813 0-1.729175 1.32811171-2.635416 3.984375-2.71875l1.5859375-.054687v-.539063c0-1.229172-.63541032-1.84375-1.90625-1.84375-.76562883 0-1.61978696.21354-2.5625.640625l-.4921875-1.070312c1.02083843-.500003 2.01822429-.75 2.9921875-.75 1.18229757 0 2.03775777.22656 2.56640625.679687.52864847.453128.79296875 1.179683.79296875 2.179688v5.875zm-.3828125-4.195313-1.265625.054688c-1.02083844.041667-1.74478954.201821-2.171875.480469-.42708547.278647-.640625.704424-.640625 1.277343 0 .927088.52082812 1.390625 1.5625 1.390625.76562882 0 1.3762998-.212237 1.83203125-.636718.45573144-.424482.68359375-1.022132.68359375-1.792969zm5.98437501-.125 1.0546875-1.1875 3.0859375-3.070312h1.734375l-3.859375 3.710937 4.078125 4.867188h-1.6640625l-3.328125-3.9375-1.0078125.640625v3.296875h-1.40625v-12.15625h1.40625v5.578125l-.125 2.257812zm15.171875.304688h-6.046875c.0416669 1.953135.9374912 2.929687 2.6875 2.929687 1.0156301 0 1.9791621-.197914 2.890625-.59375v1.25c-.8645877.390627-1.8124949.585938-2.84375.585938-1.2760481 0-2.2968712-.389319-3.0625-1.167969s-1.1484375-1.850254-1.1484375-3.214844c0-1.385423.352861-2.483069 1.0585937-3.292968.7057327-.8099 1.6497337-1.214844 2.8320313-1.214844 1.1041722 0 1.9856738.348955 2.6445312 1.046875.6588575.69792.9882813 1.627598.9882813 2.789062zm-6.015625-1.15625h4.4765625c0-1.58855-.7083263-2.382813-2.125-2.382813-1.4322988 0-2.2161452.794263-2.3515625 2.382813zm21.6015625-6.9375c.5520861 0 .828125.296872.828125.890625 0 .302085-.0820304.527343-.2460938.675781-.1640633.148438-.3580718.222656-.5820312.222656-.5572945 0-.8359375-.299476-.8359375-.898437 0-.593753.278643-.890625.8359375-.890625zm-.71875 4.65625-2.1015625-.164063v-.960937h3.5234375v7.460937l2.75.15625v.960938h-6.859375v-.960938l2.6875-.15625zm13.34375 6.28125v1.078125c-.6770867.166667-1.3333302.25-1.96875.25-1.8854261 0-2.828125-.895825-2.828125-2.6875v-4.976563h-2.0859375v-.734375l2.0859375-.382812.6015625-2.242188h.8203125v2.289063h3.421875v1.070312h-3.421875v4.976563c0 1.01563.499995 1.523437 1.5 1.523437.4843774 0 1.1093712-.054687 1.875-.164062z" fill="#000" fill-rule="nonzero" transform="matrix(0 -1 1 0 -539.829169 562.212585)"/><path d="m15.302714 480.025052v-479.49895597" stroke="#000" stroke-linecap="square" stroke-width=".751566"/></g><g fill="url(#a)"><path d="m202.922756-135.691023v11.931107 11.931106 11.9311065 11.9311064 11.9311065 11.9311065 11.9311064 11.9311065 11.9311065 11.9311065 11.93110643 11.93110647 5.9655532h-7.515658v-5.9655532-11.93110647-11.93110643-11.9311065-11.9311065-11.9311065-11.9311064-11.9311065-11.9311065-11.9311064-11.9311065-11.931106-11.931107-11.931106-11.931107-11.931106h-7.515657v11.931106 11.931107 11.931106 11.931107 11.931106 11.9311065 11.9311064 11.9311065 11.9311065 11.9311064 11.9311065 11.9311065 11.9311065 11.93110643 11.93110647 11.9311065 11.9311064 11.9311065 11.9311065 11.9311065 11.9311064 5.9655533h-7.515658v-5.9655533-11.9311064-11.9311065-11.9311065-11.9311065-11.9311064-11.9311065-11.93110647-11.93110643-11.9311065-11.9311065-11.9311065-11.9311064-11.9311065-11.9311065-11.9311064-11.9311065-11.931106-11.931107-11.931106-11.931107-11.931106h-7.515658v11.931106 11.931107 11.931106 11.931107 11.931106 11.9311065 11.9311064 11.9311065 11.9311065 11.9311064 11.9311065 11.9311065 11.9311065 11.93110643 11.93110647 11.9311065 11.9311064 11.9311065 11.9311065 11.9311065 11.9311064 11.9311065 11.931106 11.931107 11.931106 11.931107 11.931106 11.931107 8.857189 3.073917 11.931107h7.515658v-5.965553h.536534 6.979124v5.965553 1.869206 4.096347 11.931106h7.515657v5.965554h7.515658v-5.118776-.846778h.968685 6.546972v-11.931106h-6.546972-.968685v-5.965553h-7.515658v-5.965553h7.515658v5.965553h.968685 6.546972v-11.931107-11.931106-11.931107-11.931106-11.931107-11.931106-11.931107-11.931106-11.9311065-11.9311064-11.9311065-11.9311065-11.9311065-11.9311064-11.9311065-11.93110647-11.93110643-11.9311065-11.9311065-11.9311065-11.9311064-11.9311065-11.9311065-11.9311064-11.9311065-11.931106-11.931107z" transform="matrix(0 -1 -1 0 211.06263 471.960334)"/><path d="m163.841336-90.395765v11.9445273 11.9445273 11.9445273 11.9445273 11.9445273 11.9445272 11.94452734 11.94452729 11.94452727 11.9445273 11.9445273 11.9445273 11.9445273 11.9445273 11.9445272 11.9445277 11.944527 11.944527 11.944528 11.944527 11.944527 11.944527 11.944528 11.944527 10.915971 1.028556 11.944528 11.944527h8.267223v-11.944527-4.527308-7.41722-11.944527-11.944527-11.944528-11.944527-11.944527-11.944527-11.944528-11.944527-11.944527-11.9445277-11.9445272-11.9445273-11.9445273-11.9445273-11.9445273-11.9445273-11.94452727-11.94452729-11.94452734-11.9445272-11.9445273-11.9445273-11.9445273-11.9445273-11.9445273-11.944527h-8.267223z" transform="matrix(0 -1 -1 0 232.858038 493.755742)"/><path d="m169.853862-111.43683v11.9473044 11.947304 11.947304 11.947304 11.947304 11.9473041 11.947304 11.947304 11.94730399 11.94730401 11.947304 11.947304 11.947304 11.947304 11.947304 11.9473041 11.947304 11.9473044 11.947304 11.947304 11.947304 11.947304 11.947304 11.947304 11.947304 11.947304 3.919379 8.027925 11.947304h6.764092v-11.52583-.421474-11.947304-11.947304-11.947304-11.947304-11.947304-11.947304-11.947304-11.947304-11.947304-11.9473044-11.947304-11.9473041-11.947304-11.947304-11.947304-11.947304-11.947304-11.94730401-11.94730399-11.947304-11.947304-11.9473041-11.947304-11.947304-11.947304-11.947304-11.9473044-11.947304h-6.764092z" transform="matrix(0 -1 -1 0 223.087683 483.985387)"/><path d="m54.8643006 39.0814196v11.9780794 11.9780793 11.9780793 11.9780794 11.9780793 11.9780797 11.978079 11.978079 11.97808 11.978079 11.978079 11.97808 11.978079 11.978079 11.97808 5.989039h-6.7640918v-5.989039-11.97808-11.978079-11.978079-11.97808-11.978079-11.978079-11.97808-11.978079-11.978079-11.9780797-11.9780793-11.9780794-11.9780793-11.9780793-11.9780794h-6.7640919v11.9780794 11.9780793 11.9780793 11.9780794 11.9780793 11.9780797 11.978079 11.978079 11.97808 11.978079 11.978079 11.97808 11.978079 11.978079 11.97808 11.978079 11.978079 11.97808 11.978079 11.978079 11.97808 5.989039h-6.7640918v-5.989039-11.97808-11.978079-11.978079-11.97808-11.978079-11.978079-11.97808-11.978079-11.978079-11.97808-11.978079-11.978079-11.97808-11.978079-11.978079-11.9780797-11.9780793-11.9780794-11.9780793-11.9780793-11.9780794h-6.7640919v11.9780794 11.9780793 11.9780793 11.9780794 11.9780793 11.9780797 11.978079 11.978079 11.97808 11.978079 11.978079 11.97808 11.978079 11.978079 11.97808 11.978079 11.978079 11.97808 11.978079 11.978079 11.97808 11.978079 11.978079 11.97808 11.978079 11.978079 11.97808 11.978079 8.89206 3.086019 11.97808h6.7640919v-5.98904h.482881 6.2812108v5.98904 1.876565 4.112474 11.97808h6.7640919v5.989039h6.7640918v-5.138929-.85011h.8718163 5.8922756v-11.97808h-5.8922756-.8718163v-5.989039h-6.7640918v-5.98904h6.7640918v5.98904h.8718163 5.8922756v-11.97808-11.978079-11.978079-11.97808-11.978079-11.978079-11.97808-11.978079-11.978079-11.97808-11.978079-11.978079-11.97808-11.978079-11.978079-11.97808-11.978079-11.978079-11.97808-11.978079-11.978079-11.97808-11.978079-11.978079-11.9780797-11.9780793-11.9780794-11.9780793-11.9780793-11.9780794h-5.8922756z" transform="matrix(1 0 0 -1 143.361169 461.461378)"/><path d="m0 11.9713689v11.9713689 11.971369 11.9713689 11.9713689 11.9713689 11.971369 11.9713689 11.9713686 11.971369 11.971369 11.971369 11.971369 11.971369 11.971369 11.971369 11.971369 11.971369 11.971369 11.971368 11.971369 11.971369 11.971369 11.971369 11.971369 10.940501 1.030868 11.971369 11.971369h6.76409186v-11.971369-4.537481-7.433888-11.971369-11.971369-11.971369-11.971369-11.971369-11.971369-11.971368-11.971369-11.971369-11.971369-11.971369-11.971369-11.971369-11.971369-11.971369-11.971369-11.971369-11.9713686-11.9713689-11.971369-11.9713689-11.9713689-11.9713689-11.971369-11.9713689-11.9713689h-6.76409186z" transform="matrix(1 0 0 -1 143.361169 335.19833)"/><path d="m13.5281837 11.9732201v11.97322 11.9732201 11.9732201 11.9732201 11.97322 11.9732201 11.9732201 11.9732204 11.97322 11.97322 11.97322 11.97322 11.97322 11.97322 11.97322 11.97322 11.97322 11.97322 11.97322 11.97322 11.973221 11.97322 11.97322 11.97322 11.97322 11.97322 3.927881 8.045339 11.97322h6.7640919v-11.550831-.422389-11.97322-11.97322-11.97322-11.97322-11.97322-11.97322-11.973221-11.97322-11.97322-11.97322-11.97322-11.97322-11.97322-11.97322-11.97322-11.97322-11.97322-11.97322-11.97322-11.9732204-11.9732201-11.9732201-11.97322-11.9732201-11.9732201-11.9732201-11.97322-11.9732201h-6.7640919z" transform="matrix(1 0 0 -1 143.361169 347.223382)"/></g><g fill="#fff" fill-rule="nonzero" stroke="#fff" stroke-width="16.098538" transform="translate(148 236.521921)"><path d="m83.7847368 66.8126285c-4.0597625 1.2993879-8.5087039.2287314-11.5235664-2.7731947s-4.0887921-7.4304428-2.7816729-11.4706628c4.6509085-14.4079702 7.5790477-17.3110686 8.8242176-18.5504031l.1535141-.1527946c.3410154-.3253578.4948415-.7995588.4093709-1.2619707-.0844458-.4629797-.3929139-.854698-.8244275-1.0469264-14.8532696-6.48396-32.0516371-4.6053607-45.13852 4.9305375-13.0868828 9.5358981-20.0820769 25.2861981-18.359458 41.3379482.0447697.4165582-.0990054.8313444-.3923138 1.1318123-5.21982648 6.6295314-9.43421943 13.9854088-12.50855587 21.8326588-2.63783999 5.208275-2.06650577 11.456911 1.47259817 16.105689 2.13104043 2.037698 5.00773703 3.117539 7.9599901 2.987984 8.180385-.941829 15.981402-3.956036 22.6575432-8.754568.4658197-.291104 1.0579498-.291104 1.5237695 0 16.0429757 10.198324 36.7695441 9.37475 51.9446499-2.064031 15.1751062-11.4387803 21.5886202-31.073018 16.0734652-49.2070649-.133535-.4433857-.478136-.7927231-.921084-.9337451-.443241-.144375-.929393-.0640815-1.302027.2150443-5.3579912 3.3657445-11.1729251 5.9499056-17.2674932 7.6736872zm-29.4064776 3.0955066c1.5506622-1.4365492 3.9257546-1.5222838 5.5768958-.2013115 1.6511412 1.3209722 2.0776468 3.6480861 1.0014674 5.4642385-22.2936579 20.9781405-40.2718641 31.5549259-47.5325122 33.2639629-.4779252.110275-.9792011-.032545-1.3261074-.377826-.3469062-.34528-.4903989-.844207-.3796047-1.319893.7064112-2.598599 1.7038737-5.109991 2.9736249-7.4869378.7163991-1.4204244 1.5806266-2.9936435 2.6154253-4.7422934.2627762-.4356545.7393512-.6984129 1.2497917-.6890695.5104406.0093434.9769864.2893653 1.2234909.734342l.1193998.2150443c.1864137.3393643.5052748.5871152.8812847.6847464.3738102.1022494.773522.0448294 1.1030272-.1584537 11.6504092-7.368587 22.5352967-15.8726582 32.4938166-25.3865492z"/><path d="m99.2724658 45.2845349c.0067998-2.3093536-.9098915-4.5252267-2.5453361-6.1523388-3.4399003-3.2939597-8.8569694-3.2939597-12.2968697 0-3.0238544 4.8186837-5.3341277 10.0514387-6.8586502 15.5348006-.3324853 1.0367295-.0583855 2.1727217.7100403 2.9427245.7684259.7700028 1.9020914 1.0446652 2.9366976.7114975 5.4724645-1.5182664 10.6963813-3.8234639 15.508782-6.843678 1.6421874-1.6392424 2.5591157-3.8703392 2.5453361-6.1930058z"/><path d="m130.315047.50232573-8.763545 3.75584421c-2.011581.91861777-3.855955 2.16511134-5.457503 3.68837395l-6.758518 6.74702551c-7.47591-1.9568343-15.4358873-.0014383-21.1485287 5.1952097l-1.9881307 1.995995c-1.0993347 1.0977969-1.0993347 2.8773257 0 3.9751225l23.8969934 23.8507353c1.099666 1.0974653 2.882226 1.0974653 3.981893 0l1.993763-1.98475c5.224973-5.6969757 7.195478-13.6524123 5.232219-21.1238124l6.758518-6.7470256c1.521389-1.5991156 2.76783-3.4380519 3.689024-5.4426006l3.75661-8.74864304c.82912-1.49127817.60172-3.3459765-.56321-4.59359988-1.253475-1.17807507-3.127713-1.40797305-4.629585-.56787465z"/></g><g fill="url(#a)" transform="translate(148 236.521921)"><path d="m83.7847368 66.8126285c-4.0597625 1.2993879-8.5087039.2287314-11.5235664-2.7731947s-4.0887921-7.4304428-2.7816729-11.4706628c4.6509085-14.4079702 7.5790477-17.3110686 8.8242176-18.5504031l.1535141-.1527946c.3410154-.3253578.4948415-.7995588.4093709-1.2619707-.0844458-.4629797-.3929139-.854698-.8244275-1.0469264-14.8532696-6.48396-32.0516371-4.6053607-45.13852 4.9305375-13.0868828 9.5358981-20.0820769 25.2861981-18.359458 41.3379482.0447697.4165582-.0990054.8313444-.3923138 1.1318123-5.21982648 6.6295314-9.43421943 13.9854088-12.50855587 21.8326588-2.63783999 5.208275-2.06650577 11.456911 1.47259817 16.105689 2.13104043 2.037698 5.00773703 3.117539 7.9599901 2.987984 8.180385-.941829 15.981402-3.956036 22.6575432-8.754568.4658197-.291104 1.0579498-.291104 1.5237695 0 16.0429757 10.198324 36.7695441 9.37475 51.9446499-2.064031 15.1751062-11.4387803 21.5886202-31.073018 16.0734652-49.2070649-.133535-.4433857-.478136-.7927231-.921084-.9337451-.443241-.144375-.929393-.0640815-1.302027.2150443-5.3579912 3.3657445-11.1729251 5.9499056-17.2674932 7.6736872zm-29.4064776 3.0955066c1.5506622-1.4365492 3.9257546-1.5222838 5.5768958-.2013115 1.6511412 1.3209722 2.0776468 3.6480861 1.0014674 5.4642385-22.2936579 20.9781405-40.2718641 31.5549259-47.5325122 33.2639629-.4779252.110275-.9792011-.032545-1.3261074-.377826-.3469062-.34528-.4903989-.844207-.3796047-1.319893.7064112-2.598599 1.7038737-5.109991 2.9736249-7.4869378.7163991-1.4204244 1.5806266-2.9936435 2.6154253-4.7422934.2627762-.4356545.7393512-.6984129 1.2497917-.6890695.5104406.0093434.9769864.2893653 1.2234909.734342l.1193998.2150443c.1864137.3393643.5052748.5871152.8812847.6847464.3738102.1022494.773522.0448294 1.1030272-.1584537 11.6504092-7.368587 22.5352967-15.8726582 32.4938166-25.3865492z"/><path d="m99.2724658 45.2845349c.0067998-2.3093536-.9098915-4.5252267-2.5453361-6.1523388-3.4399003-3.2939597-8.8569694-3.2939597-12.2968697 0-3.0238544 4.8186837-5.3341277 10.0514387-6.8586502 15.5348006-.3324853 1.0367295-.0583855 2.1727217.7100403 2.9427245.7684259.7700028 1.9020914 1.0446652 2.9366976.7114975 5.4724645-1.5182664 10.6963813-3.8234639 15.508782-6.843678 1.6421874-1.6392424 2.5591157-3.8703392 2.5453361-6.1930058z"/><path d="m130.315047.50232573-8.763545 3.75584421c-2.011581.91861777-3.855955 2.16511134-5.457503 3.68837395l-6.758518 6.74702551c-7.47591-1.9568343-15.4358873-.0014383-21.1485287 5.1952097l-1.9881307 1.995995c-1.0993347 1.0977969-1.0993347 2.8773257 0 3.9751225l23.8969934 23.8507353c1.099666 1.0974653 2.882226 1.0974653 3.981893 0l1.993763-1.98475c5.224973-5.6969757 7.195478-13.6524123 5.232219-21.1238124l6.758518-6.7470256c1.521389-1.5991156 2.76783-3.4380519 3.689024-5.4426006l3.75661-8.74864304c.82912-1.49127817.60172-3.3459765-.56321-4.59359988-1.253475-1.17807507-3.127713-1.40797305-4.629585-.56787465z"/></g></g></svg>