<svg height="54" width="80" xmlns="http://www.w3.org/2000/svg"><g fill="none" fill-rule="evenodd" stroke="#666"><path d="M76.142 53H2.86A2.366 2.366 0 0 1 .5 50.642V3.358A2.366 2.366 0 0 1 2.86 1h73.282A2.365 2.365 0 0 1 78.5 3.358v47.284A2.365 2.365 0 0 1 76.142 53z"/><path d="M40 .5v52"/><path d="M.5 26.5h78"/><g fill="#183344"><rect height="1" rx=".5" width="1" x="52" y="8.5"/><rect height="1" rx=".5" width="1" x="59" y="7.5"/><rect height="1" rx=".5" width="1" x="59" y="12.5"/><rect height="1" rx=".5" width="1" x="53" y="16.5"/><rect height="1" rx=".5" width="1" x="49" y="32.5"/><rect height="1" rx=".5" width="1" x="36" y="35.5"/><rect height="1" rx=".5" width="1" x="57" y="30.5"/><rect height="1" rx=".5" width="1" x="46" y="14.5"/><rect height="1" rx=".5" width="1" x="35" y="20.5"/><rect height="1" rx=".5" width="1" x="28" y="33.5"/><rect height="1" rx=".5" width="1" x="21" y="40.5"/><rect height="1" rx=".5" width="1" x="29" y="39.5"/><rect height="1" rx=".5" width="1" x="22" y="17.5"/><rect height="1" rx=".5" width="1" x="25" y="12.5"/><rect height="1" rx=".5" width="1" x="29" y="18.5"/><rect height="1" rx=".5" width="1" x="18" y="34.5"/><rect height="1" rx=".5" width="1" x="12" y="43.5"/><rect height="1" rx=".5" width="1" x="48" y="42.5"/><rect height="1" rx=".5" width="1" x="55" y="38.5"/></g></g></svg>