<svg width="80" height="53" xmlns="http://www.w3.org/2000/svg"><g transform="translate(1)" stroke="#666" fill="none" fill-rule="evenodd"><path d="M75.642 52.5H2.359A2.366 2.366 0 0 1 0 50.142V2.858A2.366 2.366 0 0 1 2.359.5h73.283A2.365 2.365 0 0 1 78 2.858v47.284a2.365 2.365 0 0 1-2.358 2.358z"/><path d="M6.694 1v50.924M71.694 1v50.924" stroke-linecap="square"/><rect x="12.5" y="6.5" width="24" height="40" rx="1"/><path d="M12 41l.51-1 7.15-18 9.191-4L36 7m-9 23l5 10-5-3-5 3z" stroke-linejoin="round"/><rect x="42.5" y="6.5" width="24" height="4" rx="1"/><rect x="42.5" y="15.5" width="24" height="4" rx="1"/><rect x="42.5" y="24.5" width="24" height="4" rx="1"/><rect x="42.5" y="33.5" width="24" height="4" rx="1"/><rect x="42.5" y="42.5" width="24" height="4" rx="1"/></g></svg>