<svg width="25" height="27" xmlns="http://www.w3.org/2000/svg"><g stroke="#FFF" fill="none" fill-rule="evenodd" stroke-linecap="round" stroke-linejoin="round">
    <path d="M8.466 23.438h4M8.466 25.438h4M18.466 10.283c.02-4.025-3.1-7.405-7.203-7.806-4.103-.401-7.846 2.309-8.645 6.258-.798 3.949 1.61 7.843 5.563 8.993v3.71h4.571v-3.71c3.381-.975 5.705-4.003 5.714-7.445z"/><path d="M20.228 3.767l-6.357 6.358-3.125.625.625-3.125 6.36-6.358a1.761 1.761 0 012.493 0l.007.007c.688.689.686 1.805-.003 2.493z"/></g>
</svg>
