<svg xmlns="http://www.w3.org/2000/svg" width="80" height="54"><g fill="none" fill-rule="evenodd" stroke="#666" transform="translate(1 1)"><rect width="78" height="52" rx="4"/><path d="M30.312 26.5H23m26.312 0H42m29.312 0H64m7.312-16H64m7.312 31H64M35.915 31L30 26.499 35.915 22 42 26.499z"/><rect width="15" height="8" x="8.5" y="22.5" rx="2"/><rect width="15" height="8" x="49.5" y="22.5" rx="2"/><rect width="15" height="8" x="49.5" y="6.5" rx="2"/><rect width="15" height="8" x="49.5" y="37.5" rx="2" transform="matrix(1 0 0 -1 0 83)"/><rect width="3" height="3" x="71.5" y="25" rx="1.5"/><rect width="3" height="3" x="71.5" y="9" rx="1.5"/><rect width="3" height="3" x="71.5" y="40" rx="1.5"/><path d="M8.5 26.5H0M36 22c1.147-7.333 5.814-11 14-11M36 31c1.147 7.333 5.814 11 14 11"/></g></svg>