<svg xmlns="http://www.w3.org/2000/svg" width="80" height="54"><g fill="none" fill-rule="evenodd" stroke="#666" transform="translate(1 1)"><path d="M75.642 52H2.359A2.366 2.366 0 0 1 0 49.642V2.358A2.366 2.366 0 0 1 2.359 0h73.283A2.365 2.365 0 0 1 78 2.358v47.284A2.365 2.365 0 0 1 75.642 52z"/><g stroke-linecap="round" stroke-linejoin="round" transform="translate(15 31)"><circle cx="9.5" cy="7.5" r="4.5"/><path d="M19 21c-1.107-4.118-5.018-7-9.5-7S1.107 16.882 0 21"/><circle cx="39.5" cy="7.5" r="4.5"/><path d="M30 21c1.107-4.118 5.018-7 9.5-7s8.393 2.882 9.5 7"/><circle cx="24.5" cy="4.5" r="4.5"/><path d="M32 16c-1.712-3.108-4.74-5-8-5s-6.288 1.892-8 5"/></g><rect width="22" height="13" x="6.5" y="7.5" rx="1"/><path stroke-linecap="square" d="M9.5 13.5h16m-16-3h16m-16 6h16"/><rect width="22" height="9" x="20.5" y="15.5" fill="#FFF" rx="1"/><path stroke-linecap="square" d="M23.5 18.5h16m-16 3h16"/><rect width="22" height="9" x="34.5" y="13.5" fill="#FFF" rx="1"/><rect width="22" height="6" x="49.5" y="21.5" fill="#FFF" rx="1"/><path stroke-linecap="square" d="M37.5 16.5h16m-1 8h16m-31-5h16"/></g></svg>