<svg width="80" height="53" xmlns="http://www.w3.org/2000/svg"><g stroke="#666" fill="none" fill-rule="evenodd"><path d="M76.642 52.5H3.359A2.366 2.366 0 0 1 1 50.142V2.858A2.366 2.366 0 0 1 3.359.5h73.283A2.365 2.365 0 0 1 79 2.858v47.284a2.365 2.365 0 0 1-2.358 2.358zM8 32.5h30m-30 8h30m-30 4h30m-30-16h30m-30 8h30"/><rect x="8.5" y="8.5" width="29" height="15" rx="1"/><g stroke-linecap="round" stroke-linejoin="round"><path d="M48.504 38.25h23m-19.004 0v-2.5a.5.5 0 0 0-.5-.5h-2a.5.5 0 0 0-.5.5v2.5m9 0v-6.5a.5.5 0 0 0-.5-.5h-2a.5.5 0 0 0-.5.5v6.5m9 0v-10.5a.5.5 0 0 0-.5-.5h-2a.5.5 0 0 0-.5.5v10.5m9 0v-14.5a.5.5 0 0 0-.5-.5h-2a.5.5 0 0 0-.5.5v14.5m-16.496-10l18-12m-.5 4l.5-4-4-.5"/></g></g></svg>