<svg xmlns="http://www.w3.org/2000/svg" width="80" height="53"><g fill="none" fill-rule="evenodd" stroke="#666"><path d="M76.642 52.5H3.359A2.366 2.366 0 0 1 1 50.142V2.858A2.366 2.366 0 0 1 3.359.5h73.283A2.365 2.365 0 0 1 79 2.858v47.284a2.365 2.365 0 0 1-2.358 2.358zM1.5 7h78m-66 38h53m-53-37.5V53"/><path d="M46.891 30.157l-4.41-3.642 4.41-3.64 4.562 3.64zm-4.215-3.641h-7.312m-8.777 0H20.54m.155-.064a.922.922 0 1 1-1.845 0 .922.922 0 0 1 1.845 0zm13.09 3.382h-5.604c-.99 0-1.798-.81-1.798-1.798v-2.912c0-.988.808-1.798 1.798-1.798h5.605c.988 0 1.798.81 1.798 1.798v2.912c0 .988-.81 1.798-1.798 1.798zm13.183-6.939v-5.462m2.803.108h-5.604c-.99 0-1.8-.809-1.8-1.798v-2.911c0-.989.81-1.798 1.8-1.798h5.604c.989 0 1.798.809 1.798 1.798v2.911c0 .989-.81 1.798-1.798 1.798zm-2.905 18.01V30.09m19.716-3.503H51.455M49.64 42.05h-5.605c-.989 0-1.798-.81-1.798-1.798V37.34c0-.988.809-1.798 1.798-1.798h5.605c.989 0 1.798.81 1.798 1.798v2.912c0 .988-.809 1.798-1.798 1.798zM66.5 7.5V53"/></g></svg>