<svg height="54" width="80" xmlns="http://www.w3.org/2000/svg"><g fill="none" fill-rule="evenodd" stroke="#666" transform="translate(1 1)"><rect height="52" rx="4" width="78"/><g stroke-linecap="round" stroke-linejoin="round"><g transform="translate(56 28)"><path d="m1.5 23.5 4.5-13v-10h6v10l4.5 13"/><path d="m6 6.5-5.47 4.558a.25.25 0 0 0 .161.442h16.618a.25.25 0 0 0 .161-.442l-5.47-4.558m0-1h5.309a.25.25 0 0 0 .161-.442l-5.47-4.558m-6 0-5.47 4.558a.25.25 0 0 0 .161.442h5.309m-1.359 8.927 10.769 5.924m-2.051-5.924-10.769 5.924m3.41-19.851 6 10m0-10-6 10"/></g><path d="m49.125 51.955h-19.066v-32.41c0-.577.474-1.045 1.06-1.045h16.947c.585 0 1.059.468 1.059 1.045zm-6.355-36.591c0-.578-.474-1.046-1.06-1.046h-4.236c-.585 0-1.06.468-1.06 1.046v3.136h6.356zm-3.132-1.046v-8.363m-5.342 18.818h10.592m-10.592 6.272h10.592m-10.592 6.273h10.592m-10.592 6.273h10.592"/><g transform="translate(5 16)"><ellipse cx="9.625" cy="12.217" rx="2.784" ry="2.734"/><path d="m7.88.6v7.176c.026.926.797 1.664 1.74 1.664.944 0 1.716-.738 1.74-1.664.006-2.458-1.007-7.176-3.48-7.176zm-7.631 18.906 6.329-3.588a1.691 1.691 0 0 0 .585-2.303 1.758 1.758 0 0 0 -2.324-.655c-2.169 1.228-5.823 4.448-4.59 6.546zm20.494-2.96-6.328-3.586a1.768 1.768 0 0 0 -1.757-.019 1.703 1.703 0 0 0 -.879 1.494c.004.617.346 1.184.895 1.484 2.167 1.228 6.836 2.725 8.07.628zm-12.433-1.546-1.04 20.4m3.85-20.4 1.04 20.4"/></g></g></g></svg>