<svg xmlns="http://www.w3.org/2000/svg" width="80" height="54"><g fill="none" fill-rule="evenodd" stroke="#666" transform="translate(1 1)"><rect width="78" height="52" rx="4"/><g stroke-linecap="round" stroke-linejoin="round" transform="translate(15 7)"><circle cx="10.5" cy="10.5" r="10"/><path d="M10.5.5v11h10m7-5.167l4.286-4.666L40.357 7.5 47.5.5m-.5 20v-4m-6 4v-6m-6 6v-9m-6 9v-4"/></g><path stroke-linecap="square" d="M5.5 0v52m67-52v52M15 38.5h20m7 0h20m-47-4h20m7 0h20m-47 8h20m7 0h20m-47 4h20m7 0h20"/></g></svg>