<svg height="54" width="80" xmlns="http://www.w3.org/2000/svg"><g fill="none" fill-rule="evenodd" stroke="#666" transform="translate(0 1)"><path d="m76.142 52h-73.282a2.366 2.366 0 0 1 -2.36-2.358v-47.284a2.366 2.366 0 0 1 2.36-2.358h73.282a2.365 2.365 0 0 1 2.358 2.358v47.284a2.365 2.365 0 0 1 -2.358 2.358z"/><g stroke-linecap="round" stroke-linejoin="round"><g transform="translate(46 10)"><rect height="32" rx="2" width="21" x=".5"/><path d="m21.5 27h-21m7-24h7m-4 25.5a.5.5 0 1 1 0 1 .5.5 0 0 1 0-1"/></g><circle cx="25.5" cy="24.5" r="9.5"/><path d="m46 52c-2.39-8.236-10.83-14-20.5-14s-18.11 5.764-20.5 14"/></g></g></svg>