<?xml version="1.0" encoding="UTF-8"?>
<svg width="572px" height="275px" viewBox="0 0 572 275" version="1.1" xmlns="http://www.w3.org/2000/svg" xmlns:xlink="http://www.w3.org/1999/xlink">
    <!-- Generator: Sketch 57.1 (83088) - https://sketch.com -->
    <title>mendix world 2020</title>
    <desc>Created with Sketch.</desc>
    <g id="Final" stroke="none" stroke-width="1" fill="none" fill-rule="evenodd">
        <g id="MX-World---Save-the-Date" transform="translate(-145.000000, -246.000000)">
            <g id="Group-2" transform="translate(146.000000, 166.000000)">
                <g id="mendix-world-2020" transform="translate(0.000000, 61.000000)">
                    <path d="M76.9662587,88.4294748 L64.1562589,88.4294748 L64.1562589,40.5200756 L63.9854589,40.5200756 L48.8696592,88.4294748 L36.2304594,88.4294748 L21.1146596,40.5200756 L20.9438596,40.5200756 L20.9438596,88.4294748 L8.13385986,88.4294748 L8.13385986,28.6494758 L29.4838595,28.6494758 L42.3792593,71.7764751 L42.5500593,71.7764751 L55.6162591,28.6494758 L76.9662587,28.6494758 L76.9662587,88.4294748 Z M108.037858,39.5806756 C120.847858,39.5806756 130.754258,49.6578755 130.754258,64.6028752 C130.754258,65.9692752 130.668858,68.0188752 130.668858,68.0188752 L97.9606583,68.0188752 C97.9606583,73.9114751 102.743058,78.352275 108.806458,78.352275 C114.613658,78.352275 119.908458,74.423875 121.958058,70.9224751 L122.555858,70.9224751 L128.021458,81.1704749 C126.142658,84.0740749 119.225258,89.4542748 108.806458,89.4542748 C95.0570584,89.4542748 85.4922585,79.974875 85.4922585,64.8590752 C85.4922585,49.5724755 95.2278584,39.5806756 108.037858,39.5806756 Z M108.037858,50.6826755 C101.718258,50.6826755 98.8146583,55.7212754 98.1314583,58.9664753 L117.944258,58.9664753 C117.602658,55.8066754 114.357458,50.6826755 108.037858,50.6826755 Z M163.192257,39.5806756 C175.404457,39.5806756 181.382457,47.0958755 181.382457,56.2336754 L181.382457,88.4294748 L169.426457,88.4294748 L169.426457,60.0766753 C169.426457,53.5008754 166.181257,50.6826755 161.313457,50.6826755 C154.225257,50.6826755 150.382257,56.4898754 150.382257,64.2612752 L150.382257,88.4294748 L138.426258,88.4294748 L138.426258,40.6054756 L148.161857,40.6054756 L148.930457,46.9250755 L149.186657,46.9250755 C152.090257,42.3134756 157.299657,39.5806756 163.192257,39.5806756 Z M234.658056,88.4294748 L225.349456,88.4294748 L224.153856,82.1098749 L223.897656,82.1098749 C221.421056,86.2944748 216.467856,89.4542748 209.635856,89.4542748 C196.057257,89.4542748 188.200457,78.864675 188.200457,64.7736752 C188.200457,50.5972755 196.569657,39.5806756 209.977456,39.5806756 C214.845256,39.5806756 219.969256,41.8010756 222.531256,45.5586755 L222.702056,45.5586755 L222.702056,25.0626759 L234.658056,25.0626759 L234.658056,88.4294748 Z M211.343856,50.6826755 C203.828657,50.6826755 200.156457,58.3686753 200.156457,64.7736752 C200.156457,72.0326751 203.828657,78.352275 211.343856,78.352275 C218.517456,78.352275 223.129056,72.7158751 223.129056,64.7736752 C223.129056,57.0022753 218.773656,50.6826755 211.343856,50.6826755 Z M250.870056,19.255476 C255.737856,19.255476 258.556056,22.3298759 258.556056,26.9414759 C258.556056,31.4676758 255.737856,34.6274757 250.870056,34.6274757 C245.831456,34.6274757 243.013256,31.4676758 243.013256,26.9414759 C243.013256,22.3298759 245.831456,19.255476 250.870056,19.255476 Z M256.848056,88.4294748 L244.892056,88.4294748 L244.892056,40.6054756 L256.848056,40.6054756 L256.848056,88.4294748 Z M293.385255,64.2612752 L308.501055,88.4294748 L294.324655,88.4294748 L285.443055,72.0326751 L276.561455,88.4294748 L262.385056,88.4294748 L277.500855,64.2612752 L263.495256,40.6054756 L277.500855,40.6054756 L285.443055,56.4898754 L293.385255,40.6054756 L307.390855,40.6054756 L293.385255,64.2612752 Z M402.925453,88.4294748 L383.881253,88.4294748 L373.206254,42.2280756 L373.035454,42.2280756 L362.360454,88.4294748 L343.401654,88.4294748 L329.396054,28.6494758 L343.230854,28.6494758 L352.795654,74.765475 L352.966454,74.765475 L363.726854,28.6494758 L381.660854,28.6494758 L393.275253,74.765475 L393.446053,74.765475 L403.010853,28.6494758 L416.931053,28.6494758 L402.925453,88.4294748 Z M437.840052,39.5806756 C451.418652,39.5806756 461.239652,50.5118755 461.239652,64.9444752 C461.239652,78.864675 452.101852,89.4542748 437.754652,89.4542748 C423.578253,89.4542748 414.355053,79.035475 414.355053,64.9444752 C414.355053,50.4264755 424.261453,39.5806756 437.840052,39.5806756 Z M437.840052,50.6826755 C430.751853,50.6826755 426.311053,57.4292753 426.311053,65.0298752 C426.311053,72.6304751 430.837253,78.352275 437.669252,78.352275 C444.928252,78.352275 449.283652,72.0326751 449.283652,64.7736752 C449.283652,57.4292753 444.928252,50.6826755 437.840052,50.6826755 Z M490.176252,39.5806756 C493.677652,39.5806756 496.752051,41.1178756 498.374651,43.3382756 L496.495851,54.6964754 L495.898051,54.6964754 C494.702452,53.1592754 492.055052,51.5366754 489.151452,51.5366754 C483.173452,51.5366754 480.867652,56.6606754 480.867652,64.0904752 L480.867652,88.4294748 L468.911652,88.4294748 L468.911652,40.6054756 L478.647252,40.6054756 L479.415852,46.9250755 L479.672052,46.9250755 C481.550852,42.8258756 484.881452,39.5806756 490.176252,39.5806756 Z M516.294651,88.4294748 L504.338651,88.4294748 L504.338651,25.0626759 L516.294651,25.0626759 L516.294651,88.4294748 Z M570.42425,88.4294748 L561.11565,88.4294748 L559.92005,82.1098749 L559.66385,82.1098749 C557.18725,86.2944748 552.234051,89.4542748 545.402051,89.4542748 C531.823451,89.4542748 523.966651,78.864675 523.966651,64.7736752 C523.966651,50.5972755 532.335851,39.5806756 545.743651,39.5806756 C550.611451,39.5806756 555.73545,41.8010756 558.29745,45.5586755 L558.46825,45.5586755 L558.46825,25.0626759 L570.42425,25.0626759 L570.42425,88.4294748 Z M547.110051,50.6826755 C539.594851,50.6826755 535.922651,58.3686753 535.922651,64.7736752 C535.922651,72.0326751 539.594851,78.352275 547.110051,78.352275 C554.28365,78.352275 558.89525,72.7158751 558.89525,64.7736752 C558.89525,57.0022753 554.53985,50.6826755 547.110051,50.6826755 Z" id="MendixWorld" fill="#FEFEFE" fill-rule="nonzero"></path>
                    <path d="M65.3364589,111.155658 C28.9084595,111.155658 9.56465984,135.004658 0.520659991,156.091457 L24.6384596,180.693657 L26.3968596,180.693657 C34.6876594,158.601657 46.9964592,143.791058 66.0896589,143.791058 C81.6660586,143.791058 90.2074585,153.581257 90.2074585,165.380457 C90.2074585,189.229457 54.5340591,217.093656 29.1604595,240.692056 L5.7972599,262.281456 L5.7972599,289.895055 L126.383458,289.895055 L126.383458,256.005256 L60.563859,256.005256 L69.3558588,247.469456 C96.9904583,220.609056 125.378258,198.015857 125.378258,164.376657 C125.378258,132.494458 99.7540583,111.155658 65.3364589,111.155658 Z M207.524656,111.155658 C162.807257,111.155658 138.941458,153.330657 138.941458,204.290657 C138.941458,242.951656 152.758057,292.907855 207.524656,292.907855 C262.291256,292.907855 276.109255,242.951656 276.109255,204.290657 C276.109255,153.330657 252.242056,111.155658 207.524656,111.155658 Z M207.524656,143.791058 C229.884056,143.791058 239.681256,173.664257 239.681256,203.537457 C239.681256,228.391656 232.898256,259.018056 207.524656,259.018056 C182.151057,259.018056 175.368057,228.391656 175.368057,203.537457 C175.368057,173.664257 185.166657,143.791058 207.524656,143.791058 Z M353.483054,111.155658 C317.056455,111.155658 297.712655,135.004658 288.668655,156.091457 L312.785055,180.693657 L314.543455,180.693657 C322.834255,158.601657 335.144454,143.791058 354.237654,143.791058 C369.812654,143.791058 378.354054,153.581257 378.354054,165.380457 C378.354054,189.229457 342.680654,217.093656 317.307055,240.692056 L293.943855,262.281456 L293.943855,289.895055 L414.531453,289.895055 L414.531453,256.005256 L348.710454,256.005256 L357.502454,247.469456 C385.137053,220.609056 413.526253,198.015857 413.526253,164.376657 C413.526253,132.494458 387.900653,111.155658 353.483054,111.155658 Z M495.672652,111.155658 C450.953852,111.155658 427.088053,153.330657 427.088053,204.290657 C427.088053,242.951656 440.906052,292.907855 495.672652,292.907855 C550.439251,292.907855 564.25585,242.951656 564.25585,204.290657 C564.25585,153.330657 540.390051,111.155658 495.672652,111.155658 Z M495.672652,143.791058 C518.030651,143.791058 527.829251,173.664257 527.829251,203.537457 C527.829251,228.391656 521.046251,259.018056 495.672652,259.018056 C470.299052,259.018056 463.516052,228.391656 463.516052,203.537457 C463.516052,173.664257 473.313252,143.791058 495.672652,143.791058 Z" id="Stroke-1" stroke="#FEFEFE" stroke-width="1.39999998"></path>
                </g>
            </g>
        </g>
    </g>
</svg>