<svg height="36" width="31" xmlns="http://www.w3.org/2000/svg"><g style="fill:none;fill-rule:evenodd;stroke:#000;stroke-linecap:round;stroke-linejoin:round;stroke-width:2.25" transform="translate(2)"><path d="m17.94 25.83-.95 7.861a.999.999 0 0 0 1.691.887l2.735-2.733 2.734 2.733a1 1 0 0 0 1.692-.887l-.961-7.915"/><circle cx="21.375" cy="21.375" r="5.625"/><path d="m11.25 30.375h-9a2.25 2.25 0 0 1 -2.25-2.25v-24.75a2.25 2.25 0 0 1 2.25-2.25h15.944a2.25 2.25 0 0 1 1.59.659l4.308 4.308c.421.421.658.993.658 1.59v4.693"/></g></svg>