<svg height="24" width="24" xmlns="http://www.w3.org/2000/svg"><g stroke="#183344" stroke-width="1.1" fill="none" fill-rule="evenodd" stroke-linecap="round" stroke-linejoin="round"><path d="M3.132 12.8l.448-1.175-1.046-2.744a.93.93 0 0 1 .36-1.107L5.352 6.17l.767-2.834a.93.93 0 0 1 .942-.684l2.932.15L12.279.954a.93.93 0 0 1 1.166 0L15.73 2.8l2.93-.146a.929.929 0 0 1 .943.684l.767 2.834 2.458 1.605a.93.93 0 0 1 .36 1.107l-1.045 2.744 1.046 2.743a.93.93 0 0 1-.361 1.108l-2.458 1.6-.771 2.835a.927.927 0 0 1-.942.685l-2.932-.146-2.285 1.841M.75 19.77l1.656 2.61M9.908 8.146l6.294 9.918"/><path d="M15.871 17.542L2.075 21.858l-.994-1.566L10.24 8.67z"/><path d="M5.056 20.924l.876 1.346a2.04 2.04 0 0 0 2.906.614 2.256 2.256 0 0 0 .587-3.04l-.163-.235"/></g></svg>