<svg xmlns="http://www.w3.org/2000/svg" width="41" height="41"><g fill="none" fill-rule="evenodd" stroke="#000" stroke-linecap="round" stroke-linejoin="round"><rect width="6.833" height="22.208" x=".854" y=".854" rx="1.7"/><rect width="6.833" height="22.208" x="33.313" y=".854" rx="1.7"/><path d="M11.104 18.792v.854a3.406 3.406 0 0 0 1.123 2.532 5.125 5.125 0 0 1 1.597 4.716l-2.72 13.252M7.688 14.52h5.125c.943 0 1.708-.765 1.708-1.709V7.689c0-.944.765-1.709 1.708-1.709h10.25c.944 0 1.709.765 1.709 1.708v9.822a5.154 5.154 0 0 1-1.509 3.642 5.15 5.15 0 0 0-1.426 4.565l2.934 14.43m-20.5-30.75h6.837m13.667 0h5.122m-5.126 5.125h5.125M17.938 5.983v5.979m3.416-5.98v5.98m3.417-5.98v5.98"/></g></svg>