<svg xmlns="http://www.w3.org/2000/svg" width="38" height="38"><g fill="none" fill-rule="evenodd" stroke="#000" stroke-linecap="round" stroke-linejoin="round" transform="translate(1 1)"><path d="M8.25 30.75a4.954 4.954 0 0 0 3.75-3m-9-15c3.234.536 6.013 2.481 7.5 5.25m-2.25-3l3-2.25M14.652 0a14.513 14.513 0 0 1-.804 4.5"/><circle cx="13.5" cy="6" r="1.5"/><circle cx="22.5" cy="9" r="1.5"/><circle cx="28.5" cy="15.75" r="1.5"/><circle cx="22.5" cy="21" r="1.5"/><circle cx="12.75" cy="12.75" r="1.5"/><circle cx="11.25" cy="19.5" r="1.5"/><path d="M36 18a6.331 6.331 0 0 0-3.006-5.407c.106-.462.161-.934.164-1.408a6.235 6.235 0 0 0-5.687-6.272A4.793 4.793 0 0 0 22.74 0a5.645 5.645 0 0 0-4.735 3.13A5.645 5.645 0 0 0 13.268 0a4.791 4.791 0 0 0-4.732 4.913 6.235 6.235 0 0 0-5.687 6.275c0 .474.053.946.157 1.408a6.364 6.364 0 0 0 0 10.812 6.492 6.492 0 0 0-.157 1.409 6.235 6.235 0 0 0 5.687 6.268 4.793 4.793 0 0 0 4.732 4.913 5.674 5.674 0 0 0 4.736-2.347 5.674 5.674 0 0 0 4.735 2.347 4.791 4.791 0 0 0 4.732-4.913 6.235 6.235 0 0 0 5.687-6.274 6.492 6.492 0 0 0-.164-1.409A6.331 6.331 0 0 0 36 17.999zM18 3v18m0 6.75v6"/><path d="M32.25 8.25l-4.274 2.45a4.02 4.02 0 0 1-3.976.046M22.5 19.5a5.072 5.072 0 0 1 3.75-3.75m.75 15c-.4-1.55-1.084-2.74-2.25-3"/><circle cx="12.75" cy="26.25" r="1.5"/><circle cx="23.25" cy="27.75" r="1.5"/></g></svg>