<svg xmlns="http://www.w3.org/2000/svg" width="58" height="58"><g fill="none" fill-rule="evenodd" stroke="#0595DB" stroke-linejoin="round"><path stroke-linecap="round" d="M28 57v-9.667h9.667v-9.666h9.666V28H57M42 57l15-14m-7-1h7v7m-29.488-5.4v-4.8l-4.82-7.2v-7.2l4.82 4.8 6.368-3.624a2.21 2.21 0 0 0 .747-3.149 2.232 2.232 0 0 0-2.847-.753L28.717 23.2l-3.389-5.062A4.825 4.825 0 0 0 21.318 16H10.226a4.832 4.832 0 0 0-3.408 1.406L1 23.2v7.2c0 1.327 1.08 2.4 2.41 2.4s2.41-1.073 2.41-2.4v-4.6l4.82-3.8v9.12L7.026 52h4.82l4.821-16.8 3.615 6v3.6"/><path d="M22 6c0 2.76-2.24 5-5 5s-5-2.24-5-5 2.24-5 5-5 5 2.24 5 5z"/></g></svg>