<svg height="56" width="56" xmlns="http://www.w3.org/2000/svg"><g fill="none" fill-rule="evenodd" stroke="#183344" stroke-width="2"><path d="m1 1h54v54h-54z"/><g stroke-linecap="round" stroke-linejoin="round"><path d="m39.815 31.964s7.185-.959 7.185-8.53c.002-2.327-.909-4.554-2.525-6.17-1.614-1.616-3.793-2.48-6.033-2.39-2.252-4.956-7.453-7.695-12.636-6.655s-9.024 5.596-9.335 11.065a6.03 6.03 0 0 0 -5.18 1.3c-1.449 1.221-2.291 3.057-2.291 4.996 0 6.532 6.336 6.42 6.336 6.42m28.664 11.5c0 2.486-1.885 4.5-4.21 4.5h-23.58c-2.324 0-4.21-2.014-4.21-4.5v-4.5h32z"/><path d="m12 39 3.93-8.487a2.863 2.863 0 0 1 2.385-1.513h18.105a3.26 3.26 0 0 1 2.526 1.438l5.054 8.562zm14 6h5"/></g></g></svg>