<svg width="36" height="48" xmlns="http://www.w3.org/2000/svg"><g stroke-width="2" fill="none" fill-rule="evenodd" stroke-linecap="round" stroke-linejoin="round"><path d="M35 13.854a7.262 7.262 0 0 0-7.656-7.128A10.368 10.368 0 0 0 18 1a10.2 10.2 0 0 0-10.316 9.4A5.498 5.498 0 0 0 1 15.64C1 21.084 6.912 21 6.912 21h21.436S35 20.158 35 13.854z" stroke="#0CABF9"/><path d="M7.5 41.498a.5.5 0 1 0 0 .996.5.5 0 0 0 0-.994m5-.002a.5.5 0 1 0 0 .996.5.5 0 0 0 0-.994" stroke="#000"/><path d="M35 44a3 3 0 0 1-3 3H4a3 3 0 0 1-3-3v-4a3 3 0 0 1 3-3h28a3 3 0 0 1 3 3v4zM7.5 31.498a.5.5 0 1 0 0 .996.5.5 0 0 0 0-.994m5-.002a.5.5 0 1 0 0 .996.5.5 0 0 0 0-.994" stroke="#000"/><path d="M35 34a3 3 0 0 1-3 3H4a3 3 0 0 1-3-3v-4a3 3 0 0 1 3-3h28a3 3 0 0 1 3 3v4z" stroke="#000"/></g></svg>