<svg height="93" width="93" xmlns="http://www.w3.org/2000/svg"><g fill="none" fill-rule="evenodd"><path d="M0 0h93v93H0z" fill="#0cabf9" fill-rule="nonzero"/><g stroke="#fff" stroke-linecap="round" stroke-linejoin="round" transform="translate(23 26)"><ellipse cx="24.5" cy="16" rx="6.5" ry="3"/><ellipse cx="24.5" cy="3" rx="6.5" ry="3"/><ellipse cx="38.5" cy="9" rx="6.5" ry="3"/><ellipse cx="10.5" cy="9" rx="6.5" ry="3"/><path d="M19 5.063l-4 1.874M34 7l-5-2M5.372 12l-4.12 1.774A2.067 2.067 0 0 0 0 15.669v13.85c0 .81.478 1.546 1.223 1.881l20.9 9.414a2.106 2.106 0 0 0 1.67.027l22.923-9.462A2.067 2.067 0 0 0 48 29.471V15.67c0-.822-.491-1.566-1.252-1.895l-3.544-1.528M23 24v17m25-27L23 24m0 0L0 14"/></g></g></svg>