<svg width="48" height="48" xmlns="http://www.w3.org/2000/svg"><g stroke-width="2" fill="none" fill-rule="evenodd" stroke-linecap="round" stroke-linejoin="round"><path d="M17.6 38.4h12.8m-6.4-4v4M8 28.8h22.4" stroke="#000"/><path d="M1.6 3.467c0-1.03.836-1.867 1.867-1.867h7.466c1.033 0 1.867.836 1.867 1.867v13.066a1.865 1.865 0 0 1-1.867 1.867H3.467A1.866 1.866 0 0 1 1.6 16.533V3.467zm33.6 28c0-1.03.836-1.867 1.867-1.867h7.466c1.033 0 1.867.836 1.867 1.867V46.4h-9.333a1.866 1.866 0 0 1-1.867-1.867V31.467zm0 10.933h11.2m-11.2-9.6h11.2" stroke="#0CABF9"/><path d="M17.6 12h19.6c1.546 0 2.8 1.229 2.8 2.743V24.8m-9.6 9.6H10.8A2.8 2.8 0 0 1 8 31.6v-8.4" stroke="#000"/></g></svg>