<svg height="48" width="48" xmlns="http://www.w3.org/2000/svg"><g fill="none" fill-rule="evenodd" stroke="#000" stroke-linecap="round" stroke-linejoin="round"><path d="M32 45.54a23 23 0 1 1 14.912-19.546"/><path d="M1.346 19.97h12.168a6 6 0 0 1 4.244 1.756L20 23.968a6 6 0 0 1 .242 8.23l-2.726 3.066A6 6 0 0 0 16 39.25v6.29M40.522 7.97h-11.6a4.5 4.5 0 1 0 0 9h.864a6 6 0 0 1 5 2.67l2.266 3.4M47 34.97c0 5-8 12-8 12s-8-7-8-12a8 8 0 1 1 16 0z"/><path d="M39 34.47a.498.498 0 0 1 .5.5m-1 0a.498.498 0 0 1 .5-.5m0 1a.5.5 0 0 1-.5-.5m1 0a.5.5 0 0 1-.5.5"/></g></svg>