<svg xmlns="http://www.w3.org/2000/svg" width="50" height="50"><g fill="none" fill-rule="evenodd" stroke="#000"><path d="M47.882 49.444H2.785c-.798 0-1.452-.98-1.452-2.177V3.621c0-1.197.654-2.177 1.452-2.177h45.097c.798 0 1.451.98 1.451 2.177v43.646c0 1.197-.653 2.177-1.45 2.177z"/><path d="M31.792 28.806l-3.92-3.237 3.92-3.236 4.055 3.236zm-3.746-3.237h-6.5m-7.802 0H8.37m.137-.056a.82.82 0 1 1-1.64-.001.82.82 0 0 1 1.64 0zm11.637 3.006H15.16c-.88 0-1.599-.72-1.599-1.599v-2.588c0-.878.719-1.598 1.599-1.598h4.982c.878 0 1.598.72 1.598 1.598v2.588c0 .879-.72 1.599-1.598 1.599zm11.718-6.168v-4.855m2.49.096h-4.98c-.88 0-1.6-.72-1.6-1.599v-2.587c0-.88.72-1.598 1.6-1.598h4.98c.88 0 1.6.719 1.6 1.598v2.587c0 .88-.72 1.599-1.6 1.599zm-2.582 16.01v-4.856m17.526-3.114H35.848m-1.612 13.745h-4.983c-.879 0-1.598-.72-1.598-1.598V35.19c0-.878.72-1.598 1.598-1.598h4.983c.879 0 1.598.72 1.598 1.598v2.589c0 .878-.72 1.598-1.598 1.598z"/></g></svg>