<svg xmlns="http://www.w3.org/2000/svg" width="37" height="37"><g fill="none" fill-rule="evenodd" stroke="#000" stroke-linecap="round" stroke-linejoin="round"><path d="M28.194 3.682c-1.626 1.626-4.657 1.471-7.277-1.149L18.619 4.83l12.255 12.255 5.362-5.362-8.042-8.04zm-9.668 11.78l-5.81-5.81a6.128 6.128 0 0 0-8.108-8.108L7.896 4.83v3.064H4.832L1.544 4.608a6.128 6.128 0 0 0 8.107 8.108l5.81 5.81m3.252 3.25l5.81 5.81a6.128 6.128 0 0 0 8.107 8.109l-3.288-3.29V29.34h3.064l3.288 3.29a6.128 6.128 0 0 0-8.107-8.109l-5.81-5.81"/><path d="M23.887 10.1L1.675 32.312a2.299 2.299 0 0 0 3.25 3.251L27.138 13.35"/></g></svg>