<svg xmlns="http://www.w3.org/2000/svg" width="61" height="38"><g fill="none" fill-rule="evenodd" stroke="#0595DB" stroke-linecap="round" stroke-linejoin="round"><path d="M53 24.021l-14 2.958M37.34 8.8l-9.286 3.046a3.09 3.09 0 0 1-3.762-1.624 3.083 3.083 0 0 1 1.417-4.066l8.993-4.489a6.316 6.316 0 0 1 4.983-.287L53 6.214"/><path d="M8 24.866h6.537l9.39 10.851c.979 1.17 2.56 1.59 3.965 1.051 1.405-.538 2.338-1.92 2.339-3.466v-1.696l.468.193a4.312 4.312 0 0 0 4.126-.458c1.216-.849 1.945-2.264 1.945-3.779h1.308c1.485-.001 2.843-.867 3.508-2.237a4.152 4.152 0 0 0-.37-4.236L32.825 10M27 4.823l-.995-.764A6.132 6.132 0 0 0 22.543 3c-.743 0-1.478.132-2.166.391L8 8M0 4.002h5.333A2.562 2.562 0 0 1 8 6.444v17.109a2.565 2.565 0 0 1-2.667 2.445H0m61 0h-5.333A2.565 2.565 0 0 1 53 23.553V6.444a2.562 2.562 0 0 1 2.667-2.442H61M30.967 30.967l-2.934-2.934M37 27l-4-4"/></g></svg>