<svg height="24" width="20" xmlns="http://www.w3.org/2000/svg"><g stroke="#183344" stroke-width="1.1" fill="none" fill-rule="evenodd" stroke-linecap="round" stroke-linejoin="round"><path d="M15.924 7.276l.96-.946m-.253-.95l1.28 1.252m-7.964-.917V1.6m2.064-.075H7.75m2.038 4.191c4.854 0 8.788 3.869 8.788 8.642s-3.934 8.642-8.788 8.642S1 19.13 1 14.357s3.934-8.642 8.788-8.642z"/><path d="M10.054 8.465c-.22 0-.4.176-.4.393 0 .216.18.392.4.392.22 0 .4-.176.4-.392a.396.396 0 0 0-.4-.393m0 10.998c-.22 0-.4.176-.4.393 0 .217.18.393.4.393.22 0 .4-.176.4-.393a.396.396 0 0 0-.4-.393m-5.858-5.76c-.22 0-.4.175-.4.392s.18.393.4.393c.22 0 .4-.176.4-.393s-.18-.393-.4-.393m11.184 0c-.22 0-.4.176-.4.393s.18.393.4.393.4-.176.4-.393-.18-.393-.4-.393m-9.586-3.666c-.221 0-.4.175-.4.393a.386.386 0 0 0 .116.277.405.405 0 0 0 .566.001.389.389 0 0 0 0-.556.402.402 0 0 0-.282-.115m7.988 7.856a.406.406 0 0 0-.282.115.39.39 0 0 0 0 .556c.156.153.41.153.565 0a.39.39 0 0 0 0-.556.407.407 0 0 0-.283-.115m-7.988 0c-.221 0-.4.176-.4.393a.388.388 0 0 0 .116.278.406.406 0 0 0 .566 0 .389.389 0 0 0 0-.556.402.402 0 0 0-.282-.115m8.271-7.74a.406.406 0 0 0-.565 0 .387.387 0 0 0 0 .554.404.404 0 0 0 .565 0 .389.389 0 0 0 0-.555"/></g></svg>