<svg xmlns="http://www.w3.org/2000/svg" width="53" height="60"><g fill="none" fill-rule="evenodd" stroke="#0595DB"><path d="M44 27c0 9.941-7.835 18-17.5 18S9 36.941 9 27 16.835 9 26.5 9 44 17.059 44 27z"/><path stroke-linejoin="round" d="M19 43v6h15v-6M21 54h10v-5H21z"/><path stroke-linecap="round" stroke-linejoin="round" d="M26 54v5m0-58v3m18.121 4L42 10.121M52 26h-3m-4.879 19.121L42 43M8 8l2.121 2.121M1 26h3m4 19.121L10.121 43m17.129 0l3.188-14.45c.33-1.493 1.6-2.55 3.062-2.55 1.383 0 2.5 1.17 2.5 2.615 0 1.447-1.117 2.616-2.5 2.616h-15c-1.383 0-2.5-1.17-2.5-2.616C16 27.17 17.117 26 18.5 26c1.462 0 2.733 1.057 3.063 2.55L24.75 43"/></g></svg>