<svg height="49" width="61" xmlns="http://www.w3.org/2000/svg"><g fill="none" fill-rule="evenodd"><path d="m35.468 6.747c.35 0 .634.275.634.613a.624.624 0 0 1 -.634.612.624.624 0 0 1 -.634-.612c0-.338.284-.613.634-.613m7.608 0c.35 0 .634.275.634.613a.624.624 0 0 1 -.634.612.624.624 0 0 1 -.634-.612c0-.338.284-.613.634-.613m7.608 0c.35 0 .634.275.634.613a.624.624 0 0 1 -.634.612.624.624 0 0 1 -.634-.612c0-.338.284-.613.634-.613" stroke="#000" stroke-linecap="round" stroke-linejoin="round" stroke-width="2"/><path d="m2.233.235h56.327a2 2 0 0 1 2 2v44.55a2 2 0 0 1 -2 2h-56.327a2 2 0 0 1 -2-2v-44.55a2 2 0 0 1 2-2zm0 2v44.55h56.327v-44.55z" fill="#000" fill-rule="nonzero"/><g stroke-linecap="round" stroke-width="2"><path d="m1.233 13.485h58.327" stroke="#000" stroke-linejoin="round"/><path d="m6.693 20.5h11.386m-11.386 8h19.15m-19.15-4h7.246m-7.246 16h7.246m-7.246-8h4.14m7.246-8h7.246m-7.246 16h7.867m-11.49-8h4.658m-12.421 4h12.421m3.623-4h4.14m-4.658 4h4.14" stroke="#0cabf9"/><path d="m31.25 13.485v33.515" stroke="#000" stroke-linejoin="round"/></g><path d="m38.62 19h14.277a2 2 0 0 1 2 2v3a2 2 0 0 1 -2 2h-14.277a2 2 0 0 1 -2-2v-3a2 2 0 0 1 2-2zm0 2v3h14.277v-3zm0 7h3.087a2 2 0 0 1 2 2v10a2 2 0 0 1 -2 2h-3.087a2 2 0 0 1 -2-2v-10a2 2 0 0 1 2-2zm0 2v10h3.087v-10zm10.173-2h4.104a2 2 0 0 1 2 2v2a2 2 0 0 1 -2 2h-4.104a2 2 0 0 1 -2-2v-2a2 2 0 0 1 2-2zm0 2v2h4.104v-2zm0 6h4.104a2 2 0 0 1 2 2v2a2 2 0 0 1 -2 2h-4.104a2 2 0 0 1 -2-2v-2a2 2 0 0 1 2-2zm0 2v2h4.104v-2z" fill="#0cabf9" fill-rule="nonzero"/></g></svg>