<svg xmlns="http://www.w3.org/2000/svg" width="42" height="47"><g fill="none" fill-rule="evenodd" stroke="#000" stroke-linecap="round" stroke-linejoin="round"><path d="M21.2 2.828a2 2 0 0 1 2.83 0L38.172 16.97a2 2 0 0 1 0 2.828c-1.4 1.412-3.742 3.742-6.366 6.366-4.697 4.264-11.952 3.95-16.262-.706-4.653-4.31-4.968-11.562-.706-16.258L21.2 2.828zm5.658 2.828L32.514 0m2.83 14.14L41 8.484"/><path d="M24.03 21.212a3 3 0 1 1-4.243-4.242 3 3 0 0 1 4.243 4.242zm-6.12 6.122l-4.488 4.486-4.242-4.242 4.486-4.488M15 46l3.828-3.828a3.071 3.071 0 1 0-4.342-4.344l-6.85 6.848a4.148 4.148 0 0 1-5.294.588 4 4 0 0 1-.514-6.092L11.3 29.7"/></g></svg>