<svg width="50" height="48" xmlns="http://www.w3.org/2000/svg"><g transform="translate(1 1)" stroke="#000" stroke-width="2" fill="none" fill-rule="evenodd" stroke-linecap="round" stroke-linejoin="round"><path d="M0 39l3 5m17-29l13 20"/><path d="M32 34.1640203L3.08182728 43 1 39.794212 20.1933311 16z"/><path d="M17.903 39c1.09 1.186 1.395 2.848.791 4.314-.604 1.465-2.018 2.49-3.668 2.661-1.65.17-3.264-.543-4.187-1.85L9 41.499m-2.317-17.8l-1.4-1.482a1.042 1.042 0 0 1 0-1.43l3.753-3.96-1.25-5.307a1.042 1.042 0 0 1 .716-1.238l5.228-1.557 1.557-5.227a1.042 1.042 0 0 1 1.217-.723l5.305 1.26 3.96-3.751a1.042 1.042 0 0 1 1.43 0l3.96 3.752 5.308-1.251a1.042 1.042 0 0 1 1.238.717l1.557 5.227 5.227 1.557c.536.158.852.71.717 1.251l-1.242 5.284 3.752 3.96a1.042 1.042 0 0 1 0 1.43l-3.752 3.96 1.261 5.304a1.042 1.042 0 0 1-.717 1.24l-5.227 1.558-1.558 5.227c-.158.53-.702.843-1.24.715l-5.305-1.25-3.96 3.751a1.042 1.042 0 0 1-1.43 0l-.752-.71"/></g></svg>