<svg height="56" width="58" xmlns="http://www.w3.org/2000/svg"><g fill="none" fill-rule="evenodd" stroke="#183344"><path d="m2 1h54v54h-54z" stroke-width="2"/><g stroke-linecap="round" stroke-linejoin="round"><path d="m44 14.812c-5.392-6.173-14.168-8.419-21.984-5.627-7.815 2.793-13.012 10.03-13.016 18.131v5.684" stroke-width="2.318"/><path d="m16 24-7 9-7-9m12 16.192c5.393 6.17 14.172 8.415 21.99 5.621 7.815-2.793 13.01-10.033 13.01-18.132v-5.681" stroke-width="2.318"/><g stroke-width="2"><path d="m36 34.4c0 .884-.728 1.6-1.625 1.6h-9.75a1.613 1.613 0 0 1 -1.625-1.6v-12.8c0-.884.728-1.6 1.625-1.6h4.875a4.558 4.558 0 0 1 2.774 1.131l2.577 2.538a4.416 4.416 0 0 1 1.149 2.731z"/><path d="m30 20v4.251a1.75 1.75 0 0 0 1.75 1.749h4.25"/></g><path d="m42 31 7-9 7 9" stroke-width="2.318"/></g></g></svg>