<svg height="25" width="24" xmlns="http://www.w3.org/2000/svg"><g stroke="#183344" stroke-width="1.1" fill="none" fill-rule="evenodd" stroke-linecap="round" stroke-linejoin="round"><path d="M8.94 19.439a1.501 1.501 0 0 1-2.122 0L1.44 14.06a1.5 1.5 0 0 1 0-2.121l10.5-10.5A1.497 1.497 0 0 1 13 1h5.378a1.5 1.5 0 0 1 1.5 1.5v5.378a1.507 1.507 0 0 1-.439 1.061"/><path d="M16.5 5.125a.374.374 0 1 0-.001.749.374.374 0 0 0 .001-.749M18.379 15h-2.033a1.342 1.342 0 0 0-.5 2.587l2.062.826a1.341 1.341 0 0 1-.5 2.587h-2.029m2.121-6.125v-.75m0 7.75v-.75"/><path d="M17 12a6 6 0 1 1-.002 12.002A6 6 0 0 1 17 12z"/></g></svg>