<svg height="77" width="77" xmlns="http://www.w3.org/2000/svg"><g fill="none" fill-rule="evenodd" stroke="#183344" stroke-width="4.05"><path d="M3.025 2.025h71.95v71.95H3.025z"/><g stroke-linecap="round" stroke-linejoin="round"><path d="M26.455 30.432h-10.28a4.47 4.47 0 0 0-4.47 4.473v28.968m44.25.082v-12.95m10.07 15.631c0 4.282-4.558 7.389-9.896 7.389H2.975v-9.414h63.05z"/><path d="M48.355 13c-4.114.014-8.05 1.745-10.926 4.803-2.876 3.06-4.451 7.19-4.373 11.468a16.451 16.451 0 0 0 2.014 8.563l-4.593 10.03 9.647-4.78c5.639 3.636 12.87 3.175 18.04-1.15s7.151-11.571 4.945-18.079C60.903 17.348 54.99 12.997 48.355 13z" fill="#fff"/><path d="M47.91 36.466a.67.67 0 1 1 0 1.34.67.67 0 0 1 0-1.34m-4.024-10.057a4.023 4.023 0 1 1 4.023 4.023"/></g></g></svg>