<svg xmlns="http://www.w3.org/2000/svg" xmlns:xlink="http://www.w3.org/1999/xlink" width="56" height="56"><defs><path id="a" d="M0 0h56v56H0z"/></defs><g fill="none" fill-rule="evenodd"><mask id="b" fill="#fff"><use xlink:href="#a"/></mask><use fill="#D8D8D8" fill-opacity="0" fill-rule="nonzero" xlink:href="#a"/><g stroke="#183344" stroke-width="2" mask="url(#b)"><path d="M1 1h54v54H1z"/><path stroke-linecap="round" stroke-linejoin="round" d="M19 45h16m-8-5v5M7 33h28M-1 1.333A2.334 2.334 0 0 1 1.333-1h9.334A2.333 2.333 0 0 1 13 1.333v16.334A2.331 2.331 0 0 1 10.667 20H1.333A2.333 2.333 0 0 1-1 17.667V1.333zm42 35A2.334 2.334 0 0 1 43.333 34h9.334A2.333 2.333 0 0 1 55 36.333V55H43.333A2.333 2.333 0 0 1 41 52.667V36.333zM41 50h14M41 38h14M19 12h24.5c1.932 0 3.5 1.536 3.5 3.429V28M35 40H10.5A3.5 3.5 0 0 1 7 36.5V26"/></g></g></svg>