<?xml version="1.0" encoding="UTF-8"?>
<svg width="19px" height="18px" viewBox="0 0 19 18" version="1.1" xmlns="http://www.w3.org/2000/svg" xmlns:xlink="http://www.w3.org/1999/xlink">
    <title>Stroke 1</title>
    <g id="Page-1" stroke="none" stroke-width="1" fill="none" fill-rule="evenodd" stroke-linecap="round" stroke-linejoin="round">
        <g id="1B_Customer-Stories---Not-Filtered_Dropdown" transform="translate(-1110.000000, -912.000000)" stroke="#FFFFFF" stroke-width="1.125">
            <g id="Saga-Featured" transform="translate(253.000000, 662.000000)">
                <g id="Top-Share" transform="translate(826.000000, 251.000000)">
                    <path d="M49.125,6.71759942 L40.89225,14.9510994 C38.91525,16.9280994 35.70975,16.9280994 33.73275,14.9510994 C31.75575,12.9740994 31.75575,9.76859942 33.73275,7.79159942 L40.49475,1.03034942 C41.79,-0.31065058 43.926,-0.34740058 45.267,0.94784942 C46.608,2.24234942 46.64475,4.37909942 45.35025,5.71934942 C45.32325,5.74784942 45.2955,5.77559942 45.267,5.80259942 L38.50575,12.5675994 C37.83525,13.2155994 36.76725,13.1968494 36.12,12.5270994 C35.48775,11.8730994 35.48775,10.8358494 36.11925,10.1818494 L42.88125,3.41759942" id="Stroke-1"></path>
                </g>
            </g>
        </g>
    </g>
</svg>