<svg width="32" height="32" xmlns="http://www.w3.org/2000/svg"><g stroke="#888" fill="none" fill-rule="evenodd" stroke-linejoin="round"><path d="M13.333 20s-2-.667-2-4c-1.101 0-1.101-2.667 0-2.667 0-.446-2-5.333 1.334-4.666.666-2.667 8-2.667 8.666 0 .463 1.85-.666 4.338-.666 4.666 1.101 0 1.101 2.667 0 2.667 0 3.333-2 4-2 4v3.333c3.302 1.239 6.573 2.263 8.248 3.434A15.285 15.285 0 0 0 31.333 16C31.333 7.53 24.47.667 16 .667 7.53.667.667 7.53.667 16c0 4.204 1.693 8.012 4.433 10.783 1.773-1.227 5.27-2.328 8.233-3.45V20z"/><path d="M5.1 26.783a15.286 15.286 0 0 0 10.9 4.55c4.27 0 8.132-1.746 10.914-4.566"/></g></svg>