<svg width="48" height="52" xmlns="http://www.w3.org/2000/svg" xmlns:xlink="http://www.w3.org/1999/xlink"><defs><path d="M37.303 28.945S46 27.827 46 19c0-5.594-4.62-10.194-10.36-9.984C33.397 4.281 28.587 1 23 1 15.549 1 9.477 6.82 9.043 14.16 4.375 13.183 0 16.737 0 21.5c0 7.618 7.67 7.488 7.67 7.488L4 37h38l-4.698-8.055zM42 42a5 5 0 0 1-5 5H9a5 5 0 0 1-5-5v-5h38v5z" id="b"/><filter x="-50%" y="-50%" width="200%" height="200%" filterUnits="objectBoundingBox" id="a"><feOffset dy="5" in="SourceAlpha" result="shadowOffsetOuter1"/><feColorMatrix values="0 0 0 0 0 0 0 0 0 0 0 0 0 0 0 0 0 0 0.17 0" in="shadowOffsetOuter1"/></filter></defs><g fill="none" fill-rule="evenodd"><g transform="translate(1)"><use fill="#000" filter="url(#a)" xlink:href="#b"/><use fill="#FFF" xlink:href="#b"/></g><path d="M38.303 28.945S47 27.827 47 19c0-5.594-4.62-10.194-10.36-9.984C34.397 4.281 29.587 1 24 1c-7.452 0-13.524 5.82-13.958 13.16C5.375 13.183 1 16.737 1 21.5c0 7.618 7.67 7.488 7.67 7.488" stroke="#066796" stroke-width="2" stroke-linejoin="round"/><path d="M43 42a5 5 0 0 1-5 5H10a5 5 0 0 1-5-5v-5h38v5zM5 37l4.666-10.184c.46-1 1.734-1.816 2.834-1.816H34c1.1 0 2.454.778 3.008 1.726L43 37H5zm25 6h6" stroke="#0595DB" stroke-width="2" stroke-linecap="round" stroke-linejoin="round"/></g></svg>