<svg height="12" width="16" xmlns="http://www.w3.org/2000/svg" xmlns:xlink="http://www.w3.org/1999/xlink"><mask id="a" fill="#fff"><path d="m0 0h16v12h-16z" fill="#fff" fill-rule="evenodd"/></mask><g fill="none" mask="url(#a)"><path d="m0 0h20.612v.899h-20.612zm0 1.798h20.612v.9h-20.612zm0 1.796h20.612v.901h-20.612zm0 1.798h20.612v.899h-20.612v-.9zm0 1.798h20.612v.899h-20.612v-.9zm0 1.796h20.612v.899h-20.612v-.9zm0 1.798h20.612v.899h-20.612v-.9z" fill="#bd3d44"/><path d="m0 .899h20.612v.899h-20.612zm0 1.798h20.612v.897h-20.612zm0 1.796h20.612v.899h-20.612v-.9zm0 1.797h20.612v.899h-20.612v-.9zm0 1.798h20.612v.899h-20.612v-.9zm0 1.796h20.612v.899h-20.612v-.9z" fill="#fff"/><path d="m0 0h8.244v6.291h-8.244z" fill="#192f5d"/><path d="m.686.27.077.248h.241l-.194.153.075.25-.199-.153-.194.152.074-.25-.197-.151h.245l.072-.25zm1.376 0 .074.248h.243l-.197.153.075.25-.195-.154-.197.153.074-.25-.195-.152h.241l.077-.249zm1.373 0 .076.248h.24l-.196.153.074.25-.197-.154-.194.153.074-.25-.197-.152h.243l.077-.249zm1.375 0 .074.248h.243l-.197.153.077.25-.197-.153-.197.152.076-.25-.197-.152h.241l.077-.249zm1.373 0 .076.248h.241l-.194.153.074.25-.197-.154-.195.153.074-.25-.195-.152h.241l.075-.249zm1.375 0 .074.248h.244l-.197.153.076.25-.197-.154-.198.153.076-.25-.196-.151h.244zm-6.183.628.074.249h.244l-.197.153.072.248-.19-.153-.198.153.07-.248-.19-.153h.24zm1.373 0 .076.249h.242l-.197.153.076.248-.197-.153-.197.153.076-.248-.197-.153h.244zm1.375 0 .074.249h.244l-.197.153.074.248-.195-.153-.197.153.074-.247-.195-.153h.242l.076-.249zm1.373 0 .076.249h.242l-.197.153.076.248-.197-.153-.195.153.074-.248-.197-.153h.246zm1.375 0 .074.249h.244l-.197.153.074.248-.195-.153-.197.153.074-.248-.195-.153h.242zm-6.185.628.077.253h.241l-.195.153.075.248-.198-.155-.194.155.074-.25-.197-.153h.245zm1.376 0 .074.25h.243l-.197.153.075.25-.195-.156-.197.155.074-.25-.195-.154h.241zm1.373 0 .076.25h.24l-.196.153.074.25-.197-.156-.194.155.074-.25-.197-.154h.243zm1.375 0 .074.25h.243l-.197.153.077.25-.197-.156-.197.155.076-.25-.197-.154h.241zm1.373 0 .076.25h.241l-.194.153.074.25-.197-.156-.195.155.074-.25-.195-.154h.241zm1.375 0 .074.25h.244l-.197.153.076.25-.197-.156-.197.155.076-.25-.197-.154h.244zm-6.183.63.074.248h.244l-.197.153.074.25-.195-.154-.197.153.074-.25-.195-.152h.243l.076-.249zm1.373 0 .076.248h.242l-.197.153.076.25-.197-.154-.197.153.076-.25-.197-.152h.244l.074-.249zm1.375 0 .074.248h.244l-.197.153.074.25-.195-.154-.197.153.074-.25-.195-.152h.242l.076-.249zm1.373 0 .076.248h.242l-.195.153.074.25-.197-.154-.195.153.074-.25-.197-.152h.246l.072-.249zm1.375 0 .074.248h.244l-.197.153.074.25-.195-.154-.197.153.074-.25-.195-.152h.242l.076-.249zm-6.185.629.077.249h.241l-.195.153.075.25-.198-.155-.194.153.074-.248-.197-.153h.245zm1.376 0 .074.249h.243l-.197.153.075.248-.195-.153-.197.153.074-.248-.195-.153h.241zm1.373 0 .076.249h.24l-.196.153.074.25-.197-.155-.194.153.074-.248-.197-.153h.243zm1.375 0 .074.249h.243l-.197.153.077.25-.197-.155-.197.153.076-.248-.197-.153h.241zm1.373 0 .076.249h.241l-.194.153.074.25-.197-.155-.195.153.074-.248-.195-.153h.241zm1.375 0 .074.249h.244l-.197.153.076.25-.197-.155-.197.153.076-.248-.197-.153h.244zm-6.183.63.074.249h.244l-.197.152.074.25-.195-.156-.197.155.074-.25-.195-.154h.243l.076-.246zm1.373 0 .076.249h.242l-.197.152.076.25-.197-.156-.197.155.076-.25-.197-.154h.244zm1.375 0 .074.249h.244l-.197.152.074.25-.195-.156-.197.155.074-.25-.195-.154h.242zm1.373 0 .076.249h.242l-.195.152.074.25-.197-.156-.195.155.074-.25-.197-.154h.246zm1.375 0 .074.249h.244l-.197.152.074.25-.195-.156-.197.155.074-.25-.195-.154h.242zm-6.185.627.077.251h.241l-.195.153.075.247-.198-.153-.194.153.074-.25-.197-.152h.245zm1.376 0 .074.251h.243l-.197.153.077.247-.197-.153-.197.153.076-.25-.197-.152h.241zm1.373 0 .076.251h.24l-.196.153.074.247-.197-.153-.194.153.074-.25-.197-.152h.243zm1.375 0 .074.251h.243l-.197.153.077.247-.197-.153-.197.153.076-.25-.197-.152h.241zm1.373 0 .076.251h.241l-.194.153.074.247-.197-.153-.195.153.074-.25-.195-.152h.241zm1.375 0 .074.251h.244l-.197.153.076.247-.197-.153-.197.153.076-.25-.197-.152h.244zm-6.183.63.074.249h.244l-.197.153.074.25-.195-.154-.197.152.074-.248-.195-.153h.243l.076-.249zm1.373 0 .076.249h.242l-.197.153.076.25-.197-.154-.197.152.076-.248-.197-.153h.244zm1.375 0 .074.249h.244l-.197.153.074.25-.195-.154-.197.152.074-.247-.195-.153h.242l.076-.249zm1.373 0 .076.249h.242l-.195.153.074.25-.197-.154-.195.152.074-.248-.197-.153h.246zm1.375 0 .074.249h.244l-.197.153.074.25-.195-.154-.197.152.074-.248-.195-.153h.242zm-6.185.63.077.249h.241l-.195.152.075.25-.198-.153-.194.153.074-.25-.197-.154h.245l.072-.246zm1.376 0 .074.249h.243l-.197.152.077.25-.197-.154-.197.153.076-.25-.197-.154h.241zm1.373 0 .076.249h.24l-.191.152.074.25-.197-.154-.195.153.074-.25-.197-.154h.244zm1.375 0 .074.249h.243l-.197.152.077.25-.197-.153-.197.153.076-.25-.197-.154h.241l.077-.246zm1.373 0 .076.249h.241l-.194.152.074.25-.197-.154-.195.153.074-.25-.195-.154h.241l.075-.246zm1.375 0 .074.249h.244l-.197.152.076.25-.197-.154-.197.153.076-.25-.197-.154h.244z" fill="#fff"/></g></svg>