<svg height="53" width="43" xmlns="http://www.w3.org/2000/svg" xmlns:xlink="http://www.w3.org/1999/xlink"><defs><path id="a" d="m20.515.939h-.033c-4.863 4.89-19.506 8.854-19.506 8.854 0 15.588.976 29.296 19.524 36.188 18.547-6.892 19.523-20.6 19.523-36.188 0 0-14.642-3.964-19.508-8.854z"/><filter id="b" height="200%" width="200%" x="-50%" y="-50%"><feMorphology in="SourceAlpha" operator="dilate" radius="1" result="shadowSpreadOuter1"/><feOffset dy="5" in="shadowSpreadOuter1" result="shadowOffsetOuter1"/><feComposite in="shadowOffsetOuter1" in2="SourceAlpha" operator="out" result="shadowOffsetOuter1"/><feColorMatrix in="shadowOffsetOuter1" values="0 0 0 0 0 0 0 0 0 0 0 0 0 0 0 0 0 0 0.17 0"/></filter></defs><g fill="none" fill-rule="evenodd"><g transform="translate(1 1)"><use fill="#000" filter="url(#b)" xlink:href="#a"/><use fill="#fff" stroke="#066796" stroke-linecap="round" stroke-linejoin="round" stroke-width="2" xlink:href="#a"/></g><path d="m27.357 16.98c0 3.243-2.622 5.875-5.857 5.875-3.237 0-5.857-2.632-5.857-5.875 0-3.245 2.62-5.875 5.857-5.875 3.235 0 5.857 2.63 5.857 5.875zm4.568 16.333h-20.851c0-5.776 4.668-10.458 10.426-10.458 5.76 0 10.425 4.682 10.425 10.457z" stroke="#0595db" stroke-linecap="round" stroke-linejoin="round" stroke-width="2"/></g></svg>