<svg xmlns="http://www.w3.org/2000/svg" width="24" height="25"><g fill="none" fill-rule="evenodd" stroke="#000" stroke-linejoin="round"><path d="M6.805 11.07a1.499 1.499 0 0 1-.973 1.883 1.498 1.498 0 0 1-1.884-.972L1.212 3.406a1.5 1.5 0 0 1 2.859-.91l2.734 8.573z"/><path stroke-linecap="round" d="M5 13l9.114-1.027a5 5 0 0 1 5.449 4.403L20.5 24.5"/><path d="M23.5 18a1.5 1.5 0 0 1-1.5 1.5H8.5a1.5 1.5 0 1 1 0-3H22a1.5 1.5 0 0 1 1.5 1.5z"/><path stroke-linecap="round" d="M5 13l2 4.5-5 7"/></g></svg>