<svg xmlns="http://www.w3.org/2000/svg" width="33" height="32"><g fill="none" fill-rule="evenodd" stroke="#0595DB" stroke-linejoin="round"><path d="M24 9.469C24 14.182 20.184 18 15.476 18 10.77 18 7 14.027 7 9.316c0-4.59 3.6-8.125 8.135-8.308.122-.005.245-.008.369-.008C20.21 1 24 4.756 24 9.469zM15 1c-4 4.809-4 11.082 0 17m1-17c4 4.81 4 11.082 0 17m-7-4h15M9 5h15M7 9h17"/><path stroke-linecap="round" d="M10 22.5a3.5 3.5 0 1 1-6.999.001A3.5 3.5 0 0 1 10 22.5zm10 0a3.5 3.5 0 1 1-6.999.001A3.5 3.5 0 0 1 20 22.5zm10 0a3.5 3.5 0 1 1-6.999.001A3.5 3.5 0 0 1 30 22.5zM26.609 26c-2.336 0-4.305 1.392-5.055 3.323-.749-1.93-2.718-3.315-5.054-3.315-2.336 0-4.305 1.388-5.054 3.318C10.696 27.396 8.727 26 6.39 26 3.413 26 1 28.496 1 31h31c0-2.504-2.413-5-5.391-5z"/></g></svg>