<svg height="32" width="32" xmlns="http://www.w3.org/2000/svg"><g fill="none" fill-rule="evenodd" stroke="#fff" stroke-linejoin="round"><path d="m24.667 9.3c0 4.806-3.891 8.7-8.691 8.7-4.799 0-8.643-4.051-8.643-8.855 0-4.679 3.671-8.284 8.295-8.47a8.75 8.75 0 0 1 .376-.009c4.799 0 8.663 3.83 8.663 8.635zm-9.04-8.624c-4.522 4.898-4.522 11.289 0 17.318m.753-17.319c4.523 4.898 4.523 11.288 0 17.316m-7.614-3.991h14.524m-14.686-9.333h14.724m-15.995 4.666h17.334"/><g stroke-linecap="round"><path d="m9.333 22.686a3.333 3.333 0 1 1 -6.665.001 3.333 3.333 0 0 1 6.665 0zm10 0a3.333 3.333 0 1 1 -6.665.001 3.333 3.333 0 0 1 6.665 0zm10 0a3.333 3.333 0 1 1 -6.665.001 3.333 3.333 0 0 1 6.665 0z"/><path d="m26 26.01c-2.31 0-4.259 1.482-5 3.538-.741-2.056-2.69-3.53-5-3.53s-4.259 1.478-5 3.532c-.741-2.054-2.69-3.54-5-3.54-2.947 0-5.333 2.656-5.333 5.323h30.666c0-2.667-2.386-5.324-5.333-5.324z"/></g></g></svg>