<svg xmlns="http://www.w3.org/2000/svg" width="24" height="24"><g fill="none" fill-rule="evenodd" stroke="#0595DB" stroke-linejoin="round"><path stroke-linecap="round" d="M23.5 21.5a2 2 0 0 1-2 2h-19a2 2 0 0 1-2-2v-19a2 2 0 0 1 2-2h19a2 2 0 0 1 2 2v19zm-23-16h23"/><path stroke-linecap="round" d="M4.5 3a.5.5 0 1 1-1 0 .5.5 0 0 1 1 0zm3 0a.5.5 0 1 1-1 0 .5.5 0 0 1 1 0zm3 0a.5.5 0 1 1-1 0 .5.5 0 0 1 1 0z"/><path d="M9.5 5.5v18"/><path stroke-linecap="round" d="M3.531 8.5h2.984m-2.984 2h2.984m-2.984 2h2.984m-2.984 2h2.984m-2.984 2h2.984m-2.984 2h2.984m-2.984 2h2.984m5.985-7h8v-5h-8zm0 5h3v-2h-3zm5 0h3v-2h-3z"/></g></svg>