<svg xmlns="http://www.w3.org/2000/svg" width="52" height="49"><path fill="none" stroke="#0595DB" stroke-linecap="round" stroke-linejoin="round" stroke-width="2.25" d="M42.957 33.452c1.874 0 3.39 1.504 3.39 3.358 0 1.855-1.516 3.357-3.39 3.357h-2.261c1.874 0 3.391 1.504 3.391 3.357 0 1.855-1.517 3.357-3.391 3.357H26c-9.043 0-6.783-4.476-24.87-4.476V22.262h6.783c7.913 0 16.957-7.211 16.957-17.905 0-3.538 6.782-3.986 6.782 2.728 0 4.477-2.26 12.939-2.26 12.939h18.086c1.875 0 3.392 1.504 3.392 3.357 0 1.855-1.517 3.357-3.392 3.357h-2.26c1.874 0 3.39 1.504 3.39 3.357 0 1.856-1.516 3.357-3.39 3.357h-2.261"/></svg>