<svg height="76" width="41" xmlns="http://www.w3.org/2000/svg" xmlns:xlink="http://www.w3.org/1999/xlink"><defs><path id="a" d="m39 63a6 6 0 0 1 -6 6h-27c-3.312 0-6-2.688-6-6v-57a6 6 0 0 1 6-6h27c3.315 0 6 2.685 6 6z"/><filter id="b" height="117.4%" width="117.9%" x="-9%" y="-5.1%"><feMorphology in="SourceAlpha" operator="dilate" radius="1" result="shadowSpreadOuter1"/><feOffset dy="5" in="shadowSpreadOuter1" result="shadowOffsetOuter1"/><feComposite in="shadowOffsetOuter1" in2="SourceAlpha" operator="out" result="shadowOffsetOuter1"/><feColorMatrix in="shadowOffsetOuter1" values="0 0 0 0 0.764705882 0 0 0 0 0.784313725 0 0 0 0 0.803921569 0 0 0 1 0"/></filter></defs><g fill="none" fill-rule="evenodd" stroke-linejoin="round"><g stroke-linecap="round" transform="translate(1 1)"><use fill="#000" filter="url(#b)" xlink:href="#a"/><use fill="#fff" stroke="#005b8d" stroke-width="2" xlink:href="#a"/></g><g stroke-width="2"><path d="m40 58h-39m39-45h-39m12-6h15" stroke="#005b8d" stroke-linecap="round"/><path d="m20.5 65.5c-.828 0-1.5-.675-1.5-1.5 0-.831.672-1.5 1.5-1.5s1.5.669 1.5 1.5c0 .825-.672 1.5-1.5 1.5z" stroke="#005b8d"/><path d="m22 20.5-12 18h9v12l12-18h-9z" stroke="#0595db"/></g></g></svg>