<svg height="24" width="24" xmlns="http://www.w3.org/2000/svg"><g fill="none" fill-rule="evenodd" stroke="#0595db" stroke-linejoin="round"><path d="m7 23.5h10l-5-10z"/><g stroke-linecap="round"><path d="m20.307 19.95a11.46 11.46 0 0 0 3.193-7.95c0-6.352-5.148-11.5-11.5-11.5-6.351 0-11.5 5.148-11.5 11.5a11.46 11.46 0 0 0 3.194 7.95"/><path d="m5.908 16.363a7.455 7.455 0 0 1 -1.408-4.363 7.5 7.5 0 0 1 15 0 7.462 7.462 0 0 1 -1.408 4.363"/><path d="m8.508 12.153c-.002-.052-.008-.103-.008-.153 0-1.957 1.6-3.5 3.5-3.5 1.904 0 3.5 1.545 3.5 3.5 0 .05-.006.101-.008.153m-3.492 1.347v-2"/></g><path d="m7.02 23.5 7.48-5m2.5 5-7.5-5m.77-1.5h3.46"/></g></svg>