<svg height="78" width="71" xmlns="http://www.w3.org/2000/svg" xmlns:xlink="http://www.w3.org/1999/xlink"><defs><path id="a" d="m15 24.905c0 1.668 1.341 3.021 3 3.021h3l9 9.064v-9.064h21c1.656 0 3-1.353 3-3.021v-21.149c0-1.668-1.344-3.021-3-3.021h-33c-1.659 0-3 1.353-3 3.021z"/><filter id="b" height="133.1%" width="117.9%" x="-9%" y="-9.7%"><feMorphology in="SourceAlpha" operator="dilate" radius="1" result="shadowSpreadOuter1"/><feOffset dy="5" in="shadowSpreadOuter1" result="shadowOffsetOuter1"/><feComposite in="shadowOffsetOuter1" in2="SourceAlpha" operator="out" result="shadowOffsetOuter1"/><feColorMatrix in="shadowOffsetOuter1" values="0 0 0 0 0.764705882 0 0 0 0 0.784313725 0 0 0 0 0.803921569 0 0 0 1 0"/></filter><path id="c" d="m64.5 41.566c0 4.173-3.357 7.553-7.5 7.553-4.146 0-7.5-3.38-7.5-7.553 0-4.172 3.354-7.553 7.5-7.553 4.143 0 7.5 3.38 7.5 7.553zm4.5 19.638h-24c0-6.674 5.37-12.085 12-12.085s12 5.411 12 12.085z"/><filter id="d" height="144.1%" width="129.2%" x="-14.6%" y="-12.9%"><feMorphology in="SourceAlpha" operator="dilate" radius="1" result="shadowSpreadOuter1"/><feOffset dy="5" in="shadowSpreadOuter1" result="shadowOffsetOuter1"/><feComposite in="shadowOffsetOuter1" in2="SourceAlpha" operator="out" result="shadowOffsetOuter1"/><feColorMatrix in="shadowOffsetOuter1" values="0 0 0 0 0.764705882 0 0 0 0 0.784313725 0 0 0 0 0.803921569 0 0 0 1 0"/></filter><path id="e" d="m19.5 41.566c0 4.173-3.357 7.553-7.5 7.553-4.146 0-7.5-3.38-7.5-7.553 0-4.172 3.354-7.553 7.5-7.553 4.143 0 7.5 3.38 7.5 7.553zm4.5 19.638h-24c0-6.674 5.37-12.084 12-12.084s12 5.411 12 12.085z"/><filter id="f" height="144.1%" width="129.2%" x="-14.6%" y="-12.9%"><feMorphology in="SourceAlpha" operator="dilate" radius="1" result="shadowSpreadOuter1"/><feOffset dy="5" in="shadowSpreadOuter1" result="shadowOffsetOuter1"/><feComposite in="shadowOffsetOuter1" in2="SourceAlpha" operator="out" result="shadowOffsetOuter1"/><feColorMatrix in="shadowOffsetOuter1" values="0 0 0 0 0.764705882 0 0 0 0 0.784313725 0 0 0 0 0.803921569 0 0 0 1 0"/></filter><path id="g" d="m42 50.63c0 4.172-3.357 7.553-7.5 7.553-4.146 0-7.5-3.38-7.5-7.553 0-4.172 3.354-7.553 7.5-7.553 4.143 0 7.5 3.38 7.5 7.553zm4.5 19.638h-24c0-6.674 5.37-12.085 12-12.085s12 5.411 12 12.085z"/><filter id="h" height="144.1%" width="129.2%" x="-14.6%" y="-12.9%"><feMorphology in="SourceAlpha" operator="dilate" radius="1" result="shadowSpreadOuter1"/><feOffset dy="5" in="shadowSpreadOuter1" result="shadowOffsetOuter1"/><feComposite in="shadowOffsetOuter1" in2="SourceAlpha" operator="out" result="shadowOffsetOuter1"/><feColorMatrix in="shadowOffsetOuter1" values="0 0 0 0 0.764705882 0 0 0 0 0.784313725 0 0 0 0 0.803921569 0 0 0 1 0"/></filter></defs><g fill="none" fill-rule="evenodd" stroke-linecap="round" stroke-linejoin="round" transform="translate(1 1)"><use fill="#000" filter="url(#b)" xlink:href="#a"/><use fill="#fff" stroke="#005b8d" stroke-width="2" xlink:href="#a"/><use fill="#000" filter="url(#d)" xlink:href="#c"/><use fill="#fff" stroke="#005b8d" stroke-width="2" xlink:href="#c"/><use fill="#000" filter="url(#f)" xlink:href="#e"/><use fill="#fff" stroke="#005b8d" stroke-width="2" xlink:href="#e"/><use fill="#000" filter="url(#h)" xlink:href="#g"/><g stroke-width="2"><use fill="#fff" stroke="#005b8d" xlink:href="#g"/><path d="m24 6.777h20.907m-20.907 6.043h20.907m-20.907 6.042h20.907" stroke="#0595db"/></g></g></svg>