<svg height="76" width="64" xmlns="http://www.w3.org/2000/svg"><g fill="none" fill-rule="evenodd"><path d="m29.435 7.75c-16.04 0-28.435 12.472-28.435 28.374 0 9.03 2.993 17.505 11.972 22.784v17.092h29.932v-10.318c5.986.033 9.033-.397 11.13-2.48 2.692-2.665 2.434-13.909 2.434-13.909s2.553.095 4.484.018c.67-.03 1.338-.365 1.721-.91.386-.547.263-1.205.314-1.87.345-4.766-6.423-12.944-6.423-15.32 0-14.93-14.22-23.461-27.13-23.461z" fill="#d9d9d9"/><g stroke-linejoin="round" stroke-width="2"><path d="m29.435 1c-16.04 0-28.435 12.472-28.435 28.374 0 9.03 2.993 17.505 11.972 22.784v17.092h29.932v-10.318c5.986.033 9.033-.397 11.13-2.48 2.692-2.665 2.434-13.909 2.434-13.909s2.553.095 4.484.018c.67-.03 1.338-.365 1.721-.91.386-.547.263-1.205.314-1.87.345-4.766-6.423-12.944-6.423-15.32 0-14.931-14.22-23.461-27.13-23.461z" fill="#fff" stroke="#24729f"/><path d="m29.732 42.25s15.122-10.803 15.122-18.803c0-9.228-12.373-12.147-15.122-.918-2.75-11.229-15.122-8.31-15.122.918 0 8 15.122 18.803 15.122 18.803z" stroke="#0595db"/></g></g></svg>