<svg width="124" height="85" xmlns="http://www.w3.org/2000/svg"><path d="M26.727 0c18.336 0 28.902 11.919 28.902 30.11 0 20.074-15.85 42.658-28.591 54.89h-16.16v-1.882c8.08-10.35 13.052-23.21 14.916-31.365C10.566 51.753 0 41.716 0 27.288 0 11.292 11.188 0 26.727 0zm68.37 0C113.435 0 124 11.919 124 30.11c0 20.074-15.85 42.658-28.591 54.89h-16.16v-1.882c8.08-10.35 13.052-23.21 14.916-31.365-15.228 0-25.794-10.037-25.794-24.465C68.37 11.292 79.559 0 95.098 0z" fill="#FFF" fill-rule="evenodd"/></svg>