<svg xmlns="http://www.w3.org/2000/svg" width="26" height="21"><g fill="none" fill-rule="evenodd" stroke="#0595DB" stroke-linejoin="round"><path stroke-linecap="round" d="M12.916 4c0-1.934 5.65-3.5 12.074-3.5V17c-6.423 0-12.074 1.566-12.074 3.5 0-1.934-5.652-3.5-12.074-3.5V.5C7.264.5 12.916 2.066 12.916 4zm0 0v16.375M10.172 6.24C8.405 5.623 5.905 5.177 3.037 5m7.135 4.24C8.405 8.623 5.905 8.177 3.037 8m7.135 4.24c-1.767-.617-4.267-1.063-7.135-1.24m7.135 4.24c-1.767-.617-4.267-1.063-7.135-1.24m12.623-1.76c1.768-.617 4.267-1.063 7.135-1.24m-7.135 4.24c1.768-.617 4.267-1.063 7.135-1.24"/><path d="M22.795.5V9L20.6 7l-2.196 2V1"/></g></svg>