<svg width="267" height="181" xmlns="http://www.w3.org/2000/svg"><path d="M62.346 181C22.793 181 0 155.62 0 116.882 0 74.137 34.19 26.048 61.676 0h34.86v4.007c-17.43 22.041-28.156 49.425-32.178 66.79C97.207 70.797 120 92.17 120 122.893 120 156.956 95.866 181 62.346 181zm147 0C169.793 181 147 155.62 147 116.882 147 74.137 181.19 26.048 208.676 0h34.86v4.007c-17.43 22.041-28.156 49.425-32.178 66.79 32.849 0 55.642 21.373 55.642 52.096C267 156.956 242.866 181 209.346 181z" fill="#FFF" fill-rule="evenodd"/></svg>