<svg xmlns="http://www.w3.org/2000/svg" width="32" height="30"><g fill="none" fill-rule="evenodd" stroke="#fff" stroke-linecap="round" stroke-linejoin="round"><path d="M15.333 20.667h-4c-2.116 0-3.829-.982-3.972-3.062C5.76 19.076.667 16 .667 11.333c0-4.665 4.293-7.78 6.01-6.772a3.995 3.995 0 0 1 3.99-3.894c1.201 0 2.266.54 3 1.378a3.973 3.973 0 0 1 3-1.378 3.989 3.989 0 0 1 3.741 2.622A3.978 3.978 0 0 1 23.333 2a4 4 0 0 1 4 4 4 4 0 0 1 4 4 3.97 3.97 0 0 1-1.38 3 3.975 3.975 0 0 1 1.219 4.143 3.945 3.945 0 0 1-2.476 2.62 3.955 3.955 0 0 1-3.437-.358A3.99 3.99 0 0 1 22 22.6v6.068h-4V22.62c0-2.55 2.07-4.62 4.62-4.62h.047"/><path d="M18.03 23.447A3.973 3.973 0 0 1 16 24c-3.333 0-4.777-1.792-5.333-3.333M30 13.333s-5.333 2-8.667-1.333m-20-3.279s6-.666 7.334 2.667M14 2v3.333a2 2 0 0 0 4 0M14 2v3.333a2 2 0 0 1-4 0m2 15.334s-.667-6 3.333-7.334m10.667 0s1.333-2.666 0-4.666"/></g></svg>