<?xml version="1.0" encoding="UTF-8"?>
<svg width="21px" height="16px" viewBox="0 0 21 16" version="1.1" xmlns="http://www.w3.org/2000/svg" xmlns:xlink="http://www.w3.org/1999/xlink">
    <title>Group 5</title>
    <g id="Page-1" stroke="none" stroke-width="1" fill="none" fill-rule="evenodd" stroke-linecap="round" stroke-linejoin="round">
        <g id="1B_Customer-Stories---Not-Filtered_Dropdown" transform="translate(-1078.000000, -913.000000)" stroke="#FFFFFF" stroke-width="1.125">
            <g id="Saga-Featured" transform="translate(253.000000, 662.000000)">
                <g id="Group-7" transform="translate(826.000000, 251.000000)">
                    <g id="Group-5" transform="translate(0.000000, 1.500000)">
                        <path d="M7.87789257,11.6629533 L7.06608634,12.4239834 C5.53567482,13.8586722 3.05322016,13.8586722 1.52280864,12.4239834 C-0.00760288029,10.9892946 -0.00760288029,8.66211021 1.52280864,7.22742142 L5.68026692,3.32918338 C7.20893636,1.89286148 9.69139102,1.88959526 11.2235446,3.32346749 C12.5902012,4.60137753 12.7609244,6.62235347 11.6250925,8.08562171" id="Stroke-1"></path>
                        <path d="M11.7802338,1.68867891 L12.4335665,1.07617296 C13.9641072,-0.35872432 16.4459004,-0.35872432 17.9764411,1.07617296 C19.507853,2.51107024 19.507853,4.83859286 17.9764411,6.27349014 L13.8195029,10.171478 C12.2898333,11.6080087 9.80716907,11.609642 8.27575723,10.1755614 C6.90985633,8.89746565 6.73911872,6.87701268 7.8750465,5.41353179" id="Stroke-3"></path>
                    </g>
                </g>
            </g>
        </g>
    </g>
</svg>