<svg viewBox="0 0 599 187" xmlns="http://www.w3.org/2000/svg"><path d="m161.5 186.1h-135.8c-13.6 0-24.7-11.1-24.7-24.7v-135.8c0-13.6 11.1-24.7 24.7-24.7h135.8c13.6 0 24.7 11.1 24.7 24.7v135.8c.1 13.6-11.1 24.7-24.7 24.7z" fill="#fff"/><path d="m598 60h-19.9l-7.5 15.1-7.5-15.1h-19.9l17 33.5-17 33.5h19.9l7.5-15.1 7.5 15.1h19.9l-17-33.5zm-242.4 49.5c-.1 2.8-2.3 5.1-5.1 6-.1 0-.2 0-.3.1-.7.2-1.4.3-2.1.3-4 0-6.9-1.9-7.5-6.3-.6-4.5-.6-12.9-.6-12.9h35.4c0-5.2.4-10-.1-14.5-.5-4.4-1.7-8.3-3.5-11.5-1.9-3.2-4.7-5.8-8.4-7.7s-8.8-2.8-15.1-2.8c-6.2 0-11.2.9-14.8 2.6-3.7 1.8-6.4 4.1-8.3 7.1s-3.1 6.5-3.6 10.4c-.5 4-.8 8.2-.8 12.6 0 5 .3 9.7.9 13.9s1.8 7.9 3.7 10.9 4.7 5.4 8.3 7.1 8.5 2.6 14.6 2.6c4.4 0 8.3-.6 11.6-1.7s6.1-2.6 8.3-4.6c4.5-3.9 7.2-8.9 7.2-14.3h-19.8c0-.1.1.8 0 2.7zm-14.9-31c.4-4 3.4-7.2 7.5-7.2s7.1 2.6 7.5 7.2c.3 4.1.2 4.5.1 8h-15.6c.2-5.2.2-5.1.5-8zm-30.5-10.3c-1-1.7-2.3-3.2-3.9-4.4s-3.5-2.1-5.6-2.8c-2.2-.6-4.4-1-6.8-1-4.1 0-7.7.7-10.6 2s-5.5 3.4-7.9 6.2c-1.6-2.6-3.8-4.6-6.5-6s-5.9-2.2-9.4-2.2c-3.8 0-7 .6-9.7 1.7-2.7 1.2-5.1 3.2-7 6.1h-.3v-7.8h-19.9v66.9h19.9v-48.2c0-4 3.4-7.2 7.5-7.2s7.4 3.2 7.5 7.2v48.2h19.8v-48c0-4 3.4-7.2 7.5-7.2s7.4 3.2 7.5 7.2v48.1h19.9v-51.9c-.1-2.2-1-5.1-2-6.9z" fill="#fff"/><path d="m166.6 60h-19.9l-7.5 15.1-7.5-15.1h-19.9l17 33.5-15.4 30.3v-48.7c0-2.2-.9-5.2-1.9-6.9s-2.3-3.2-3.9-4.4-3.5-2.1-5.6-2.8c-2.2-.6-4.4-1-6.8-1-4.1 0-7.7.7-10.6 2s-5.5 3.4-7.9 6.2c-1.6-2.6-3.8-4.6-6.5-6-2.7-1.5-5.9-2.2-9.4-2.2-3.8 0-7 .6-9.7 1.7-2.7 1.2-5.1 3.2-7 6.1h-.3v-7.8h-19.9v67h19.9v-48.2c0-4 3.4-7.2 7.5-7.2s7.4 3.2 7.5 7.2v48.2h19.8v-48.1c0-4 3.4-7.2 7.5-7.2s7.4 3.2 7.5 7.2v48.1h38.1l7.5-15.1 7.5 15.1h19.9l-17-33.5z" fill="#0595db"/><path d="m437.7 68.2c-1-1.7-2.3-3.2-3.9-4.4s-3.5-2.1-5.6-2.8c-2.2-.6-4.4-1-6.8-1-3.9 0-7.1.6-9.7 1.8-2.8 1.2-5.2 3.2-7 6h-.3v-7.8h-19.9v66.9h19.9v-48.1c0-4 3.4-7.2 7.5-7.2s7.4 3.2 7.5 7.2v48.1h19.9v-52.8c-.1-2.1-.6-4.1-1.6-5.9zm65.1-18c0-9.3-7.8-17-17.8-17.9-.7-.1-1.3-.1-2-.1v32.9c-1.7-1.8-3.5-3.1-5.5-3.9-2.7-1.1-5.8-1.7-9.5-1.7-5.1 0-9.1 1.1-11.8 3.4-2.8 2.3-4.7 5.1-6 8.6-1.2 3.4-1.9 7.2-2 11.2-.1 3.2-.2 6.1-.2 8.8v2.1c0 3.4.1 7.2.2 11.3.2 4.1.8 7.9 2 11.4s3.2 6.5 6 8.8c2.8 2.4 6.9 3.6 12.2 3.6 4 0 7.4-.6 10.2-1.9 1.6-.7 3-1.7 4.3-3.1v3.4h19.9zm-19.8 31.7v28.7c-.2 2.9-2.2 5.3-5 6.2-.7.3-1.4.4-2.2.4h-.2s-9.4 1.8-9.4-23.1c0-11.9 2.2-17.7 4.4-20.5.2-.3.5-.6.7-.9.4-.4.8-.7 1.2-.8 1.7-1.1 3.1-.8 3.1-.8 1.3 0 2.5.4 3.6 1 .1 0 .1.1.2.1 2.2 1.3 3.7 3.7 3.7 6.5v3.2zm51.8-1.1v46.2h-19.9v-67h19.9zm-3.1-30.6h-13.6c-1.7 0-3.1-1.4-3.1-3.1v-11.8c0-1.7 1.4-3.1 3.1-3.1h13.6c1.7 0 3.1 1.4 3.1 3.1v11.8c0 1.7-1.4 3.1-3.1 3.1z" fill="#fff"/></svg>