<svg height="69" width="63" xmlns="http://www.w3.org/2000/svg" xmlns:xlink="http://www.w3.org/1999/xlink"><mask id="a" fill="#fff"><path d="m0 .16h62.919v63.721h-62.919z" fill="#fff" fill-rule="evenodd"/></mask><mask id="b" fill="#fff"><path d="m.213.095h7.257v7.359h-7.257z" fill="#fff" fill-rule="evenodd"/></mask><mask id="c" fill="#fff"><path d="m.076.095h7.483v7.359h-7.483z" fill="#fff" fill-rule="evenodd"/></mask><mask id="d" fill="#fff"><path d="m.16.219h5.668v7.448h-5.668z" fill="#fff" fill-rule="evenodd"/></mask><g fill="none" fill-rule="evenodd"><path d="m10.546.16c-5.815 0-10.546 4.34-10.546 9.675v44.37c0 5.304 4.676 9.62 10.444 9.671v-2.864c-4.197-.049-7.595-3.081-7.595-6.808v-44.37c0-3.754 3.452-6.81 7.697-6.81h41.828c4.244 0 7.697 3.056 7.697 6.81v44.37c0 3.757-3.453 6.813-7.697 6.813l-.01 2.864c5.824 0 10.555-4.34 10.555-9.677v-44.37c.001-5.334-4.729-9.674-10.545-9.674z" fill="#1f93d1" mask="url(#a)"/><path d="m6.811 55.37h49.378v13.63h-49.378z" fill="#fff"/><g fill="#1f93d1"><g transform="translate(8.514 57.926)"><path d="m6.527 3.774c0-1.663-1.052-2.89-2.685-2.89-1.644 0-2.686 1.227-2.686 2.89 0 1.653 1.042 2.89 2.686 2.89 1.633 0 2.685-1.237 2.685-2.89m-6.314 0c0-2.1 1.459-3.679 3.629-3.679 2.16 0 3.628 1.579 3.628 3.68 0 2.1-1.469 3.679-3.628 3.679-2.17 0-3.629-1.579-3.629-3.68" mask="url(#b)"/><path d="m12.881 7.667-3.599-6.115v6.115h-.768v-7.667h.786l3.554 5.988v-5.988h.768v7.667zm7.127 0v-6.817h-2.13v-.85h5.108v.85h-2.14v6.817z"/><path d="m6.587 3.774c0-1.663-1.085-2.89-2.769-2.89-1.696 0-2.77 1.227-2.77 2.89 0 1.653 1.074 2.89 2.77 2.89 1.684 0 2.77-1.237 2.77-2.89m-6.512 0c0-2.1 1.504-3.679 3.742-3.679 2.227 0 3.741 1.579 3.741 3.68 0 2.1-1.514 3.679-3.741 3.679-2.238 0-3.742-1.579-3.742-3.68" mask="url(#c)" transform="translate(22.986)"/><path d="m.16 4.694v-4.475h.865v4.453c0 1.338.687 2.183 1.969 2.183s1.97-.845 1.97-2.183v-4.452h.864v4.464c0 1.821-.948 2.984-2.834 2.984-1.886-.001-2.834-1.175-2.834-2.974" mask="url(#d)" transform="translate(31.5)"/><path d="m44.14 2.31c0-.862-.57-1.46-1.403-1.46h-1.847v2.931h1.847c.833 0 1.403-.608 1.403-1.47zm-.053 5.357-1.794-3.047h-1.403v3.046h-.876v-7.666h2.828c1.288 0 2.206.896 2.206 2.31 0 1.38-.866 2.138-1.826 2.23l1.9 3.127z"/></g><path d="m57.04 18.74h-6.996l-2.653 5.368-2.652-5.367h-6.997l5.987 11.926-5.407 10.77v-17.307c0-.79-.322-1.835-.671-2.457a5.03 5.03 0 0 0 -1.364-1.573 6.222 6.222 0 0 0 -1.985-.98 8.26 8.26 0 0 0 -2.382-.342c-1.456 0-2.697.236-3.722.707-1.026.471-1.952 1.208-2.778 2.21a5.968 5.968 0 0 0 -2.284-2.143c-.96-.515-2.067-.774-3.324-.774-1.323 0-2.465.205-3.424.615-.96.411-1.787 1.134-2.482 2.165h-.098v-2.78h-6.998v23.814h6.997v-15.863c0-.049.005-.093.005-.141v-1.122h.002c.012-1.42 1.182-2.568 2.626-2.568 1.443 0 2.613 1.148 2.625 2.568h.002v1.174h-.004c0 .03.004.058.004.09v15.863h6.998v-17.127h.002c.012-1.42 1.181-2.568 2.625-2.568s2.613 1.148 2.625 2.568h.002v1.174l.006 15.952h13.414l2.652-5.366 2.653 5.367h6.997l-5.988-11.926 5.988-11.926z"/></g></g></svg>