<?xml version="1.0" encoding="UTF-8"?>
<svg width="69px" height="69px" viewBox="0 0 69 69" version="1.1" xmlns="http://www.w3.org/2000/svg" xmlns:xlink="http://www.w3.org/1999/xlink">
    <g id="Page-1" stroke="none" stroke-width="1" fill="none" fill-rule="evenodd">
        <g id="Master-Class" transform="translate(-479.000000, -199.000000)" fill="#FFFFFF">
            <g id="Group-3" transform="translate(479.000000, 199.000000)">
                <path d="M59.7971473,69 L9.20261958,69 C4.13503409,69 1.20792265e-13,64.8649519 1.20792265e-13,59.7973493 L1.20792265e-13,9.20265067 C1.20792265e-13,4.13504806 4.13503409,5.68434189e-14 9.20261958,5.68434189e-14 L59.7971473,5.68434189e-14 C64.8647328,5.68434189e-14 68.9997668,4.13504806 68.9997668,9.20265067 L68.9997668,59.7973493 C69.0359122,64.8649519 64.8647328,69 59.7971473,69 Z M60.6158406,22.6679431 L53.3427889,22.6679431 L50.6016534,28.3868655 L47.8605178,22.6679431 L40.5856931,22.6679431 L46.8002338,35.3550224 L41.1707996,46.8296093 L41.1707996,29.4836199 L41.1707996,28.3868655 C41.1707996,27.5528177 40.8410123,26.4174839 40.4757639,25.7726584 C40.1105156,25.12967 39.6353382,24.5620032 39.0502316,24.1064 C38.4651251,23.6526339 37.7718625,23.3109315 37.0041317,23.0463877 C36.199167,22.8204232 35.3959753,22.6679431 34.5183154,22.6679431 C33.0200881,22.6679431 31.7044848,22.9324869 30.6442008,23.4248323 C29.5839169,23.9171777 28.633562,24.7126462 27.7559021,25.7726584 C27.1707956,24.7879677 26.3676039,24.0310785 25.3800149,23.5001538 C24.3941991,22.9324869 23.223986,22.6679431 21.9438437,22.6679431 C20.5555455,22.6679431 19.3871054,22.8957447 18.3995165,23.3109315 C17.4119276,23.7665347 16.5360408,24.5234239 15.8410051,25.6220154 L15.731076,25.6220154 L15.731076,22.6679431 L8.45802428,22.6679431 L8.45802428,48.0421017 L15.731076,48.0421017 L15.731076,29.786743 C15.731076,28.2729647 16.9739842,27.0604723 18.4722115,27.0604723 C19.9704389,27.0604723 21.176113,28.2729647 21.2133471,29.786743 L21.2133471,48.0421017 L28.3037746,48.0421017 L28.4509378,48.0421017 L28.4509378,30.0145446 L28.4509378,29.8253223 C28.4509378,28.3097069 29.693846,27.0990516 31.1920733,27.0990516 C32.6903007,27.0990516 33.8977479,28.3097069 33.9332089,29.8253223 L33.9332089,48.0421017 L40.5856931,48.0421017 L47.8605178,48.0421017 L50.6016534,42.3231793 L53.3427889,48.0421017 L60.6158406,48.0421017 L54.4030729,35.3550224 L60.6158406,22.6679431 Z" id="Combined-Shape"></path>
            </g>
        </g>
    </g>
</svg>