<svg xmlns="http://www.w3.org/2000/svg" width="24" height="22" viewBox="0 0 24 22">
	<path fill="#376CCE" fill-rule="evenodd" d="M5.24117647,6.98823529 L0.292470588,6.98823529 L0.292470588,21.4849412 L5.24117647,21.4849412 L5.24117647,6.98823529 Z M5.56729412,2.50411765 C5.53494118,1.08317647 4.49317647,0 2.80047059,0 C1.10647059,0 0,1.08317647 0,2.50411765 C0,3.89529412 1.07411765,5.00823529 2.73576471,5.00823529 L2.76682353,5.00823529 C4.49317647,5.00823529 5.56729412,3.89529412 5.56729412,2.50282353 L5.56729412,2.50411765 Z M23.0896471,13.1728235 C23.0896471,8.72105882 20.6476471,6.64788235 17.3916471,6.64788235 C14.7645882,6.64788235 13.5869412,8.05458824 12.9308235,9.042 L12.9308235,6.98823529 L7.98082353,6.98823529 C8.04552941,8.34964706 7.98082353,21.4849412 7.98082353,21.4849412 L12.9308235,21.4849412 L12.9308235,13.3889412 C12.9308235,12.9567059 12.9631765,12.5244706 13.0938824,12.2138824 C13.4510588,11.3481176 14.2663529,10.4525882 15.6329412,10.4525882 C17.424,10.4525882 18.1409412,11.7816471 18.1409412,13.7292941 L18.1409412,21.4849412 L23.0896471,21.4849412 L23.0896471,13.1741176 L23.0896471,13.1728235 Z"/>
</svg>
