<?xml version="1.0" encoding="UTF-8"?>
<svg width="525px" height="102px" viewBox="0 0 525 102" version="1.1" xmlns="http://www.w3.org/2000/svg" xmlns:xlink="http://www.w3.org/1999/xlink">
    <!-- Generator: Sketch 54.1 (76490) - https://sketchapp.com -->
    <title>Master Class SVG</title>
    <desc>Created with Sketch.</desc>
    <defs>
        <polygon id="path-1" points="0 0 69 0 69 69 0 69"></polygon>
    </defs>
    <g id="Page-1" stroke="none" stroke-width="1" fill="none" fill-rule="evenodd">
        <g id="Master-Class" transform="translate(-479.000000, -199.000000)">
            <g id="Master-Class-SVG" transform="translate(479.000000, 199.000000)">
                <path d="M298.544,78.376 C299.744,78.376 300.872,79.024 301.376,79.6 L300.848,80.824 L300.8,80.824 C300.488,80.416 299.576,79.672 298.664,79.672 C297.752,79.672 297.344,80.2 297.344,81.184 L297.344,83.56 L300.968,83.56 L300.968,84.76 L297.344,84.76 L297.344,97 L296.024,97 L296.024,84.76 L293.6,84.76 L293.6,83.56 L296.024,83.56 L296.024,80.92 C296.024,79.36 297.032,78.376 298.544,78.376 Z M307.568,83.272 C311.264,83.272 313.616,86.536 313.616,90.472 C313.616,94.456 311.48,97.288 307.592,97.288 C303.704,97.288 301.496,94.432 301.496,90.472 C301.496,86.56 303.872,83.272 307.568,83.272 Z M307.568,84.472 C304.496,84.472 302.816,87.256 302.816,90.472 C302.816,93.616 304.544,96.016 307.592,96.016 C310.64,96.016 312.296,93.64 312.296,90.472 C312.296,87.232 310.64,84.472 307.568,84.472 Z M320.72,83.272 C321.68,83.272 322.496,83.68 322.904,84.112 L322.616,85.552 L322.544,85.552 C322.112,84.952 321.464,84.568 320.744,84.568 C319.256,84.568 318.056,86.152 318.056,89.464 L318.056,97 L316.736,97 L316.736,83.56 L317.816,83.56 L318.056,85.336 L318.104,85.336 C318.152,85.096 318.848,83.272 320.72,83.272 Z M343.544,90.808 C343.544,94.6 341.672,97.288 337.424,97.288 C333.176,97.288 331.304,94.6 331.304,90.808 L331.304,80.2 L332.744,80.2 L332.744,90.616 C332.744,93.904 334.28,95.92 337.424,95.92 C340.568,95.92 342.104,93.904 342.104,90.616 L342.104,80.2 L343.544,80.2 L343.544,90.808 Z M353.096,83.272 C356.144,83.272 357.8,85.336 357.8,88.264 L357.8,97 L356.48,97 L356.48,88.504 C356.48,85.864 355.16,84.472 353.024,84.472 C350.576,84.472 348.704,86.656 348.704,89.656 L348.704,97 L347.384,97 L347.384,83.56 L348.584,83.56 L348.824,85.48 L348.872,85.48 C349.688,84.232 351.224,83.272 353.096,83.272 Z M362.072,79.144 C362.888,79.144 363.32,79.624 363.32,80.416 C363.32,81.16 362.888,81.664 362.072,81.664 C361.256,81.664 360.824,81.16 360.824,80.416 C360.824,79.624 361.256,79.144 362.072,79.144 Z M361.4,97 L361.4,83.56 L362.72,83.56 L362.72,97 L361.4,97 Z M369.92,97 L365.24,83.56 L366.68,83.56 L370.88,95.752 L370.928,95.752 L375.128,83.56 L376.568,83.56 L371.888,97 L369.92,97 Z M383.84,83.272 C387.08,83.272 389.552,85.72 389.552,90.16 C389.552,90.424 389.528,90.784 389.528,90.784 L379.208,90.784 C379.352,94 381.176,96.016 383.936,96.016 C386.288,96.016 387.656,94.528 388.4,93.376 L388.448,93.376 L389.216,94.576 C388.088,96.232 386.12,97.288 383.984,97.288 C379.904,97.288 377.888,94.336 377.888,90.232 C377.888,86.128 380.6,83.272 383.84,83.272 Z M383.84,84.472 C381.416,84.472 379.496,86.512 379.256,89.536 L388.232,89.536 C388.04,86.056 386.168,84.472 383.84,84.472 Z M396.656,83.272 C397.616,83.272 398.432,83.68 398.84,84.112 L398.552,85.552 L398.48,85.552 C398.048,84.952 397.4,84.568 396.68,84.568 C395.192,84.568 393.992,86.152 393.992,89.464 L393.992,97 L392.672,97 L392.672,83.56 L393.752,83.56 L393.992,85.336 L394.04,85.336 C394.088,85.096 394.784,83.272 396.656,83.272 Z M405.272,83.272 C407.912,83.272 409.544,84.784 410.24,85.984 L409.424,87.064 L409.376,87.064 C408.512,85.6 407.288,84.472 405.272,84.472 C403.112,84.472 402.368,85.816 402.368,86.776 C402.368,87.88 402.968,88.672 406.16,89.488 C409.568,90.352 410.744,91.6 410.744,93.664 C410.744,95.8 408.8,97.288 406.208,97.288 C403.544,97.288 401.336,95.704 400.496,94.096 L401.36,92.968 L401.408,92.968 C402.488,94.768 403.952,96.016 406.184,96.016 C408.392,96.016 409.4,94.792 409.4,93.664 C409.4,92.296 408.848,91.384 405.44,90.544 C402.224,89.752 401.048,88.672 401.048,86.776 C401.048,85.024 402.512,83.272 405.272,83.272 Z M414.536,79.144 C415.352,79.144 415.784,79.624 415.784,80.416 C415.784,81.16 415.352,81.664 414.536,81.664 C413.72,81.664 413.288,81.16 413.288,80.416 C413.288,79.624 413.72,79.144 414.536,79.144 Z M413.864,97 L413.864,83.56 L415.184,83.56 L415.184,97 L413.864,97 Z M425.048,83.56 L425.048,84.76 L421.232,84.76 L421.232,94.288 C421.232,95.56 421.76,95.944 422.432,95.944 C423.032,95.944 423.728,95.632 424.136,95.344 L424.16,95.344 L424.52,96.664 C424.088,96.976 423.2,97.288 422.336,97.288 C421.088,97.288 419.912,96.52 419.912,94.744 L419.912,84.76 L417.824,84.76 L417.824,83.848 C419.216,83.32 420.152,81.808 420.512,80.2 L421.232,80.2 L421.232,83.56 L425.048,83.56 Z M429.32,101.44 L431.216,96.064 L426.488,83.56 L428.048,83.56 L431.864,94.192 L431.912,94.192 L435.392,83.56 L436.952,83.56 L430.76,101.44 L429.32,101.44 Z M447.032,81.52 L447.032,88 L455.288,88 L455.288,89.2 L447.032,89.2 L447.032,97 L445.592,97 L445.592,80.2 L455.384,80.2 L455.384,81.52 L447.032,81.52 Z M463.28,83.272 C465.704,83.272 467.624,84.544 467.624,86.8 L467.624,97 L466.424,97 L466.208,95.224 L466.16,95.224 C465.296,96.424 463.856,97.288 461.984,97.288 C459.656,97.288 458.216,95.68 458.216,93.616 C458.216,91.792 459.272,90.208 462.56,89.536 C465.848,88.864 466.328,87.976 466.328,86.8 C466.328,85.432 465.224,84.472 463.28,84.472 C461.336,84.472 459.776,85.72 459.056,87.376 L459.008,87.376 L458.144,86.224 C458.984,84.64 460.856,83.272 463.28,83.272 Z M466.256,89.152 C465.896,89.656 465.368,90.16 462.8,90.712 C460.232,91.264 459.536,92.296 459.536,93.616 C459.536,94.936 460.304,96.016 461.984,96.016 C464.048,96.016 466.304,94.48 466.304,92.512 L466.304,89.152 L466.256,89.152 Z M476.576,83.272 C479.432,83.272 481.16,85.216 481.808,86.896 L480.776,87.832 L480.728,87.832 C480.008,85.912 478.712,84.472 476.552,84.472 C473.504,84.472 471.824,87.256 471.824,90.472 C471.824,93.616 473.552,96.016 476.576,96.016 C479.24,96.016 480.488,94.192 480.944,92.032 L480.992,92.032 L482.12,92.896 C481.448,95.416 479.552,97.288 476.6,97.288 C472.712,97.288 470.504,94.432 470.504,90.472 C470.504,86.488 472.88,83.272 476.576,83.272 Z M493.136,97 L492.896,95.056 L492.848,95.056 C492.128,96.232 490.64,97.288 488.864,97.288 C485.96,97.288 484.4,95.464 484.4,92.776 L484.4,83.56 L485.72,83.56 L485.72,92.536 C485.72,94.936 486.944,96.016 488.84,96.016 C491.24,96.016 492.992,94.12 492.992,91.768 L492.992,83.56 L494.312,83.56 L494.312,97 L493.136,97 Z M497.672,97 L497.672,79.192 L498.992,79.192 L498.992,97 L497.672,97 Z M508.856,83.56 L508.856,84.76 L505.04,84.76 L505.04,94.288 C505.04,95.56 505.568,95.944 506.24,95.944 C506.84,95.944 507.536,95.632 507.944,95.344 L507.968,95.344 L508.328,96.664 C507.896,96.976 507.008,97.288 506.144,97.288 C504.896,97.288 503.72,96.52 503.72,94.744 L503.72,84.76 L501.632,84.76 L501.632,83.848 C503.024,83.32 503.96,81.808 504.32,80.2 L505.04,80.2 L505.04,83.56 L508.856,83.56 Z M513.128,101.44 L515.024,96.064 L510.296,83.56 L511.856,83.56 L515.672,94.192 L515.72,94.192 L519.2,83.56 L520.76,83.56 L514.568,101.44 L513.128,101.44 Z" id="forUniversityFaculty" fill="#FFFFFF" fill-rule="nonzero"></path>
                <path d="M144.83,61 L144.83,18.368 L144.684,18.368 L130.814,61 L121.616,61 L107.746,18.368 L107.6,18.368 L107.6,61 L98.475,61 L98.475,9.9 L113.878,9.9 L126.069,48.371 L126.288,48.371 L138.479,9.9 L153.955,9.9 L153.955,61 L144.83,61 Z M178.195978,19.244 C187.539978,19.244 193.817978,24.573 193.817978,33.698 L193.817978,61 L186.882978,61 L185.933978,55.598 L185.714978,55.598 C183.378978,59.467 179.290978,61.876 173.669978,61.876 C165.566978,61.876 161.478978,57.423 161.478978,50.561 C161.478978,44.21 164.690978,39.757 174.107978,37.713 C183.743978,35.742 185.203978,34.428 185.203978,31.873 C185.203978,29.099 183.013978,27.055 178.122978,27.055 C173.304978,27.055 169.289978,30.413 166.734978,34.793 L166.296978,34.793 L161.770978,27.566 C165.128978,22.748 170.895978,19.244 178.195978,19.244 Z M185.057978,40.779 C184.254978,42.312 181.918978,43.188 176.662978,44.429 C171.333978,45.67 169.946978,47.495 169.946978,49.904 C169.946978,52.532 171.917978,54.065 175.056978,54.065 C180.166978,54.065 185.203978,50.853 185.203978,46.546 L185.203978,40.779 L185.057978,40.779 Z M215.211955,19.244 C223.679955,19.244 229.446955,24.062 231.563955,26.836 L227.694955,34.136 L227.256955,34.136 C224.336955,30.121 219.810955,27.055 215.211955,27.055 C211.196955,27.055 209.152955,29.245 209.152955,31.435 C209.152955,33.479 209.663955,34.793 218.496955,37.056 C228.132955,39.465 232.877955,42.385 232.877955,49.904 C232.877955,57.204 226.234955,61.876 217.474955,61.876 C208.787955,61.876 202.509955,57.788 199.516955,54.065 L203.458955,46.546 L203.896955,46.546 C206.889955,50.342 211.634955,53.773 216.963955,53.773 C222.146955,53.773 224.263955,52.167 224.263955,49.612 C224.263955,47.276 223.168955,46.108 213.897955,43.699 C204.845955,41.436 200.684955,37.859 200.684955,31.362 C200.684955,25.011 205.940955,19.244 215.211955,19.244 Z M261.790933,20.12 L261.790933,28.15 L250.110933,28.15 L250.110933,49.539 C250.110933,52.094 251.205933,52.97 253.030933,52.97 C254.855933,52.97 256.826933,51.948 258.140933,50.999 L258.578933,50.999 L260.695933,59.394 C258.943933,60.562 255.220933,61.876 251.570933,61.876 C246.095933,61.876 241.350933,58.883 241.350933,51.802 L241.350933,28.15 L234.780933,28.15 L234.780933,23.04 C240.036933,20.777 243.175933,15.813 244.781933,9.9 L250.037933,9.9 L250.037933,20.12 L261.790933,20.12 Z M282.81991,19.244 C293.40491,19.244 301.50791,27.712 301.50791,40.195 C301.50791,41.436 301.43491,43.188 301.43491,43.188 L272.81891,43.188 C272.96491,49.174 277.19891,53.7 283.47691,53.7 C288.87891,53.7 293.25891,49.904 295.15691,46.911 L295.59491,46.911 L299.53691,54.722 C297.41991,57.788 291.50691,61.876 283.47691,61.876 C271.28591,61.876 263.83991,53.262 263.83991,40.633 C263.83991,27.931 272.30791,19.244 282.81991,19.244 Z M282.81991,27.274 C276.97991,27.274 273.69491,32.019 273.03791,36.253 L292.38291,36.253 C292.01791,31.581 288.51391,27.274 282.81991,27.274 Z M324.726888,19.244 C327.719888,19.244 330.347888,20.558 331.588888,22.091 L330.055888,30.851 L329.617888,30.851 C328.449888,29.464 326.186888,28.15 323.704888,28.15 C318.959888,28.15 316.696888,32.384 316.696888,39.1 L316.696888,61 L307.936888,61 L307.936888,20.12 L315.309888,20.12 L315.966888,25.522 L316.185888,25.522 C317.791888,21.361 321.003888,19.244 324.726888,19.244 Z M374.230843,9.024 C384.815843,9.024 391.020843,15.813 393.648843,21.726 L387.151843,28.296 L386.713843,28.296 C384.158843,21.872 380.581843,17.565 374.230843,17.565 C365.543843,17.565 360.141843,25.887 360.141843,35.45 C360.141843,45.159 364.813843,53.116 374.011843,53.116 C380.581843,53.116 385.253843,48.371 387.224843,40.195 L387.662843,40.195 L395.400843,46.254 C392.480843,55.452 384.742843,61.876 373.938843,61.876 C358.024843,61.876 350.797843,49.32 350.797843,35.596 C350.797843,21.58 360.068843,9.024 374.230843,9.024 Z M400.004821,61 L400.004821,6.834 L408.764821,6.834 L408.764821,61 L400.004821,61 Z M432.275798,19.244 C441.619798,19.244 447.897798,24.573 447.897798,33.698 L447.897798,61 L440.962798,61 L440.013798,55.598 L439.794798,55.598 C437.458798,59.467 433.370798,61.876 427.749798,61.876 C419.646798,61.876 415.558798,57.423 415.558798,50.561 C415.558798,44.21 418.770798,39.757 428.187798,37.713 C437.823798,35.742 439.283798,34.428 439.283798,31.873 C439.283798,29.099 437.093798,27.055 432.202798,27.055 C427.384798,27.055 423.369798,30.413 420.814798,34.793 L420.376798,34.793 L415.850798,27.566 C419.208798,22.748 424.975798,19.244 432.275798,19.244 Z M439.137798,40.779 C438.334798,42.312 435.998798,43.188 430.742798,44.429 C425.413798,45.67 424.026798,47.495 424.026798,49.904 C424.026798,52.532 425.997798,54.065 429.136798,54.065 C434.246798,54.065 439.283798,50.853 439.283798,46.546 L439.283798,40.779 L439.137798,40.779 Z M469.291776,19.244 C477.759776,19.244 483.526776,24.062 485.643776,26.836 L481.774776,34.136 L481.336776,34.136 C478.416776,30.121 473.890776,27.055 469.291776,27.055 C465.276776,27.055 463.232776,29.245 463.232776,31.435 C463.232776,33.479 463.743776,34.793 472.576776,37.056 C482.212776,39.465 486.957776,42.385 486.957776,49.904 C486.957776,57.204 480.314776,61.876 471.554776,61.876 C462.867776,61.876 456.589776,57.788 453.596776,54.065 L457.538776,46.546 L457.976776,46.546 C460.969776,50.342 465.714776,53.773 471.043776,53.773 C476.226776,53.773 478.343776,52.167 478.343776,49.612 C478.343776,47.276 477.248776,46.108 467.977776,43.699 C458.925776,41.436 454.764776,37.859 454.764776,31.362 C454.764776,25.011 460.020776,19.244 469.291776,19.244 Z M506.891754,19.244 C515.359754,19.244 521.126754,24.062 523.243754,26.836 L519.374754,34.136 L518.936754,34.136 C516.016754,30.121 511.490754,27.055 506.891754,27.055 C502.876754,27.055 500.832754,29.245 500.832754,31.435 C500.832754,33.479 501.343754,34.793 510.176754,37.056 C519.812754,39.465 524.557754,42.385 524.557754,49.904 C524.557754,57.204 517.914754,61.876 509.154754,61.876 C500.467754,61.876 494.189754,57.788 491.196754,54.065 L495.138754,46.546 L495.576754,46.546 C498.569754,50.342 503.314754,53.773 508.643754,53.773 C513.826754,53.773 515.943754,52.167 515.943754,49.612 C515.943754,47.276 514.848754,46.108 505.577754,43.699 C496.525754,41.436 492.364754,37.859 492.364754,31.362 C492.364754,25.011 497.620754,19.244 506.891754,19.244 Z" id="MasterClass" fill="#FFFFFF" fill-rule="nonzero"></path>
                <g id="Group-3">
                    <mask id="mask-2" fill="white">
                        <use xlink:href="#path-1"></use>
                    </mask>
                    <g id="Clip-2"></g>
                    <path d="M59.7971473,69 L9.20261958,69 C4.13503409,69 1.20792265e-13,64.8649519 1.20792265e-13,59.7973493 L1.20792265e-13,9.20265067 C1.20792265e-13,4.13504806 4.13503409,5.68434189e-14 9.20261958,5.68434189e-14 L59.7971473,5.68434189e-14 C64.8647328,5.68434189e-14 68.9997668,4.13504806 68.9997668,9.20265067 L68.9997668,59.7973493 C69.0359122,64.8649519 64.8647328,69 59.7971473,69 Z M60.6158406,22.6679431 L53.3427889,22.6679431 L50.6016534,28.3868655 L47.8605178,22.6679431 L40.5856931,22.6679431 L46.8002338,35.3550224 L41.1707996,46.8296093 L41.1707996,29.4836199 L41.1707996,28.3868655 C41.1707996,27.5528177 40.8410123,26.4174839 40.4757639,25.7726584 C40.1105156,25.12967 39.6353382,24.5620032 39.0502316,24.1064 C38.4651251,23.6526339 37.7718625,23.3109315 37.0041317,23.0463877 C36.199167,22.8204232 35.3959753,22.6679431 34.5183154,22.6679431 C33.0200881,22.6679431 31.7044848,22.9324869 30.6442008,23.4248323 C29.5839169,23.9171777 28.633562,24.7126462 27.7559021,25.7726584 C27.1707956,24.7879677 26.3676039,24.0310785 25.3800149,23.5001538 C24.3941991,22.9324869 23.223986,22.6679431 21.9438437,22.6679431 C20.5555455,22.6679431 19.3871054,22.8957447 18.3995165,23.3109315 C17.4119276,23.7665347 16.5360408,24.5234239 15.8410051,25.6220154 L15.731076,25.6220154 L15.731076,22.6679431 L8.45802428,22.6679431 L8.45802428,48.0421017 L15.731076,48.0421017 L15.731076,29.786743 C15.731076,28.2729647 16.9739842,27.0604723 18.4722115,27.0604723 C19.9704389,27.0604723 21.176113,28.2729647 21.2133471,29.786743 L21.2133471,48.0421017 L28.3037746,48.0421017 L28.4509378,48.0421017 L28.4509378,30.0145446 L28.4509378,29.8253223 C28.4509378,28.3097069 29.693846,27.0990516 31.1920733,27.0990516 C32.6903007,27.0990516 33.8977479,28.3097069 33.9332089,29.8253223 L33.9332089,48.0421017 L40.5856931,48.0421017 L47.8605178,48.0421017 L50.6016534,42.3231793 L53.3427889,48.0421017 L60.6158406,48.0421017 L54.4030729,35.3550224 L60.6158406,22.6679431 Z" id="Combined-Shape" fill="#FFFFFF" mask="url(#mask-2)"></path>
                </g>
            </g>
        </g>
    </g>
</svg>