<svg xmlns="http://www.w3.org/2000/svg" width="146" height="39">
    <g class="header__logo__fill" fill="#fff" fill-rule="evenodd">
        <path d="M34.08 38.18h-28a5.1 5.1 0 0 1-5.09-5.09v-28A5.1 5.1 0 0 1 6.08 0h28a5.11 5.11 0 0 1 5.1 5.09v28a5.09 5.09 0 0 1-5.1 5.09zm1.05-26h-4.1l-1.54 3.12-1.56-3.12h-4.1l3.5 6.91-3.17 6.25v-10a3.38 3.38 0 0 0-.38-1.46 3 3 0 0 0-.81-.9 3.89 3.89 0 0 0-1.15-.58 5.45 5.45 0 0 0-1.4-.21 5.34 5.34 0 0 0-2.19.42 4.7 4.7 0 0 0-1.63 1.27 3.38 3.38 0 0 0-1.34-1.23 3.92 3.92 0 0 0-1.94-.46 5.42 5.42 0 0 0-2 .35 3.37 3.37 0 0 0-1.39 1.25h-.06v-1.61h-4.1V26h4.1v-9.94a1.55 1.55 0 0 1 3.09 0V26h4.08v-9.92a1.55 1.55 0 0 1 3.1 0V26h7.79l1.56-3.12L31.03 26h4.1l-3.5-6.91 3.5-6.91z"/>
        <path fill-rule="nonzero" d="M104.44 10.16a3.88 3.88 0 0 0-4.08-3.69v6.79a3.17 3.17 0 0 0-1.13-.81 5.08 5.08 0 0 0-2-.35 3.69 3.69 0 0 0-2.43.7 4 4 0 0 0-1.24 1.77 7.51 7.51 0 0 0-.41 2.31v4.58a8.31 8.31 0 0 0 .41 2.35 4 4 0 0 0 1.24 1.81 3.73 3.73 0 0 0 2.51.75 4.89 4.89 0 0 0 2.1-.4 2.69 2.69 0 0 0 .89-.63v.7h4.1V10.25l.04-.09zm-4.08 6.54v5.92a1.44 1.44 0 0 1-1 1.27 1 1 0 0 1-.45.09s-1.94.37-1.94-4.77c0-2.45.45-3.64.9-4.22l.15-.19a.53.53 0 0 1 .25-.16.92.92 0 0 1 .64-.17c.26.005.516.077.74.21.473.28.762.79.76 1.34v.66l-.05.02zM74.1 22.39a1.44 1.44 0 0 1-1 1.24 4 4 0 0 1-.5.08 1.41 1.41 0 0 1-1.55-1.3c-.12-.93-.12-2.66-.12-2.66h7.3c.05-1 .05-2 0-3a6.23 6.23 0 0 0-.72-2.37 4.18 4.18 0 0 0-1.73-1.59 7 7 0 0 0-3.12-.57 7.29 7.29 0 0 0-3 .53 4 4 0 0 0-1.71 1.47 5.14 5.14 0 0 0-.74 2.14 20.8 20.8 0 0 0 0 5.46 5.65 5.65 0 0 0 .76 2.25 4 4 0 0 0 1.71 1.46 7.14 7.14 0 0 0 3 .54 7.77 7.77 0 0 0 2.39-.35 4.78 4.78 0 0 0 1.71-1 3.92 3.92 0 0 0 1.4-2.84H74.1c.012.17.012.34 0 .51zM71.03 16a1.57 1.57 0 0 1 1.54-1.49A1.49 1.49 0 0 1 74.12 16c.04.55.04 1.1 0 1.65h-3.19a14.24 14.24 0 0 1 .1-1.65z"/>
        <path d="M65.15 15.3a3.82 3.82 0 0 0-.41-1.42 3 3 0 0 0-.81-.9 3.89 3.89 0 0 0-1.15-.58 5.42 5.42 0 0 0-3.59.21 4.7 4.7 0 0 0-1.63 1.27 3.38 3.38 0 0 0-1.34-1.23 4.14 4.14 0 0 0-1.93-.46 5.34 5.34 0 0 0-2 .35 3.4 3.4 0 0 0-1.45 1.26h-.06v-1.62h-4.1v13.8h4.1v-9.94a1.55 1.55 0 0 1 3.09 0v9.94h4.06v-9.9a1.52 1.52 0 0 1 1.54-1.48 1.53 1.53 0 0 1 1.55 1.48V26h4.1V15.3h.03zm25.87-1.42a2.87 2.87 0 0 0-.8-.9 3.82 3.82 0 0 0-1.16-.58 5.32 5.32 0 0 0-1.4-.21 4.72 4.72 0 0 0-2 .38 3.1 3.1 0 0 0-1.44 1.23h-.06v-1.62h-4.11v13.8h4.11v-9.92a1.52 1.52 0 0 1 1.54-1.48 1.53 1.53 0 0 1 1.55 1.48v9.92h4.1V15.09a2.75 2.75 0 0 0-.33-1.21zm33.05-1.7h-4.1l-1.55 3.12-1.54-3.12h-4.11l3.51 6.91-3.51 6.91h4.11l1.54-3.12 1.55 3.12h4.1l-3.5-6.91zM111.04 26h-4.11V12.18h4.1zm-.64-15.84h-2.8a.64.64 0 0 1-.64-.64V7.09a.64.64 0 0 1 .64-.64h2.8a.64.64 0 0 1 .64.64v2.43a.64.64 0 0 1-.64.64zM96.84 34.4h2.51v3.48a8.22 8.22 0 0 1-1.19.28 9.83 9.83 0 0 1-1.41.09 3.47 3.47 0 0 1-2.62-1 3.8 3.8 0 0 1-.93-2.73 4 4 0 0 1 .46-2 3.09 3.09 0 0 1 1.33-1.3 4.38 4.38 0 0 1 2-.44 5.72 5.72 0 0 1 2.21.42l-.33.74a5 5 0 0 0-1.93-.41 2.8 2.8 0 0 0-2.11.78 3 3 0 0 0-.76 2.18 3 3 0 0 0 .73 2.21 2.83 2.83 0 0 0 2.15.76 6.83 6.83 0 0 0 1.5-.17v-2.14H96.8l.04-.75z"/>
        <path fill-rule="nonzero" d="M105.54 35.47a3 3 0 0 1-.68 2.07 2.43 2.43 0 0 1-1.89.74 2.56 2.56 0 0 1-1.33-.34 2.27 2.27 0 0 1-.89-1 3.38 3.38 0 0 1-.31-1.5 2.91 2.91 0 0 1 .68-2.06 2.43 2.43 0 0 1 1.88-.73 2.37 2.37 0 0 1 1.85.75 2.91 2.91 0 0 1 .69 2.07zm-4.23 0a2.52 2.52 0 0 0 .42 1.58 1.72 1.72 0 0 0 2.51 0 2.49 2.49 0 0 0 .43-1.59 2.44 2.44 0 0 0-.43-1.56 1.74 1.74 0 0 0-2.51 0 2.49 2.49 0 0 0-.42 1.57z"/>
        <path d="M116.27 38.18v-3.51a1.41 1.41 0 0 0-.29-1 1.1 1.1 0 0 0-.88-.33 1.46 1.46 0 0 0-1.16.44 2.05 2.05 0 0 0-.37 1.35v3h-.85v-3.46a1.41 1.41 0 0 0-.28-1 1.11 1.11 0 0 0-.89-.33 1.4 1.4 0 0 0-1.15.46 2.44 2.44 0 0 0-.37 1.52v2.86h-.84v-5.4h.68l.14.74a1.61 1.61 0 0 1 .67-.62 2.07 2.07 0 0 1 1-.22 1.64 1.64 0 0 1 1.7.91 1.87 1.87 0 0 1 .72-.67 2.38 2.38 0 0 1 1.08-.24 1.88 1.88 0 0 1 1.41.47c.35.422.518.964.47 1.51v3.52h-.79z"/>
        <path fill-rule="nonzero" d="M121.99 38.18l-.16-.77a2.39 2.39 0 0 1-.83.69 2.6 2.6 0 0 1-1 .18 2 2 0 0 1-1.3-.41 1.51 1.51 0 0 1-.47-1.18c0-1.09.9-1.67 2.69-1.72h1v-.33a1.37 1.37 0 0 0-.28-.94 1.16 1.16 0 0 0-.9-.31 3.66 3.66 0 0 0-1.57.42l-.26-.63a4 4 0 0 1 .9-.34 4 4 0 0 1 1-.12 2.13 2.13 0 0 1 1.47.43c.352.365.527.865.48 1.37v3.66h-.77zm-1.9-.57a1.74 1.74 0 0 0 1.24-.42c.313-.31.477-.74.45-1.18v-.49h-.84a3.08 3.08 0 0 0-1.45.3.9.9 0 0 0-.44.84.87.87 0 0 0 .27.68 1.2 1.2 0 0 0 .77.27z"/>
        <path d="M124.93 35.42c.15-.2.37-.47.66-.79l1.8-1.85h1l-2.25 2.3 2.4 3.1h-1l-2-2.55-.63.53v2h-.83v-7.65h.85v4.91z"/>
        <path fill-rule="nonzero" d="M131.62 38.28a2.56 2.56 0 0 1-1.94-.73 2.75 2.75 0 0 1-.71-2 3.06 3.06 0 0 1 .66-2.07 2.19 2.19 0 0 1 1.77-.77 2.13 2.13 0 0 1 1.66.67 2.52 2.52 0 0 1 .6 1.76v.52h-3.82a2.11 2.11 0 0 0 .49 1.44c.351.344.83.525 1.32.5a4.51 4.51 0 0 0 1.78-.37v.73a4 4 0 0 1-.85.27 4.41 4.41 0 0 1-.96.05zm-.23-4.92a1.36 1.36 0 0 0-1.06.43 1.9 1.9 0 0 0-.47 1.17h2.9a1.79 1.79 0 0 0-.35-1.18 1.27 1.27 0 0 0-1.02-.42zm5.81-2.05a.53.53 0 0 1 .14-.41.52.52 0 0 1 .36-.13.51.51 0 0 1 .35.13.67.67 0 0 1 0 .82.52.52 0 0 1-.71 0 .56.56 0 0 1-.14-.41zm.91 6.87h-.84v-5.4h.84v5.4z"/>
        <path d="M141.43 37.61a3 3 0 0 0 .43 0l.33-.07v.63a1.76 1.76 0 0 1-.4.1 2.9 2.9 0 0 1-.48 0 1.44 1.44 0 0 1-1.61-1.65v-3.21h-.77v-.39l.8-.34.35-1.16h.49v1.26h1.61v.63h-1.61v3.19c-.016.271.07.539.24.75a.84.84 0 0 0 .62.26z"/>
        <path fill-rule="nonzero" d="M143.4 32.2h-.23v-1.14h-.39v-.18h1v.19h-.4l.02 1.13zm1.14 0l-.38-1v1h-.23v-1.32h.36l.37 1 .38-1h.34v1.33h-.24v-1l-.4 1-.2-.01z"/>
    </g>
</svg>