<svg width="125" height="40" xmlns="http://www.w3.org/2000/svg" xmlns:xlink="http://www.w3.org/1999/xlink"><defs><path id="a" d="M0 0.736410256L39.0510917 0.736410256 39.0510917 39.8937436 0 39.8937436z"/></defs><g transform="translate(0 -14)" fill="none" fill-rule="evenodd"><g transform="translate(0 14)"><mask id="b" fill="#fff"><use xlink:href="#a"/></mask><path d="M33.843 39.894H5.208C2.34 39.894 0 37.547 0 34.67V5.958C0 3.082 2.34.736 5.208.736h28.635c2.868 0 5.208 2.346 5.208 5.222v28.713c.02 2.876-2.34 5.223-5.208 5.223" fill="#0CABF9" mask="url(#b)"/></g><path d="M34.306 27.6H30.19l-1.552 3.246-1.551-3.246H22.97l3.517 7.2-3.186 6.512V30.846c0-.474-.187-1.118-.393-1.484a3.177 3.177 0 0 0-.807-.946 3.996 3.996 0 0 0-1.158-.601 5.101 5.101 0 0 0-1.407-.215c-.848 0-1.593.15-2.193.43-.6.279-1.138.73-1.634 1.332a3.433 3.433 0 0 0-1.345-1.29c-.558-.322-1.22-.472-1.945-.472-.785 0-1.447.13-2.006.365-.559.258-1.054.688-1.448 1.311h-.062V27.6H4.787V42h4.116V31.64c0-.86.704-1.547 1.551-1.547.848 0 1.53.688 1.552 1.547V42h4.096V31.662c0-.86.703-1.547 1.551-1.547s1.532.687 1.552 1.547V42h7.882l1.551-3.246L30.19 42h4.116l-3.516-7.2 3.516-7.2z" fill="#3B3292"/><path d="M34.306 27.6H30.19l-1.552 3.246-1.551-3.246H22.97l3.517 7.2-3.186 6.512V30.846c0-.474-.187-1.118-.393-1.484-.207-.365-.952-1.762-3.372-1.762-2.283 0-3.33 1.16-3.827 1.762-.331-.559-1.121-1.762-3.29-1.762-2.221 0-3.06 1.053-3.454 1.676h-.062V27.6H4.787V42h4.116V31.64c0-.86.704-1.547 1.551-1.547.848 0 1.53.688 1.552 1.547V42h4.096V31.662c0-.86.703-1.547 1.551-1.547s1.532.687 1.552 1.547V42h7.882l1.551-3.246L30.19 42h4.116l-3.516-7.2 3.516-7.2z" fill="#FFF"/><path d="M100.19 32.301v5.949c-.045.6-.481 1.098-1.093 1.284a1.224 1.224 0 0 1-.48.083h-.044s-2.052.373-2.052-4.787c0-2.467.48-3.669.96-4.25.044-.061.11-.124.153-.185a.617.617 0 0 1 .262-.167c.372-.228.677-.166.677-.166.284 0 .547.084.786.207.022 0 .022.021.044.021.48.27.809.767.809 1.348v.663h-.023zm4.324-6.57c0-1.927-1.704-3.524-3.888-3.71-.153-.021-.284-.021-.437-.021v6.819c-.371-.373-.764-.643-1.2-.809-.59-.227-1.268-.352-2.075-.352-1.114 0-1.987.228-2.577.705-.612.477-1.027 1.057-1.31 1.783a7.215 7.215 0 0 0-.437 2.321c-.022.663-.044 1.264-.044 1.824v.435c0 .705.022 1.492.044 2.342.043.85.175 1.637.436 2.362.262.726.7 1.347 1.31 1.825.612.497 1.507.745 2.665.745.873 0 1.616-.124 2.228-.393.35-.145.654-.352.938-.643v.705H104.514V25.731zm-33.946 5.79c.088-.858.743-1.543 1.64-1.543.896 0 1.551.558 1.638 1.543.066.878.045.965.023 1.714h-3.41c.043-1.114.043-1.092.109-1.714m3.257 6.643c-.022.6-.502 1.093-1.114 1.285-.022 0-.372.086-.525.086-.875 0-1.509-.407-1.64-1.349-.13-.965-.13-2.765-.13-2.765h7.736c0-1.114.088-2.143-.02-3.107-.11-.943-.372-1.778-.765-2.465-.416-.686-1.029-1.243-1.837-1.65-.809-.407-1.923-.599-3.3-.599-1.356 0-2.449.192-3.236.557-.809.386-1.4.879-1.814 1.52-.415.644-.677 1.394-.788 2.23-.109.857-.173 1.757-.173 2.7 0 1.072.064 2.078.196 2.978.131.9.394 1.694.809 2.336.415.643 1.027 1.157 1.814 1.522.787.365 1.859.557 3.191.557.962 0 1.815-.129 2.536-.365.722-.236 1.333-.557 1.814-.985.984-.836 1.573-1.908 1.573-3.065h-4.327c0-.022.021.172 0 .58m-9.202-7.32c-.022-.473-.214-1.095-.428-1.482a3.21 3.21 0 0 0-.833-.947 4.183 4.183 0 0 0-1.197-.601 5.423 5.423 0 0 0-1.452-.215c-.877 0-1.646.15-2.266.43-.62.279-1.176.73-1.688 1.333a3.508 3.508 0 0 0-1.389-1.29 4.343 4.343 0 0 0-2.009-.473c-.812 0-1.496.13-2.073.365-.577.258-1.09.688-1.496 1.311h-.064V27.6h-4.253v14.378h4.253V31.62c0-.86.726-1.547 1.602-1.547.876 0 1.582.687 1.604 1.547v10.36h4.23V31.661c0-.86.727-1.547 1.604-1.547.876 0 1.58.687 1.602 1.547V42h4.253V30.845zm26.776-1.48a3.208 3.208 0 0 0-.852-.947c-.35-.26-.763-.453-1.222-.603-.481-.13-.96-.215-1.485-.215-.852 0-1.551.128-2.119.387a3.376 3.376 0 0 0-1.529 1.291h-.065V27.6H79.78V42h4.346V31.646c0-.861.742-1.55 1.639-1.55.895 0 1.615.689 1.637 1.55V42h4.346V30.634a2.83 2.83 0 0 0-.35-1.27" fill="#666"/><path fill="#666" d="M124.459016 27.6L120.112599 27.6 118.475939 30.8455256 116.837161 27.6 112.491803 27.6 116.204743 34.8 112.491803 42 116.837161 42 118.475939 38.7544744 120.112599 42 124.459016 42 120.747136 34.8z"/><path d="M26.9672131 -1.8189894e-12L22.6207959 -1.8189894e-12 20.9841362 3.24552563 19.3453579 -1.8189894e-12 15 -1.8189894e-12 18.7129399 7.2 15 14.4 19.3453579 14.4 20.9841362 11.1544744 22.6207959 14.4 26.9672131 14.4 23.2553325 7.2z"/><path fill="#666" d="M106.907104 42L111.693989 42 111.693989 27.6 106.907104 27.6z"/><path d="M110.945 25.2h-3.289c-.41 0-.749-.312-.749-.689v-2.623c0-.377.339-.688.75-.688h3.288c.41 0 .749.31.749.688v2.623c0 .377-.339.689-.75.689" fill="#666"/></g></svg>