<svg viewBox="0 0 24 24" xmlns="http://www.w3.org/2000/svg"><g stroke-linecap="round" stroke="#000" fill="none" stroke-linejoin="round"><path d="M13.631 13.206l-9.707 9.706a2.006 2.006 0 0 1-2.837-2.837l9.707-9.706"/><path d="M22.142 9.659a.5.5 0 0 0-.709 0 1.5 1.5 0 0 1-2.465-1.614 1 1 0 0 0-.223-1.076c-.826-.828-2.275-2.276-2.293-2.258a7.319 7.319 0 0 0-9.41-.4.5.5 0 0 0 .321.9A5.487 5.487 0 0 1 11.5 6.822c.689.69 1.32 1.519.63 2.208l-1.339 1.339 2.837 2.837 1.418-1.419a1.505 1.505 0 1 1 2.128 2.128.5.5 0 0 0 0 .709l1.064 1.064a1 1 0 0 0 1.419 0l3.546-3.546a1 1 0 0 0 0-1.419zm-.712.001l-4.25 4.25"/></g></svg>