<svg width="19" height="15" xmlns="http://www.w3.org/2000/svg"><path d="M18.53 2.237c-.644.287-1.187.296-1.763.013.743-.444.777-.755 1.046-1.594a7.239 7.239 0 0 1-2.285.872A3.597 3.597 0 0 0 12.903.395 3.593 3.593 0 0 0 9.398 4.8a10.219 10.219 0 0 1-7.415-3.75 3.583 3.583 0 0 0 1.113 4.79 3.598 3.598 0 0 1-1.629-.447v.045a3.593 3.593 0 0 0 2.886 3.518 3.62 3.62 0 0 1-1.626.061 3.602 3.602 0 0 0 3.361 2.492 7.246 7.246 0 0 1-5.325 1.485 10.204 10.204 0 0 0 5.514 1.611c6.617 0 10.234-5.466 10.234-10.207 0-.156-.002-.31-.01-.464.703-.505 1.548-.977 2.03-1.697z" fill="#FFF" fill-rule="evenodd"/></svg>