<svg width="31" height="34" xmlns="http://www.w3.org/2000/svg"><g transform="translate(1 1)" stroke="#000" stroke-width="2" fill="none" fill-rule="evenodd" stroke-linecap="round" stroke-linejoin="round"><path d="M14.608 2.414a1.412 1.412 0 0 1 1.998 0l9.98 9.98a1.411 1.411 0 0 1 0 1.995c-.987.996-2.64 2.64-4.492 4.492a8.164 8.164 0 0 1-11.478-.498 8.16 8.16 0 0 1-.498-11.473l4.49-4.496zM19 4l4-4m2 9l4-4"/><path d="M16.414 15.414a2 2 0 1 1-2.828-2.828 2 2 0 0 1 2.828 2.828z"/><path d="M12 19.9168385L8.91546392 23 6 20.0845361 9.08316151 17"/><path d="M9.777 32l2.61-2.583a2.058 2.058 0 0 0 0-2.931 2.108 2.108 0 0 0-2.96 0l-4.67 4.62a2.848 2.848 0 0 1-3.608.397 2.684 2.684 0 0 1-.35-4.111L7.255 21"/></g></svg>