<svg width="37" height="37" xmlns="http://www.w3.org/2000/svg"><g transform="translate(1 1)" stroke="#171717" stroke-width="2" fill="none" fill-rule="evenodd" stroke-linecap="round"><path d="M29.6 14.534c.544 1.565.84 3.248.84 5 0 8.405-6.814 15.22-15.219 15.22C6.815 34.754 0 27.939 0 19.534 0 11.128 6.815 4.313 15.221 4.313c1.55 0 3.046.233 4.456.663"/><path d="M24.864 15.88c.43 1.136.666 2.366.666 3.653 0 5.694-4.616 10.31-10.31 10.31-5.693 0-10.31-4.616-10.31-10.31 0-5.694 4.617-10.309 10.31-10.309 1.393 0 2.72.275 3.93.775"/><path d="M20.22 19.534a5 5 0 1 1-5-5"/><path stroke-linejoin="round" d="M28.6733 11.7974L24.2073 10.6064 30.3483 4.4654 34.8143 5.6564z"/><path stroke-linejoin="round" d="M24.2074 10.606L23.0164 6.14 29.1574 -2.66453526e-15 30.3484 4.465z"/><path d="M30.1 4.713L15.015 19.798" stroke-linejoin="round"/></g></svg>