<svg width="32" height="40" xmlns="http://www.w3.org/2000/svg"><g transform="translate(1.5 1)" stroke="#171717" stroke-width="1.8" fill="none" fill-rule="evenodd" stroke-linecap="round" stroke-linejoin="round"><path d="M22.5 19.35h1.575c2.61 0 4.725 2.216 4.725 4.95s-2.115 4.95-4.725 4.95H22.5m0 4.915a3.185 3.185 0 0 1-3.185 3.185H4.985A3.185 3.185 0 0 1 1.8 34.165V17.446c0-.44.356-.796.796-.796h19.108c.44 0 .796.356.796.796v16.72zM22.232.45c1.575 2.538-.763 3.93-1.3 5.291-.29.64-.309 1.38-.051 2.035a2.421 2.421 0 0 0 1.4 1.398c4.422 1.975 5.74-7.244-.05-8.724zM17.1 16.65l4.5-7.2m1.8 0l-2.7 7.2"/><path d="M3.24 16.65L0.81 11.7 0 6.75 4.05 9.225 9 16.65z"/><path d="M.9 12.15l3.6-2.7m11.7-8.19a.799.799 0 0 0-.787-.81h-4.726a.799.799 0 0 0-.787.81v15.39h6.3V1.26zm0 2.79h-3.6m3.6 2.7h-1.8m1.8 3.6h-3.6m3.6 2.7h-1.8"/></g></svg>