<svg xmlns="http://www.w3.org/2000/svg" viewBox="0 0 144.38 38.28"><g data-name="Layer 2"><g data-name="Background + 4_open.jpg Image"><path d="M33.09 38.18h-28A5.1 5.1 0 0 1 0 33.09v-28A5.1 5.1 0 0 1 5.09 0h28a5.1 5.1 0 0 1 5.09 5.09v28a5.09 5.09 0 0 1-5.09 5.09z" fill="#0595db"/><path d="M34.14 12.18H30l-1.51 3.12-1.55-3.12h-4.1l3.51 6.91-3.18 6.25v-10a3.2 3.2 0 0 0-.39-1.43A3 3 0 0 0 22 13a3.94 3.94 0 0 0-1.16-.58 5.42 5.42 0 0 0-3.59.21 4.67 4.67 0 0 0-1.62 1.27 3.45 3.45 0 0 0-1.34-1.23 4 4 0 0 0-1.94-.46 5.34 5.34 0 0 0-2 .35 3.32 3.32 0 0 0-1.44 1.26h-.09v-1.64h-4.1V26h4.1v-9.94a1.52 1.52 0 0 1 1.55-1.49 1.55 1.55 0 0 1 1.55 1.49V26H16v-9.92a1.52 1.52 0 0 1 1.54-1.48 1.53 1.53 0 0 1 1.55 1.48V26h7.85l1.55-3.12L30 26h4.1l-3.51-6.91z" fill="#3b3292"/><path d="M34.14 12.18H30l-1.51 3.12-1.55-3.12h-4.1l3.51 6.91-3.18 6.25v-10a3.2 3.2 0 0 0-.39-1.43 3.46 3.46 0 0 0-3.36-1.69 4.61 4.61 0 0 0-3.81 1.69 3.48 3.48 0 0 0-3.28-1.69 3.65 3.65 0 0 0-3.44 1.61h-.07v-1.65h-4.1V26h4.1v-9.94a1.52 1.52 0 0 1 1.55-1.49 1.55 1.55 0 0 1 1.55 1.49V26H16v-9.92a1.52 1.52 0 0 1 1.54-1.48 1.53 1.53 0 0 1 1.55 1.48V26h7.85l1.55-3.12L30 26h4.1l-3.51-6.91z" fill="#fff"/><path d="M103.45 10.16a3.88 3.88 0 0 0-3.67-3.69 3 3 0 0 0-.42 0v6.78a3.26 3.26 0 0 0-1.13-.8 5.08 5.08 0 0 0-2-.35 3.7 3.7 0 0 0-2.43.7 4 4 0 0 0-1.24 1.77 7.82 7.82 0 0 0-.41 2.31v4.58a8.75 8.75 0 0 0 .41 2.35 4 4 0 0 0 1.24 1.81 3.74 3.74 0 0 0 2.51.75 5 5 0 0 0 2.11-.4 2.55 2.55 0 0 0 .88-.63V26h4.11V10.25zm-4.09 6.54v5.91a1.44 1.44 0 0 1-1 1.28 1.13 1.13 0 0 1-.45.09s-1.94.37-1.94-4.77c0-2.45.45-3.65.91-4.22l.12-.19a.59.59 0 0 1 .25-.16.92.92 0 0 1 .64-.17 1.48 1.48 0 0 1 .74.21 1.53 1.53 0 0 1 .75 1.32v.66zM73.1 22.39a1.4 1.4 0 0 1-1 1.23 3.61 3.61 0 0 1-.5.09 1.4 1.4 0 0 1-1.6-1.3 26.07 26.07 0 0 1-.13-2.66h7.3a29.51 29.51 0 0 0 0-3 6.23 6.23 0 0 0-.72-2.37 4.18 4.18 0 0 0-1.73-1.59 7 7 0 0 0-3.11-.58 7.36 7.36 0 0 0-3.06.54 4.12 4.12 0 0 0-1.71 1.46 5.19 5.19 0 0 0-.74 2.15 21.48 21.48 0 0 0-.16 2.6 21 21 0 0 0 .18 2.86 5.81 5.81 0 0 0 .76 2.25 4 4 0 0 0 1.72 1.46 7.14 7.14 0 0 0 3 .54 7.81 7.81 0 0 0 2.4-.34 4.87 4.87 0 0 0 1.71-.95 3.92 3.92 0 0 0 1.48-3H73.1a3.66 3.66 0 0 1 0 .61zM70 16a1.57 1.57 0 0 1 1.55-1.49A1.49 1.49 0 0 1 73.12 16a11.52 11.52 0 0 1 0 1.65h-3.19C70 16.57 70 16.6 70 16zm-5.85-.7a3.59 3.59 0 0 0-.41-1.43 2.87 2.87 0 0 0-.8-.9 3.82 3.82 0 0 0-1.16-.58 5.39 5.39 0 0 0-3.58.21 4.61 4.61 0 0 0-1.63 1.27 3.45 3.45 0 0 0-1.34-1.23 4.21 4.21 0 0 0-1.94-.46 5.42 5.42 0 0 0-2 .35 3.32 3.32 0 0 0-1.44 1.26h-.06v-1.61h-4.11V26h4.11V16a1.55 1.55 0 0 1 3.09 0v10H57v-9.92a1.55 1.55 0 0 1 3.09 0V26h4.1V15.3zM90 13.87a3 3 0 0 0-.81-.9 3.89 3.89 0 0 0-1.15-.58 5.45 5.45 0 0 0-1.4-.21 4.83 4.83 0 0 0-2 .37 3.2 3.2 0 0 0-1.45 1.24h-.06v-1.61h-4.1V26h4.1v-9.94a1.55 1.55 0 0 1 3.09 0V26h4.11V15.09a3 3 0 0 0-.33-1.22z" fill="#57585b"/><path fill="#57585b" d="M123.07 12.18L118.97 12.18 117.42 15.3 115.88 12.18 111.77 12.18 115.28 19.09 111.77 26 115.88 26 117.42 22.88 118.97 26 123.07 26 119.57 19.09 123.07 12.18z"/><path d="M110 26h-4.1V12.18h4.1zm-.6-15.84h-2.8a.64.64 0 0 1-.64-.64V7.09a.64.64 0 0 1 .64-.64h2.8a.64.64 0 0 1 .64.64v2.43a.64.64 0 0 1-.64.64zM95.84 34.4h2.52v3.51a8 8 0 0 1-1.2.28 9.63 9.63 0 0 1-1.41.09 3.43 3.43 0 0 1-2.61-1 3.76 3.76 0 0 1-.94-2.73 4.08 4.08 0 0 1 .46-2A3.15 3.15 0 0 1 94 31.31a4.38 4.38 0 0 1 2-.44 5.76 5.76 0 0 1 2.21.42l-.34.74a5 5 0 0 0-1.87-.41 2.82 2.82 0 0 0-2.11.78 3 3 0 0 0-.76 2.18 3 3 0 0 0 .73 2.21 2.85 2.85 0 0 0 2.15.76 6.3 6.3 0 0 0 1.51-.18v-2.22h-1.68zm8.7 1.07a3 3 0 0 1-.68 2.07 2.47 2.47 0 0 1-1.89.74 2.5 2.5 0 0 1-1.32-.34 2.21 2.21 0 0 1-.89-1 3.38 3.38 0 0 1-.32-1.5 3 3 0 0 1 .68-2.06 2.73 2.73 0 0 1 3.74 0 3 3 0 0 1 .68 2.09zm-4.23 0a2.48 2.48 0 0 0 .43 1.58 1.47 1.47 0 0 0 1.25.55 1.49 1.49 0 0 0 1.25-.54 2.49 2.49 0 0 0 .43-1.59 2.42 2.42 0 0 0-.43-1.56 1.74 1.74 0 0 0-2.51 0 2.49 2.49 0 0 0-.42 1.56zm14.96 2.71v-3.52a1.45 1.45 0 0 0-.28-1 1.12 1.12 0 0 0-.89-.33 1.46 1.46 0 0 0-1.16.44 2.05 2.05 0 0 0-.37 1.35v3h-.84v-3.46a1.39 1.39 0 0 0-.29-1 1.08 1.08 0 0 0-.88-.33 1.42 1.42 0 0 0-1.16.46 2.49 2.49 0 0 0-.37 1.52v2.83h-.84v-5.37h.69l.13.75a1.63 1.63 0 0 1 .68-.62 2 2 0 0 1 1-.22 1.66 1.66 0 0 1 1.7.91 1.74 1.74 0 0 1 .72-.67 2.31 2.31 0 0 1 1.07-.24 1.88 1.88 0 0 1 1.41.47 2.07 2.07 0 0 1 .47 1.51v3.52zm5.73 0l-.17-.77a2.31 2.31 0 0 1-.83.69 2.57 2.57 0 0 1-1 .18 1.9 1.9 0 0 1-1.29-.41 1.47 1.47 0 0 1-.47-1.18c0-1.09.89-1.67 2.69-1.72h.94v-.33a1.32 1.32 0 0 0-.28-.94 1.16 1.16 0 0 0-.9-.31 3.69 3.69 0 0 0-1.57.42l-.26-.63a4 4 0 0 1 .9-.34 4.11 4.11 0 0 1 1-.12 2.13 2.13 0 0 1 1.47.43 1.74 1.74 0 0 1 .48 1.37v3.69zm-1.9-.57a1.73 1.73 0 0 0 1.23-.42 1.53 1.53 0 0 0 .45-1.18v-.49h-.84a3.11 3.11 0 0 0-1.45.3.92.92 0 0 0-.44.84.81.81 0 0 0 .28.67 1.13 1.13 0 0 0 .77.28zm4.82-2.2a9.72 9.72 0 0 1 .67-.78l1.79-1.86h1l-2.25 2.31 2.41 3.1h-1l-2-2.55-.64.53v2h-.83V30.5h.83v4.91zm6.71 2.87a2.59 2.59 0 0 1-1.95-.73 2.8 2.8 0 0 1-.71-2 3.06 3.06 0 0 1 .66-2.07 2.2 2.2 0 0 1 1.78-.77 2.15 2.15 0 0 1 1.65.66 2.57 2.57 0 0 1 .61 1.77v.52h-3.83a2.08 2.08 0 0 0 .5 1.44 1.73 1.73 0 0 0 1.32.5 4.5 4.5 0 0 0 1.77-.37v.73a4.06 4.06 0 0 1-.84.27 4.53 4.53 0 0 1-.96.05zm-.23-4.92a1.38 1.38 0 0 0-1.07.43 2 2 0 0 0-.47 1.17h2.91a1.76 1.76 0 0 0-.36-1.19 1.27 1.27 0 0 0-1.01-.41zm5.81-2.05a.5.5 0 0 1 .14-.41.48.48 0 0 1 .35-.13.49.49 0 0 1 .35.13.51.51 0 0 1 .15.41.53.53 0 0 1-.15.41.5.5 0 0 1-.35.14.48.48 0 0 1-.35-.14.53.53 0 0 1-.14-.41zm.91 6.87h-.84v-5.41h.84zm3.31-.57a2 2 0 0 0 .43 0l.33-.06v.62a1.31 1.31 0 0 1-.4.11 2.9 2.9 0 0 1-.48 0 1.44 1.44 0 0 1-1.61-1.65v-3.22h-.79V33l.79-.34.36-1.16h.48v1.25h1.61v.64h-1.61v3.18a1.06 1.06 0 0 0 .24.75.83.83 0 0 0 .65.29zm1.98-5.41h-.23v-1.14h-.4v-.19h1v.19h-.4zm1.13 0l-.38-1v1h-.23v-1.33h.36l.37 1 .38-1h.34v1.33h-.24v-1.03l-.4 1z" fill="#57585b"/></g></g></svg>