<svg height="52" width="39" xmlns="http://www.w3.org/2000/svg" xmlns:xlink="http://www.w3.org/1999/xlink"><defs><path id="a" d="m29.292 4.689c-3.908 0-8.506-1.794-10.792-4.646h-.032c-2.284 2.852-6.852 4.646-10.76 4.646-3.42 0-5.457-.835-7.708-3.097v27.873s1.88 10.807 18.5 15.485c16.62-4.678 18.5-15.485 18.5-15.485v-27.873c-2.254 2.262-4.288 3.097-7.708 3.097z"/><filter id="b" height="200%" width="200%" x="-50%" y="-50%"><feMorphology in="SourceAlpha" operator="dilate" radius=".75" result="shadowSpreadOuter1"/><feOffset dy="5" in="shadowSpreadOuter1" result="shadowOffsetOuter1"/><feComposite in="shadowOffsetOuter1" in2="SourceAlpha" operator="out" result="shadowOffsetOuter1"/><feColorMatrix in="shadowOffsetOuter1" values="0 0 0 0 0 0 0 0 0 0 0 0 0 0 0 0 0 0 0.17 0"/></filter></defs><g fill="none" fill-rule="evenodd"><g transform="translate(1 1)"><use fill="#000" filter="url(#b)" xlink:href="#a"/><use fill="#fff" stroke="#066796" stroke-linecap="round" stroke-linejoin="round" stroke-width="1.5" xlink:href="#a"/></g><g stroke-linecap="round" stroke-linejoin="round"><path d="m5 5.303v16.178m5-15.965v15.965m5-17.122v17.121m8 1.242v21.63m5-21.63v19.17m5-19.17v15.57" stroke="#0595db" stroke-width="1.5"/><path d="m30.292 5.689c-3.908 0-8.506-1.794-10.792-4.646h-.032c-2.284 2.852-6.852 4.646-10.76 4.646-3.42 0-5.457-.835-7.708-3.097v27.873s1.88 10.807 18.5 15.485c16.62-4.678 18.5-15.485 18.5-15.485v-27.873c-2.254 2.262-4.288 3.097-7.708 3.097z" stroke="#066796" stroke-width="2"/><path d="m19 1.043v44.907m-18-23.913h37" stroke="#066796" stroke-width="1.5"/></g></g></svg>